<mxfile host="Electron" agent="Mozilla/5.0 (Windows NT 10.0; Win64; x64) AppleWebKit/537.36 (KHTML, like Gecko) draw.io/27.0.9 Chrome/134.0.6998.205 Electron/35.4.0 Safari/537.36" version="27.0.9" pages="4">
  <diagram id="e0Gm9KUumrrDWZzIBy6R" name="요구사항확인">
    <mxGraphModel dx="1678" dy="1011" grid="1" gridSize="10" guides="1" tooltips="1" connect="1" arrows="1" fold="1" page="1" pageScale="1" pageWidth="1169" pageHeight="827" math="0" shadow="0">
      <root>
        <mxCell id="0" />
        <mxCell id="1" parent="0" />
        <mxCell id="M4nd0u_oatN7xZWiOBnv-86" value="쇼핑몰 웹사이트 프로그램(이름미정)" style="shape=table;startSize=49;container=1;collapsible=0;childLayout=tableLayout;strokeColor=#A50040;fontSize=18;fontStyle=1;fillColor=#d80073;fontColor=#ffffff;" vertex="1" parent="1">
          <mxGeometry x="30" y="21" width="1090" height="1169" as="geometry" />
        </mxCell>
        <mxCell id="M4nd0u_oatN7xZWiOBnv-87" value="" style="shape=tableRow;horizontal=0;startSize=0;swimlaneHead=0;swimlaneBody=0;strokeColor=inherit;top=0;left=0;bottom=0;right=0;collapsible=0;dropTarget=0;fillColor=none;points=[[0,0.5],[1,0.5]];portConstraint=eastwest;fontSize=16;" vertex="1" parent="M4nd0u_oatN7xZWiOBnv-86">
          <mxGeometry y="49" width="1090" height="42" as="geometry" />
        </mxCell>
        <mxCell id="M4nd0u_oatN7xZWiOBnv-88" value="&lt;font style=&quot;color: rgb(102, 255, 102);&quot;&gt;회원&lt;/font&gt;" style="shape=partialRectangle;html=1;whiteSpace=wrap;connectable=0;overflow=hidden;top=0;left=0;bottom=0;right=0;pointerEvents=1;fontSize=16;fontStyle=1" vertex="1" parent="M4nd0u_oatN7xZWiOBnv-87">
          <mxGeometry width="273" height="42" as="geometry">
            <mxRectangle width="273" height="42" as="alternateBounds" />
          </mxGeometry>
        </mxCell>
        <mxCell id="M4nd0u_oatN7xZWiOBnv-99" value="&lt;font style=&quot;color: rgb(255, 255, 51);&quot;&gt;비회원&lt;/font&gt;" style="shape=partialRectangle;html=1;whiteSpace=wrap;connectable=0;overflow=hidden;top=0;left=0;bottom=0;right=0;pointerEvents=1;fontSize=16;fontStyle=1" vertex="1" parent="M4nd0u_oatN7xZWiOBnv-87">
          <mxGeometry x="273" width="272" height="42" as="geometry">
            <mxRectangle width="272" height="42" as="alternateBounds" />
          </mxGeometry>
        </mxCell>
        <mxCell id="M4nd0u_oatN7xZWiOBnv-89" value="&lt;font style=&quot;color: rgb(0, 127, 255);&quot;&gt;직원&lt;/font&gt;" style="shape=partialRectangle;html=1;whiteSpace=wrap;connectable=0;overflow=hidden;top=0;left=0;bottom=0;right=0;pointerEvents=1;fontSize=16;fontStyle=1" vertex="1" parent="M4nd0u_oatN7xZWiOBnv-87">
          <mxGeometry x="545" width="273" height="42" as="geometry">
            <mxRectangle width="273" height="42" as="alternateBounds" />
          </mxGeometry>
        </mxCell>
        <mxCell id="M4nd0u_oatN7xZWiOBnv-90" value="&lt;font style=&quot;color: rgb(255, 51, 51);&quot;&gt;관리자&lt;/font&gt;" style="shape=partialRectangle;html=1;whiteSpace=wrap;connectable=0;overflow=hidden;top=0;left=0;bottom=0;right=0;pointerEvents=1;fontSize=16;fontStyle=1" vertex="1" parent="M4nd0u_oatN7xZWiOBnv-87">
          <mxGeometry x="818" width="272" height="42" as="geometry">
            <mxRectangle width="272" height="42" as="alternateBounds" />
          </mxGeometry>
        </mxCell>
        <mxCell id="M4nd0u_oatN7xZWiOBnv-91" value="" style="shape=tableRow;horizontal=0;startSize=0;swimlaneHead=0;swimlaneBody=0;strokeColor=inherit;top=0;left=0;bottom=0;right=0;collapsible=0;dropTarget=0;fillColor=none;points=[[0,0.5],[1,0.5]];portConstraint=eastwest;fontSize=16;align=center;" vertex="1" parent="M4nd0u_oatN7xZWiOBnv-86">
          <mxGeometry y="91" width="1090" height="65" as="geometry" />
        </mxCell>
        <mxCell id="M4nd0u_oatN7xZWiOBnv-92" value="&lt;div&gt;&lt;font&gt;&lt;span style=&quot;font-family: Helvetica; font-style: normal; font-variant-ligatures: normal; font-variant-caps: normal; font-weight: 700; letter-spacing: normal; orphans: 2; text-indent: 0px; text-transform: none; widows: 2; word-spacing: 0px; -webkit-text-stroke-width: 0px; white-space: normal; text-decoration-thickness: initial; text-decoration-style: initial; text-decoration-color: initial; float: none; display: inline !important;&quot;&gt;인증 서비스(회원가입)&lt;/span&gt;&lt;br&gt;&lt;/font&gt;&lt;div&gt;&lt;b&gt;▼&lt;/b&gt;&lt;/div&gt;&lt;/div&gt;" style="shape=partialRectangle;html=1;whiteSpace=wrap;connectable=0;strokeColor=#2D7600;overflow=hidden;fillColor=#60a917;top=0;left=0;bottom=0;right=0;pointerEvents=1;fontSize=17;fontColor=#FFFFFF;labelBackgroundColor=none;align=center;" vertex="1" parent="M4nd0u_oatN7xZWiOBnv-91">
          <mxGeometry width="273" height="65" as="geometry">
            <mxRectangle width="273" height="65" as="alternateBounds" />
          </mxGeometry>
        </mxCell>
        <mxCell id="M4nd0u_oatN7xZWiOBnv-100" value="&lt;font style=&quot;font-size: 17px;&quot;&gt;&lt;span style=&quot;font-weight: 700;&quot;&gt;인증 서비스(회원가입)&lt;/span&gt;&lt;br&gt;&lt;/font&gt;&lt;div style=&quot;font-size: 17px;&quot;&gt;&lt;b&gt;▼&lt;/b&gt;&lt;/div&gt;" style="shape=partialRectangle;html=1;whiteSpace=wrap;connectable=0;strokeColor=#2D7600;overflow=hidden;fillColor=#60a917;top=0;left=0;bottom=0;right=0;pointerEvents=1;fontSize=16;fontColor=#ffffff;" vertex="1" parent="M4nd0u_oatN7xZWiOBnv-91">
          <mxGeometry x="273" width="272" height="65" as="geometry">
            <mxRectangle width="272" height="65" as="alternateBounds" />
          </mxGeometry>
        </mxCell>
        <mxCell id="M4nd0u_oatN7xZWiOBnv-93" value="&lt;font style=&quot;font-size: 17px;&quot;&gt;&lt;span style=&quot;font-weight: 700;&quot;&gt;인증 서비스(회원가입)&lt;/span&gt;&lt;br&gt;&lt;/font&gt;&lt;div style=&quot;font-size: 17px;&quot;&gt;&lt;b&gt;▼&lt;/b&gt;&lt;/div&gt;" style="shape=partialRectangle;html=1;whiteSpace=wrap;connectable=0;strokeColor=#2D7600;overflow=hidden;fillColor=#60a917;top=0;left=0;bottom=0;right=0;pointerEvents=1;fontSize=16;fontColor=#ffffff;" vertex="1" parent="M4nd0u_oatN7xZWiOBnv-91">
          <mxGeometry x="545" width="273" height="65" as="geometry">
            <mxRectangle width="273" height="65" as="alternateBounds" />
          </mxGeometry>
        </mxCell>
        <mxCell id="M4nd0u_oatN7xZWiOBnv-94" value="&lt;font style=&quot;font-size: 17px;&quot;&gt;&lt;span style=&quot;font-weight: 700;&quot;&gt;인증 서비스(회원가입)&lt;/span&gt;&lt;br&gt;&lt;/font&gt;&lt;div style=&quot;font-size: 17px;&quot;&gt;&lt;b&gt;▼&lt;/b&gt;&lt;/div&gt;" style="shape=partialRectangle;html=1;whiteSpace=wrap;connectable=0;strokeColor=#2D7600;overflow=hidden;fillColor=#60a917;top=0;left=0;bottom=0;right=0;pointerEvents=1;fontSize=16;fontColor=#ffffff;" vertex="1" parent="M4nd0u_oatN7xZWiOBnv-91">
          <mxGeometry x="818" width="272" height="65" as="geometry">
            <mxRectangle width="272" height="65" as="alternateBounds" />
          </mxGeometry>
        </mxCell>
        <mxCell id="9r9KW7ARORQsPr3hUOxs-6" value="" style="shape=tableRow;horizontal=0;startSize=0;swimlaneHead=0;swimlaneBody=0;strokeColor=inherit;top=0;left=0;bottom=0;right=0;collapsible=0;dropTarget=0;fillColor=none;points=[[0,0.5],[1,0.5]];portConstraint=eastwest;fontSize=16;" vertex="1" parent="M4nd0u_oatN7xZWiOBnv-86">
          <mxGeometry y="156" width="1090" height="240" as="geometry" />
        </mxCell>
        <mxCell id="9r9KW7ARORQsPr3hUOxs-7" value="&lt;span&gt;회원가입 X (Create)&lt;/span&gt;&lt;br&gt;&lt;span&gt;나의 정보 조회 가능(Read)&lt;/span&gt;&lt;br&gt;&lt;span&gt;나의 정보 수정 가능(Update)&lt;/span&gt;&lt;br&gt;&lt;span&gt;나의 정보 삭제 가능(Delete)&lt;/span&gt;&lt;br&gt;&lt;br&gt;&lt;span&gt;로그인 &amp;amp; 로그아웃&lt;/span&gt;&lt;br&gt;&lt;span&gt;(Process)&lt;/span&gt;&lt;br&gt;&lt;span&gt;(사용자 확인 &amp;amp; 로그 기록 및 저장)&lt;/span&gt;" style="shape=partialRectangle;html=1;whiteSpace=wrap;connectable=0;overflow=hidden;top=0;left=0;bottom=0;right=0;pointerEvents=1;fontSize=15;" vertex="1" parent="9r9KW7ARORQsPr3hUOxs-6">
          <mxGeometry width="273" height="240" as="geometry">
            <mxRectangle width="273" height="240" as="alternateBounds" />
          </mxGeometry>
        </mxCell>
        <mxCell id="9r9KW7ARORQsPr3hUOxs-8" value="&lt;span&gt;회원가입 가능(Create)&lt;/span&gt;" style="shape=partialRectangle;html=1;whiteSpace=wrap;connectable=0;overflow=hidden;top=0;left=0;bottom=0;right=0;pointerEvents=1;fontSize=15;" vertex="1" parent="9r9KW7ARORQsPr3hUOxs-6">
          <mxGeometry x="273" width="272" height="240" as="geometry">
            <mxRectangle width="272" height="240" as="alternateBounds" />
          </mxGeometry>
        </mxCell>
        <mxCell id="9r9KW7ARORQsPr3hUOxs-9" value="&lt;span&gt;회원가입 X (Create)&lt;/span&gt;&lt;br&gt;&lt;span&gt;나의 정보 조회 가능(Read)&lt;/span&gt;&lt;br&gt;&lt;span&gt;나의 정보 수정 가능(Update)&lt;/span&gt;&lt;br&gt;&lt;span&gt;나의 정보 삭제 가능(Delete)&lt;/span&gt;&lt;br&gt;&lt;br&gt;&lt;span&gt;로그인 &amp;amp; 로그아웃&lt;/span&gt;&lt;br&gt;&lt;span&gt;(Process)&lt;/span&gt;&lt;br&gt;&lt;span&gt;(사용자 확인 &amp;amp; 로그 기록 및 저장)&lt;/span&gt;" style="shape=partialRectangle;html=1;whiteSpace=wrap;connectable=0;overflow=hidden;top=0;left=0;bottom=0;right=0;pointerEvents=1;fontSize=15;" vertex="1" parent="9r9KW7ARORQsPr3hUOxs-6">
          <mxGeometry x="545" width="273" height="240" as="geometry">
            <mxRectangle width="273" height="240" as="alternateBounds" />
          </mxGeometry>
        </mxCell>
        <mxCell id="9r9KW7ARORQsPr3hUOxs-10" value="&lt;span&gt;회원가입 X (Create)&lt;/span&gt;&lt;br&gt;&lt;span&gt;회원 정보 조회 가능 (Read)&lt;/span&gt;&lt;br&gt;&lt;span&gt;회원 정보 수정 가능 (Update)&lt;/span&gt;&lt;br&gt;&lt;span&gt;회원 정보 삭제 가능 (Delete)&lt;/span&gt;&lt;br&gt;&lt;br&gt;&lt;span&gt;직원 관리&amp;nbsp;&lt;/span&gt;&lt;div&gt;직원 정보 등록 가능 (&lt;span style=&quot;background-color: transparent; color: light-dark(rgb(0, 0, 0), rgb(255, 255, 255));&quot;&gt;Create&lt;/span&gt;&lt;span style=&quot;background-color: transparent; color: light-dark(rgb(0, 0, 0), rgb(255, 255, 255));&quot;&gt;)&lt;/span&gt;&lt;/div&gt;&lt;div&gt;직원 정보 조회 가능 (Read)&lt;br&gt;직원 정보 수정 가능 (Update)&lt;br&gt;직원 정보 삭제 가능 (Delete)&lt;/div&gt;" style="shape=partialRectangle;html=1;whiteSpace=wrap;connectable=0;overflow=hidden;top=0;left=0;bottom=0;right=0;pointerEvents=1;fontSize=15;" vertex="1" parent="9r9KW7ARORQsPr3hUOxs-6">
          <mxGeometry x="818" width="272" height="240" as="geometry">
            <mxRectangle width="272" height="240" as="alternateBounds" />
          </mxGeometry>
        </mxCell>
        <mxCell id="M4nd0u_oatN7xZWiOBnv-95" value="" style="shape=tableRow;horizontal=0;startSize=0;swimlaneHead=0;swimlaneBody=0;strokeColor=inherit;top=0;left=0;bottom=0;right=0;collapsible=0;dropTarget=0;fillColor=none;points=[[0,0.5],[1,0.5]];portConstraint=eastwest;fontSize=16;" vertex="1" parent="M4nd0u_oatN7xZWiOBnv-86">
          <mxGeometry y="396" width="1090" height="63" as="geometry" />
        </mxCell>
        <mxCell id="M4nd0u_oatN7xZWiOBnv-96" value="&lt;div style=&quot;forced-color-adjust: none; font-family: Helvetica; font-style: normal; font-variant-ligatures: normal; font-variant-caps: normal; letter-spacing: normal; orphans: 2; text-align: center; text-indent: 0px; text-transform: none; widows: 2; word-spacing: 0px; -webkit-text-stroke-width: 0px; white-space: normal; text-decoration-thickness: initial; text-decoration-style: initial; text-decoration-color: initial; box-shadow: none !important;&quot;&gt;&lt;b style=&quot;&quot;&gt;&lt;font style=&quot;font-size: 23px;&quot;&gt;서비스&lt;/font&gt;&lt;/b&gt;&lt;/div&gt;" style="shape=partialRectangle;html=1;whiteSpace=wrap;connectable=0;overflow=hidden;top=0;left=0;bottom=0;right=0;pointerEvents=1;fontSize=15;rowspan=1;colspan=4;fontColor=default;labelBackgroundColor=none;fillColor=#f0a30a;strokeColor=#BD7000;" vertex="1" parent="M4nd0u_oatN7xZWiOBnv-95">
          <mxGeometry width="1090" height="63" as="geometry">
            <mxRectangle width="273" height="63" as="alternateBounds" />
          </mxGeometry>
        </mxCell>
        <mxCell id="M4nd0u_oatN7xZWiOBnv-101" value="" style="shape=partialRectangle;html=1;whiteSpace=wrap;connectable=0;overflow=hidden;top=0;left=0;bottom=0;right=0;pointerEvents=1;fontSize=15;" vertex="1" visible="0" parent="M4nd0u_oatN7xZWiOBnv-95">
          <mxGeometry x="273" width="272" height="63" as="geometry">
            <mxRectangle width="272" height="63" as="alternateBounds" />
          </mxGeometry>
        </mxCell>
        <mxCell id="M4nd0u_oatN7xZWiOBnv-97" value="" style="shape=partialRectangle;html=1;whiteSpace=wrap;connectable=0;overflow=hidden;top=0;left=0;bottom=0;right=0;pointerEvents=1;fontSize=15;" vertex="1" visible="0" parent="M4nd0u_oatN7xZWiOBnv-95">
          <mxGeometry x="545" width="273" height="63" as="geometry">
            <mxRectangle width="273" height="63" as="alternateBounds" />
          </mxGeometry>
        </mxCell>
        <mxCell id="M4nd0u_oatN7xZWiOBnv-98" value="" style="shape=partialRectangle;html=1;whiteSpace=wrap;connectable=0;overflow=hidden;top=0;left=0;bottom=0;right=0;pointerEvents=1;fontSize=15;" vertex="1" visible="0" parent="M4nd0u_oatN7xZWiOBnv-95">
          <mxGeometry x="818" width="272" height="63" as="geometry">
            <mxRectangle width="272" height="63" as="alternateBounds" />
          </mxGeometry>
        </mxCell>
        <mxCell id="M4nd0u_oatN7xZWiOBnv-102" style="shape=tableRow;horizontal=0;startSize=0;swimlaneHead=0;swimlaneBody=0;strokeColor=inherit;top=0;left=0;bottom=0;right=0;collapsible=0;dropTarget=0;fillColor=none;points=[[0,0.5],[1,0.5]];portConstraint=eastwest;fontSize=16;" vertex="1" parent="M4nd0u_oatN7xZWiOBnv-86">
          <mxGeometry y="459" width="1090" height="65" as="geometry" />
        </mxCell>
        <mxCell id="M4nd0u_oatN7xZWiOBnv-103" value="&lt;span style=&quot;font-size: 17px;&quot;&gt;&lt;b&gt;주문 서비스&lt;/b&gt;&lt;/span&gt;&lt;br&gt;&lt;div&gt;&lt;span style=&quot;font-size: 17px;&quot;&gt;&lt;b&gt;▼&lt;/b&gt;&lt;/span&gt;&lt;/div&gt;" style="shape=partialRectangle;html=1;whiteSpace=wrap;connectable=0;strokeColor=#3700CC;overflow=hidden;fillColor=#6a00ff;top=0;left=0;bottom=0;right=0;pointerEvents=1;fontSize=16;fontColor=#ffffff;" vertex="1" parent="M4nd0u_oatN7xZWiOBnv-102">
          <mxGeometry width="273" height="65" as="geometry">
            <mxRectangle width="273" height="65" as="alternateBounds" />
          </mxGeometry>
        </mxCell>
        <mxCell id="M4nd0u_oatN7xZWiOBnv-104" value="&lt;span style=&quot;font-size: 17px;&quot;&gt;&lt;b&gt;주문 서비스&lt;/b&gt;&lt;/span&gt;&lt;br&gt;&lt;div&gt;&lt;span style=&quot;font-size: 17px;&quot;&gt;&lt;b&gt;▼&lt;/b&gt;&lt;/span&gt;&lt;/div&gt;" style="shape=partialRectangle;html=1;whiteSpace=wrap;connectable=0;strokeColor=#3700CC;overflow=hidden;fillColor=#6a00ff;top=0;left=0;bottom=0;right=0;pointerEvents=1;fontSize=16;fontColor=#ffffff;" vertex="1" parent="M4nd0u_oatN7xZWiOBnv-102">
          <mxGeometry x="273" width="272" height="65" as="geometry">
            <mxRectangle width="272" height="65" as="alternateBounds" />
          </mxGeometry>
        </mxCell>
        <mxCell id="M4nd0u_oatN7xZWiOBnv-105" value="&lt;span style=&quot;font-size: 17px;&quot;&gt;&lt;b&gt;주문 서비스&lt;/b&gt;&lt;/span&gt;&lt;br&gt;&lt;div&gt;&lt;span style=&quot;font-size: 17px;&quot;&gt;&lt;b&gt;▼&lt;/b&gt;&lt;/span&gt;&lt;/div&gt;" style="shape=partialRectangle;html=1;whiteSpace=wrap;connectable=0;strokeColor=#3700CC;overflow=hidden;fillColor=#6a00ff;top=0;left=0;bottom=0;right=0;pointerEvents=1;fontSize=16;fontColor=#ffffff;" vertex="1" parent="M4nd0u_oatN7xZWiOBnv-102">
          <mxGeometry x="545" width="273" height="65" as="geometry">
            <mxRectangle width="273" height="65" as="alternateBounds" />
          </mxGeometry>
        </mxCell>
        <mxCell id="M4nd0u_oatN7xZWiOBnv-106" value="&lt;span style=&quot;font-size: 17px;&quot;&gt;&lt;b&gt;주문 서비스&lt;/b&gt;&lt;/span&gt;&lt;br&gt;&lt;div&gt;&lt;span style=&quot;font-size: 17px;&quot;&gt;&lt;b&gt;▼&lt;/b&gt;&lt;/span&gt;&lt;/div&gt;" style="shape=partialRectangle;html=1;whiteSpace=wrap;connectable=0;strokeColor=#3700CC;overflow=hidden;fillColor=#6a00ff;top=0;left=0;bottom=0;right=0;pointerEvents=1;fontSize=16;fontColor=#ffffff;" vertex="1" parent="M4nd0u_oatN7xZWiOBnv-102">
          <mxGeometry x="818" width="272" height="65" as="geometry">
            <mxRectangle width="272" height="65" as="alternateBounds" />
          </mxGeometry>
        </mxCell>
        <mxCell id="_k7ks033nYJ_3w33mwjG-6" style="shape=tableRow;horizontal=0;startSize=0;swimlaneHead=0;swimlaneBody=0;strokeColor=inherit;top=0;left=0;bottom=0;right=0;collapsible=0;dropTarget=0;fillColor=none;points=[[0,0.5],[1,0.5]];portConstraint=eastwest;fontSize=16;" vertex="1" parent="M4nd0u_oatN7xZWiOBnv-86">
          <mxGeometry y="524" width="1090" height="152" as="geometry" />
        </mxCell>
        <mxCell id="_k7ks033nYJ_3w33mwjG-7" value="&lt;div&gt;&lt;span style=&quot;background-color: transparent; color: light-dark(rgb(0, 0, 0), rgb(255, 255, 255));&quot;&gt;주문하기 O (Create)&lt;/span&gt;&lt;/div&gt;&lt;div&gt;&lt;span style=&quot;background-color: transparent; color: light-dark(rgb(0, 0, 0), rgb(255, 255, 255));&quot;&gt;주문확인 O (Read)&lt;/span&gt;&lt;/div&gt;&lt;div&gt;주문변경 O (Update)&lt;br&gt;주문취소 O (Delete)&lt;/div&gt;" style="shape=partialRectangle;html=1;whiteSpace=wrap;connectable=0;overflow=hidden;top=0;left=0;bottom=0;right=0;pointerEvents=1;fontSize=15;align=center;" vertex="1" parent="_k7ks033nYJ_3w33mwjG-6">
          <mxGeometry width="273" height="152" as="geometry">
            <mxRectangle width="273" height="152" as="alternateBounds" />
          </mxGeometry>
        </mxCell>
        <mxCell id="_k7ks033nYJ_3w33mwjG-8" value="&lt;div&gt;&lt;span style=&quot;background-color: transparent; color: light-dark(rgb(0, 0, 0), rgb(255, 255, 255));&quot;&gt;주문하기 X (Create)&lt;/span&gt;&lt;/div&gt;&lt;div&gt;주문확인 X (Read)&lt;br&gt;주문변경 X (Update)&lt;br&gt;주문취소 X (Delete)&lt;/div&gt;" style="shape=partialRectangle;html=1;whiteSpace=wrap;connectable=0;overflow=hidden;top=0;left=0;bottom=0;right=0;pointerEvents=1;fontSize=15;align=center;" vertex="1" parent="_k7ks033nYJ_3w33mwjG-6">
          <mxGeometry x="273" width="272" height="152" as="geometry">
            <mxRectangle width="272" height="152" as="alternateBounds" />
          </mxGeometry>
        </mxCell>
        <mxCell id="_k7ks033nYJ_3w33mwjG-9" value="&lt;div&gt;&lt;span style=&quot;background-color: transparent; color: light-dark(rgb(0, 0, 0), rgb(255, 255, 255));&quot;&gt;주문결제승인 O (Create)&lt;/span&gt;&lt;/div&gt;&lt;div&gt;주문내역확인 O (Read)&lt;br&gt;주문변경승인 O (Update)&lt;br&gt;주문취소승인 O (Delete)&lt;/div&gt;" style="shape=partialRectangle;html=1;whiteSpace=wrap;connectable=0;overflow=hidden;top=0;left=0;bottom=0;right=0;pointerEvents=1;fontSize=15;align=center;" vertex="1" parent="_k7ks033nYJ_3w33mwjG-6">
          <mxGeometry x="545" width="273" height="152" as="geometry">
            <mxRectangle width="273" height="152" as="alternateBounds" />
          </mxGeometry>
        </mxCell>
        <mxCell id="_k7ks033nYJ_3w33mwjG-10" value="&lt;div&gt;&lt;span style=&quot;background-color: transparent; color: light-dark(rgb(0, 0, 0), rgb(255, 255, 255));&quot;&gt;주문결제승인 O (Create)&lt;/span&gt;&lt;/div&gt;&lt;div&gt;주문내역확인 O (Read)&lt;br&gt;주문변경승인 O (Update)&lt;br&gt;주문취소승인 O (Delete)&lt;/div&gt;" style="shape=partialRectangle;html=1;whiteSpace=wrap;connectable=0;overflow=hidden;top=0;left=0;bottom=0;right=0;pointerEvents=1;fontSize=15;align=center;" vertex="1" parent="_k7ks033nYJ_3w33mwjG-6">
          <mxGeometry x="818" width="272" height="152" as="geometry">
            <mxRectangle width="272" height="152" as="alternateBounds" />
          </mxGeometry>
        </mxCell>
        <mxCell id="_k7ks033nYJ_3w33mwjG-16" style="shape=tableRow;horizontal=0;startSize=0;swimlaneHead=0;swimlaneBody=0;strokeColor=inherit;top=0;left=0;bottom=0;right=0;collapsible=0;dropTarget=0;fillColor=none;points=[[0,0.5],[1,0.5]];portConstraint=eastwest;fontSize=16;" vertex="1" parent="M4nd0u_oatN7xZWiOBnv-86">
          <mxGeometry y="676" width="1090" height="67" as="geometry" />
        </mxCell>
        <mxCell id="_k7ks033nYJ_3w33mwjG-17" value="&lt;span style=&quot;forced-color-adjust: none; font-family: Helvetica; font-style: normal; font-variant-ligatures: normal; font-variant-caps: normal; font-weight: 400; letter-spacing: normal; orphans: 2; text-align: center; text-indent: 0px; text-transform: none; widows: 2; word-spacing: 0px; -webkit-text-stroke-width: 0px; white-space: normal; text-decoration-thickness: initial; text-decoration-style: initial; text-decoration-color: initial; font-size: 17px; box-shadow: none !important;&quot;&gt;&lt;b style=&quot;forced-color-adjust: none; box-shadow: none !important;&quot;&gt;이벤트 서비스&lt;/b&gt;&lt;/span&gt;&lt;br style=&quot;forced-color-adjust: none; font-family: Helvetica; font-size: 16px; font-style: normal; font-variant-ligatures: normal; font-variant-caps: normal; font-weight: 400; letter-spacing: normal; orphans: 2; text-align: center; text-indent: 0px; text-transform: none; widows: 2; word-spacing: 0px; -webkit-text-stroke-width: 0px; white-space: normal; text-decoration-thickness: initial; text-decoration-style: initial; text-decoration-color: initial; box-shadow: none !important;&quot;&gt;&lt;div style=&quot;forced-color-adjust: none; font-family: Helvetica; font-size: 16px; font-style: normal; font-variant-ligatures: normal; font-variant-caps: normal; font-weight: 400; letter-spacing: normal; orphans: 2; text-align: center; text-indent: 0px; text-transform: none; widows: 2; word-spacing: 0px; -webkit-text-stroke-width: 0px; white-space: normal; text-decoration-thickness: initial; text-decoration-style: initial; text-decoration-color: initial; box-shadow: none !important;&quot;&gt;&lt;span style=&quot;forced-color-adjust: none; box-shadow: none !important; font-size: 17px;&quot;&gt;&lt;b style=&quot;forced-color-adjust: none; box-shadow: none !important;&quot;&gt;▼&lt;/b&gt;&lt;/span&gt;&lt;/div&gt;" style="shape=partialRectangle;html=1;whiteSpace=wrap;connectable=0;overflow=hidden;top=0;left=0;bottom=0;right=0;pointerEvents=1;fontSize=16;fillColor=#6a00ff;fontColor=#FFFFFF;strokeColor=#3700CC;labelBackgroundColor=none;" vertex="1" parent="_k7ks033nYJ_3w33mwjG-16">
          <mxGeometry width="273" height="67" as="geometry">
            <mxRectangle width="273" height="67" as="alternateBounds" />
          </mxGeometry>
        </mxCell>
        <mxCell id="_k7ks033nYJ_3w33mwjG-18" value="&lt;span style=&quot;font-size: 17px;&quot;&gt;&lt;b&gt;이벤트 서비스&lt;/b&gt;&lt;/span&gt;&lt;br&gt;&lt;div&gt;&lt;span style=&quot;font-size: 17px;&quot;&gt;&lt;b&gt;▼&lt;/b&gt;&lt;/span&gt;&lt;/div&gt;" style="shape=partialRectangle;html=1;whiteSpace=wrap;connectable=0;overflow=hidden;top=0;left=0;bottom=0;right=0;pointerEvents=1;fontSize=16;fillColor=#6a00ff;fontColor=#ffffff;strokeColor=#3700CC;" vertex="1" parent="_k7ks033nYJ_3w33mwjG-16">
          <mxGeometry x="273" width="272" height="67" as="geometry">
            <mxRectangle width="272" height="67" as="alternateBounds" />
          </mxGeometry>
        </mxCell>
        <mxCell id="_k7ks033nYJ_3w33mwjG-19" value="&lt;span style=&quot;font-size: 17px;&quot;&gt;&lt;b&gt;이벤트 서비스&lt;/b&gt;&lt;/span&gt;&lt;br&gt;&lt;div&gt;&lt;span style=&quot;font-size: 17px;&quot;&gt;&lt;b&gt;▼&lt;/b&gt;&lt;/span&gt;&lt;/div&gt;" style="shape=partialRectangle;html=1;whiteSpace=wrap;connectable=0;overflow=hidden;top=0;left=0;bottom=0;right=0;pointerEvents=1;fontSize=16;fillColor=#6a00ff;fontColor=#ffffff;strokeColor=#3700CC;" vertex="1" parent="_k7ks033nYJ_3w33mwjG-16">
          <mxGeometry x="545" width="273" height="67" as="geometry">
            <mxRectangle width="273" height="67" as="alternateBounds" />
          </mxGeometry>
        </mxCell>
        <mxCell id="_k7ks033nYJ_3w33mwjG-20" value="&lt;span style=&quot;font-size: 17px;&quot;&gt;&lt;b&gt;이벤트 서비스&lt;/b&gt;&lt;/span&gt;&lt;br&gt;&lt;div&gt;&lt;span style=&quot;font-size: 17px;&quot;&gt;&lt;b&gt;▼&lt;/b&gt;&lt;/span&gt;&lt;/div&gt;" style="shape=partialRectangle;html=1;whiteSpace=wrap;connectable=0;overflow=hidden;top=0;left=0;bottom=0;right=0;pointerEvents=1;fontSize=16;fillColor=#6a00ff;fontColor=#ffffff;strokeColor=#3700CC;" vertex="1" parent="_k7ks033nYJ_3w33mwjG-16">
          <mxGeometry x="818" width="272" height="67" as="geometry">
            <mxRectangle width="272" height="67" as="alternateBounds" />
          </mxGeometry>
        </mxCell>
        <mxCell id="_k7ks033nYJ_3w33mwjG-21" style="shape=tableRow;horizontal=0;startSize=0;swimlaneHead=0;swimlaneBody=0;strokeColor=inherit;top=0;left=0;bottom=0;right=0;collapsible=0;dropTarget=0;fillColor=none;points=[[0,0.5],[1,0.5]];portConstraint=eastwest;fontSize=16;" vertex="1" parent="M4nd0u_oatN7xZWiOBnv-86">
          <mxGeometry y="743" width="1090" height="175" as="geometry" />
        </mxCell>
        <mxCell id="_k7ks033nYJ_3w33mwjG-22" value="&lt;div&gt;&lt;span style=&quot;background-color: transparent; color: light-dark(rgb(0, 0, 0), rgb(255, 255, 255));&quot;&gt;쿠폰사용 O (Create)&lt;/span&gt;&lt;/div&gt;&lt;div&gt;쿠폰내역확인 O (Read)&lt;br&gt;쿠폰변경/추가 X (Update)&lt;br&gt;쿠폰사용취소 X (Delete)&lt;/div&gt;" style="shape=partialRectangle;html=1;whiteSpace=wrap;connectable=0;overflow=hidden;top=0;left=0;bottom=0;right=0;pointerEvents=1;fontSize=15;align=center;" vertex="1" parent="_k7ks033nYJ_3w33mwjG-21">
          <mxGeometry width="273" height="175" as="geometry">
            <mxRectangle width="273" height="175" as="alternateBounds" />
          </mxGeometry>
        </mxCell>
        <mxCell id="_k7ks033nYJ_3w33mwjG-23" value="&lt;div&gt;&lt;span style=&quot;background-color: transparent; color: light-dark(rgb(0, 0, 0), rgb(255, 255, 255));&quot;&gt;쿠폰사용 X (Create)&lt;/span&gt;&lt;/div&gt;&lt;div&gt;쿠폰내역확인 X (Read)&lt;br&gt;쿠폰변경/추가 X (Update)&lt;br&gt;쿠폰사용취소 X (Delete)&lt;/div&gt;" style="shape=partialRectangle;html=1;whiteSpace=wrap;connectable=0;overflow=hidden;top=0;left=0;bottom=0;right=0;pointerEvents=1;fontSize=15;align=center;" vertex="1" parent="_k7ks033nYJ_3w33mwjG-21">
          <mxGeometry x="273" width="272" height="175" as="geometry">
            <mxRectangle width="272" height="175" as="alternateBounds" />
          </mxGeometry>
        </mxCell>
        <mxCell id="_k7ks033nYJ_3w33mwjG-24" value="&lt;div&gt;&lt;span style=&quot;background-color: transparent; color: light-dark(rgb(0, 0, 0), rgb(255, 255, 255));&quot;&gt;쿠폰제작 O (Create)&lt;/span&gt;&lt;/div&gt;&lt;div&gt;쿠폰내역확인 O (Read)&lt;br&gt;쿠폰변경/추가 O (Update)&lt;br&gt;쿠폰사용취소 O (Delete)&lt;/div&gt;" style="shape=partialRectangle;html=1;whiteSpace=wrap;connectable=0;overflow=hidden;top=0;left=0;bottom=0;right=0;pointerEvents=1;fontSize=15;align=center;" vertex="1" parent="_k7ks033nYJ_3w33mwjG-21">
          <mxGeometry x="545" width="273" height="175" as="geometry">
            <mxRectangle width="273" height="175" as="alternateBounds" />
          </mxGeometry>
        </mxCell>
        <mxCell id="_k7ks033nYJ_3w33mwjG-25" value="&lt;div&gt;&lt;span style=&quot;background-color: transparent; color: light-dark(rgb(0, 0, 0), rgb(255, 255, 255));&quot;&gt;쿠폰제작 O (Create)&lt;/span&gt;&lt;/div&gt;&lt;div&gt;쿠폰내역확인 O (Read)&lt;br&gt;쿠폰변경/추가 O (Update)&lt;br&gt;쿠폰사용취소 O (Delete)&lt;/div&gt;" style="shape=partialRectangle;html=1;whiteSpace=wrap;connectable=0;overflow=hidden;top=0;left=0;bottom=0;right=0;pointerEvents=1;fontSize=15;align=center;" vertex="1" parent="_k7ks033nYJ_3w33mwjG-21">
          <mxGeometry x="818" width="272" height="175" as="geometry">
            <mxRectangle width="272" height="175" as="alternateBounds" />
          </mxGeometry>
        </mxCell>
        <mxCell id="_k7ks033nYJ_3w33mwjG-26" style="shape=tableRow;horizontal=0;startSize=0;swimlaneHead=0;swimlaneBody=0;strokeColor=inherit;top=0;left=0;bottom=0;right=0;collapsible=0;dropTarget=0;fillColor=none;points=[[0,0.5],[1,0.5]];portConstraint=eastwest;fontSize=16;" vertex="1" parent="M4nd0u_oatN7xZWiOBnv-86">
          <mxGeometry y="918" width="1090" height="67" as="geometry" />
        </mxCell>
        <mxCell id="_k7ks033nYJ_3w33mwjG-27" value="&lt;span style=&quot;forced-color-adjust: none; font-family: Helvetica; font-style: normal; font-variant-ligatures: normal; font-variant-caps: normal; font-weight: 400; letter-spacing: normal; orphans: 2; text-align: center; text-indent: 0px; text-transform: none; widows: 2; word-spacing: 0px; -webkit-text-stroke-width: 0px; white-space: normal; text-decoration-thickness: initial; text-decoration-style: initial; text-decoration-color: initial; font-size: 17px; box-shadow: none !important;&quot;&gt;&lt;b style=&quot;forced-color-adjust: none; box-shadow: none !important;&quot;&gt;공지/알림 서비스&lt;/b&gt;&lt;/span&gt;&lt;br style=&quot;forced-color-adjust: none; font-family: Helvetica; font-size: 16px; font-style: normal; font-variant-ligatures: normal; font-variant-caps: normal; font-weight: 400; letter-spacing: normal; orphans: 2; text-align: center; text-indent: 0px; text-transform: none; widows: 2; word-spacing: 0px; -webkit-text-stroke-width: 0px; white-space: normal; text-decoration-thickness: initial; text-decoration-style: initial; text-decoration-color: initial; box-shadow: none !important;&quot;&gt;&lt;div style=&quot;forced-color-adjust: none; font-family: Helvetica; font-size: 16px; font-style: normal; font-variant-ligatures: normal; font-variant-caps: normal; font-weight: 400; letter-spacing: normal; orphans: 2; text-align: center; text-indent: 0px; text-transform: none; widows: 2; word-spacing: 0px; -webkit-text-stroke-width: 0px; white-space: normal; text-decoration-thickness: initial; text-decoration-style: initial; text-decoration-color: initial; box-shadow: none !important;&quot;&gt;&lt;span style=&quot;forced-color-adjust: none; box-shadow: none !important; font-size: 17px;&quot;&gt;&lt;b style=&quot;forced-color-adjust: none; box-shadow: none !important;&quot;&gt;▼&lt;/b&gt;&lt;/span&gt;&lt;/div&gt;" style="shape=partialRectangle;html=1;whiteSpace=wrap;connectable=0;overflow=hidden;top=0;left=0;bottom=0;right=0;pointerEvents=1;fontSize=16;fontColor=#ffffff;labelBackgroundColor=none;fillColor=#6a00ff;strokeColor=#3700CC;" vertex="1" parent="_k7ks033nYJ_3w33mwjG-26">
          <mxGeometry width="273" height="67" as="geometry">
            <mxRectangle width="273" height="67" as="alternateBounds" />
          </mxGeometry>
        </mxCell>
        <mxCell id="_k7ks033nYJ_3w33mwjG-28" value="&lt;span style=&quot;forced-color-adjust: none; font-family: Helvetica; font-style: normal; font-variant-ligatures: normal; font-variant-caps: normal; font-weight: 400; letter-spacing: normal; orphans: 2; text-align: center; text-indent: 0px; text-transform: none; widows: 2; word-spacing: 0px; -webkit-text-stroke-width: 0px; white-space: normal; text-decoration-thickness: initial; text-decoration-style: initial; text-decoration-color: initial; font-size: 17px; box-shadow: none !important;&quot;&gt;&lt;b style=&quot;forced-color-adjust: none; box-shadow: none !important;&quot;&gt;공지/알림 서비스&lt;/b&gt;&lt;/span&gt;&lt;br style=&quot;forced-color-adjust: none; font-family: Helvetica; font-size: 16px; font-style: normal; font-variant-ligatures: normal; font-variant-caps: normal; font-weight: 400; letter-spacing: normal; orphans: 2; text-align: center; text-indent: 0px; text-transform: none; widows: 2; word-spacing: 0px; -webkit-text-stroke-width: 0px; white-space: normal; text-decoration-thickness: initial; text-decoration-style: initial; text-decoration-color: initial; box-shadow: none !important;&quot;&gt;&lt;div style=&quot;forced-color-adjust: none; font-family: Helvetica; font-size: 16px; font-style: normal; font-variant-ligatures: normal; font-variant-caps: normal; font-weight: 400; letter-spacing: normal; orphans: 2; text-align: center; text-indent: 0px; text-transform: none; widows: 2; word-spacing: 0px; -webkit-text-stroke-width: 0px; white-space: normal; text-decoration-thickness: initial; text-decoration-style: initial; text-decoration-color: initial; box-shadow: none !important;&quot;&gt;&lt;span style=&quot;forced-color-adjust: none; box-shadow: none !important; font-size: 17px;&quot;&gt;&lt;b style=&quot;forced-color-adjust: none; box-shadow: none !important;&quot;&gt;▼&lt;/b&gt;&lt;/span&gt;&lt;/div&gt;" style="shape=partialRectangle;html=1;whiteSpace=wrap;connectable=0;overflow=hidden;top=0;left=0;bottom=0;right=0;pointerEvents=1;fontSize=16;fillColor=#6a00ff;fontColor=default;strokeColor=#3700CC;labelBackgroundColor=none;" vertex="1" parent="_k7ks033nYJ_3w33mwjG-26">
          <mxGeometry x="273" width="272" height="67" as="geometry">
            <mxRectangle width="272" height="67" as="alternateBounds" />
          </mxGeometry>
        </mxCell>
        <mxCell id="_k7ks033nYJ_3w33mwjG-29" value="&lt;span style=&quot;font-size: 17px;&quot;&gt;&lt;b&gt;공지/알림 서비스&lt;/b&gt;&lt;/span&gt;&lt;br&gt;&lt;div&gt;&lt;span style=&quot;font-size: 17px;&quot;&gt;&lt;b&gt;▼&lt;/b&gt;&lt;/span&gt;&lt;/div&gt;" style="shape=partialRectangle;html=1;whiteSpace=wrap;connectable=0;overflow=hidden;top=0;left=0;bottom=0;right=0;pointerEvents=1;fontSize=16;fillColor=#6a00ff;fontColor=default;strokeColor=#3700CC;labelBackgroundColor=none;" vertex="1" parent="_k7ks033nYJ_3w33mwjG-26">
          <mxGeometry x="545" width="273" height="67" as="geometry">
            <mxRectangle width="273" height="67" as="alternateBounds" />
          </mxGeometry>
        </mxCell>
        <mxCell id="_k7ks033nYJ_3w33mwjG-30" value="&lt;span style=&quot;font-size: 17px;&quot;&gt;&lt;b&gt;공지/알림 서비스&lt;/b&gt;&lt;/span&gt;&lt;br&gt;&lt;div&gt;&lt;span style=&quot;font-size: 17px;&quot;&gt;&lt;b&gt;▼&lt;/b&gt;&lt;/span&gt;&lt;/div&gt;" style="shape=partialRectangle;html=1;whiteSpace=wrap;connectable=0;overflow=hidden;top=0;left=0;bottom=0;right=0;pointerEvents=1;fontSize=16;fillColor=#6a00ff;fontColor=default;strokeColor=#3700CC;labelBackgroundColor=none;" vertex="1" parent="_k7ks033nYJ_3w33mwjG-26">
          <mxGeometry x="818" width="272" height="67" as="geometry">
            <mxRectangle width="272" height="67" as="alternateBounds" />
          </mxGeometry>
        </mxCell>
        <mxCell id="_k7ks033nYJ_3w33mwjG-1" style="shape=tableRow;horizontal=0;startSize=0;swimlaneHead=0;swimlaneBody=0;strokeColor=inherit;top=0;left=0;bottom=0;right=0;collapsible=0;dropTarget=0;fillColor=none;points=[[0,0.5],[1,0.5]];portConstraint=eastwest;fontSize=16;" vertex="1" parent="M4nd0u_oatN7xZWiOBnv-86">
          <mxGeometry y="985" width="1090" height="184" as="geometry" />
        </mxCell>
        <mxCell id="_k7ks033nYJ_3w33mwjG-2" value="&lt;div&gt;&lt;span style=&quot;background-color: transparent; color: light-dark(rgb(0, 0, 0), rgb(255, 255, 255));&quot;&gt;공지 작성 X (Create)&lt;/span&gt;&lt;/div&gt;&lt;div&gt;공지/알림 확인 O (Read)&lt;br&gt;알림 수신 설정&amp;nbsp;&lt;span style=&quot;background-color: transparent; color: light-dark(rgb(0, 0, 0), rgb(255, 255, 255));&quot;&gt;변경 O (Update)&lt;/span&gt;&lt;/div&gt;&lt;div&gt;알림 목록 삭제 O (Delete)&lt;/div&gt;" style="shape=partialRectangle;html=1;whiteSpace=wrap;connectable=0;overflow=hidden;top=0;left=0;bottom=0;right=0;pointerEvents=1;fontSize=15;align=center;" vertex="1" parent="_k7ks033nYJ_3w33mwjG-1">
          <mxGeometry width="273" height="184" as="geometry">
            <mxRectangle width="273" height="184" as="alternateBounds" />
          </mxGeometry>
        </mxCell>
        <mxCell id="_k7ks033nYJ_3w33mwjG-3" value="&lt;div&gt;&lt;span style=&quot;background-color: transparent; color: light-dark(rgb(0, 0, 0), rgb(255, 255, 255));&quot;&gt;공지 작성 X (Create)&lt;/span&gt;&lt;/div&gt;&lt;div&gt;공지/알림 확인 X (Read)&lt;br&gt;알림 수신 설정&amp;nbsp;&lt;span style=&quot;background-color: transparent; color: light-dark(rgb(0, 0, 0), rgb(255, 255, 255));&quot;&gt;변경 X (Update)&lt;/span&gt;&lt;/div&gt;&lt;div&gt;알림 목록 삭제 X(Delete)&lt;/div&gt;" style="shape=partialRectangle;html=1;whiteSpace=wrap;connectable=0;overflow=hidden;top=0;left=0;bottom=0;right=0;pointerEvents=1;fontSize=15;align=center;" vertex="1" parent="_k7ks033nYJ_3w33mwjG-1">
          <mxGeometry x="273" width="272" height="184" as="geometry">
            <mxRectangle width="272" height="184" as="alternateBounds" />
          </mxGeometry>
        </mxCell>
        <mxCell id="_k7ks033nYJ_3w33mwjG-4" value="&lt;div&gt;&lt;div&gt;&lt;span style=&quot;background-color: transparent; color: light-dark(rgb(0, 0, 0), rgb(255, 255, 255));&quot;&gt;공지 작성 O (Create)&lt;/span&gt;&lt;/div&gt;&lt;/div&gt;&lt;div&gt;공지/알림 확인 O (Read)&lt;/div&gt;&lt;div&gt;내부 공지 수정 O (Update)&lt;/div&gt;&lt;div&gt;공지 삭제 O (Delete)&lt;/div&gt;&lt;div&gt;&lt;br&gt;&lt;/div&gt;&lt;div&gt;※관리자 승인 필요 or 자신이&amp;nbsp;&lt;/div&gt;&lt;div&gt;작성한 게시물에 한해&lt;/div&gt;" style="shape=partialRectangle;html=1;whiteSpace=wrap;connectable=0;overflow=hidden;top=0;left=0;bottom=0;right=0;pointerEvents=1;fontSize=15;align=center;" vertex="1" parent="_k7ks033nYJ_3w33mwjG-1">
          <mxGeometry x="545" width="273" height="184" as="geometry">
            <mxRectangle width="273" height="184" as="alternateBounds" />
          </mxGeometry>
        </mxCell>
        <mxCell id="_k7ks033nYJ_3w33mwjG-5" value="&lt;div&gt;&lt;div&gt;&lt;span style=&quot;background-color: transparent; color: light-dark(rgb(0, 0, 0), rgb(255, 255, 255));&quot;&gt;공지 작성 O (Create)&lt;/span&gt;&lt;/div&gt;&lt;/div&gt;&lt;div&gt;공지/알림 확인 O (Read)&lt;/div&gt;&lt;div&gt;내부 공지 수정 O (Update)&lt;/div&gt;&lt;div&gt;공지 삭제 O (Delete)&lt;/div&gt;" style="shape=partialRectangle;html=1;whiteSpace=wrap;connectable=0;overflow=hidden;top=0;left=0;bottom=0;right=0;pointerEvents=1;fontSize=15;align=center;" vertex="1" parent="_k7ks033nYJ_3w33mwjG-1">
          <mxGeometry x="818" width="272" height="184" as="geometry">
            <mxRectangle width="272" height="184" as="alternateBounds" />
          </mxGeometry>
        </mxCell>
      </root>
    </mxGraphModel>
  </diagram>
  <diagram name="USECASE" id="B1NZ2JkPOjT8SLRXW_0v">
    <mxGraphModel dx="1426" dy="859" grid="1" gridSize="10" guides="1" tooltips="1" connect="1" arrows="1" fold="1" page="1" pageScale="1" pageWidth="1169" pageHeight="827" math="0" shadow="0">
      <root>
        <mxCell id="0" />
        <mxCell id="1" parent="0" />
        <mxCell id="vYnCNZlJ9MJ4-SZzmh1F-2" value="&lt;font style=&quot;font-size: 14px;&quot;&gt;회원&lt;/font&gt;" style="shape=umlActor;verticalLabelPosition=bottom;verticalAlign=top;html=1;outlineConnect=0;labelBackgroundColor=none;" parent="1" vertex="1">
          <mxGeometry x="50" y="134.5" width="30" height="60" as="geometry" />
        </mxCell>
        <mxCell id="vYnCNZlJ9MJ4-SZzmh1F-6" value="&lt;span style=&quot;font-size: 14px;&quot;&gt;비회원&lt;/span&gt;" style="shape=umlActor;verticalLabelPosition=bottom;verticalAlign=top;html=1;outlineConnect=0;labelBackgroundColor=none;" parent="1" vertex="1">
          <mxGeometry x="50" y="510" width="30" height="60" as="geometry" />
        </mxCell>
        <mxCell id="vYnCNZlJ9MJ4-SZzmh1F-7" value="직원" style="shape=umlActor;verticalLabelPosition=bottom;verticalAlign=top;html=1;outlineConnect=0;fontSize=14;labelBackgroundColor=none;" parent="1" vertex="1">
          <mxGeometry x="1090" y="180" width="30" height="60" as="geometry" />
        </mxCell>
        <mxCell id="vYnCNZlJ9MJ4-SZzmh1F-8" value="&lt;span&gt;관리자&lt;/span&gt;" style="shape=umlActor;verticalLabelPosition=bottom;verticalAlign=top;html=1;outlineConnect=0;fontSize=14;labelBackgroundColor=none;" parent="1" vertex="1">
          <mxGeometry x="1090" y="510" width="30" height="60" as="geometry" />
        </mxCell>
        <mxCell id="vYnCNZlJ9MJ4-SZzmh1F-9" value="회원관리" style="ellipse;whiteSpace=wrap;html=1;labelBackgroundColor=none;fillColor=#6a00ff;strokeColor=#3700CC;fontColor=#ffffff;" parent="1" vertex="1">
          <mxGeometry x="960" y="515" width="60" height="50" as="geometry" />
        </mxCell>
        <mxCell id="vYnCNZlJ9MJ4-SZzmh1F-75" style="edgeStyle=orthogonalEdgeStyle;rounded=0;orthogonalLoop=1;jettySize=auto;html=1;exitX=1;exitY=0.5;exitDx=0;exitDy=0;entryX=0;entryY=0.5;entryDx=0;entryDy=0;labelBackgroundColor=none;fontColor=default;" parent="1" source="vYnCNZlJ9MJ4-SZzmh1F-10" target="vYnCNZlJ9MJ4-SZzmh1F-57" edge="1">
          <mxGeometry relative="1" as="geometry" />
        </mxCell>
        <mxCell id="vYnCNZlJ9MJ4-SZzmh1F-10" value="조회" style="ellipse;whiteSpace=wrap;html=1;labelBackgroundColor=none;fillColor=#647687;fontColor=#ffffff;strokeColor=#314354;" parent="1" vertex="1">
          <mxGeometry x="730" y="445" width="40" height="40" as="geometry" />
        </mxCell>
        <mxCell id="vYnCNZlJ9MJ4-SZzmh1F-76" style="edgeStyle=orthogonalEdgeStyle;rounded=0;orthogonalLoop=1;jettySize=auto;html=1;exitX=1;exitY=0.5;exitDx=0;exitDy=0;entryX=0;entryY=0.5;entryDx=0;entryDy=0;labelBackgroundColor=none;fontColor=default;" parent="1" source="vYnCNZlJ9MJ4-SZzmh1F-11" target="vYnCNZlJ9MJ4-SZzmh1F-57" edge="1">
          <mxGeometry relative="1" as="geometry" />
        </mxCell>
        <mxCell id="vYnCNZlJ9MJ4-SZzmh1F-11" value="등록" style="ellipse;whiteSpace=wrap;html=1;labelBackgroundColor=none;fillColor=#647687;fontColor=#ffffff;strokeColor=#314354;" parent="1" vertex="1">
          <mxGeometry x="730" y="495" width="40" height="40" as="geometry" />
        </mxCell>
        <mxCell id="vYnCNZlJ9MJ4-SZzmh1F-77" style="edgeStyle=orthogonalEdgeStyle;rounded=0;orthogonalLoop=1;jettySize=auto;html=1;exitX=1;exitY=0.5;exitDx=0;exitDy=0;entryX=0;entryY=0.5;entryDx=0;entryDy=0;labelBackgroundColor=none;fontColor=default;" parent="1" source="vYnCNZlJ9MJ4-SZzmh1F-12" target="vYnCNZlJ9MJ4-SZzmh1F-57" edge="1">
          <mxGeometry relative="1" as="geometry" />
        </mxCell>
        <mxCell id="vYnCNZlJ9MJ4-SZzmh1F-12" value="수정" style="ellipse;whiteSpace=wrap;html=1;labelBackgroundColor=none;fillColor=#647687;fontColor=#ffffff;strokeColor=#314354;" parent="1" vertex="1">
          <mxGeometry x="730" y="545" width="40" height="40" as="geometry" />
        </mxCell>
        <mxCell id="vYnCNZlJ9MJ4-SZzmh1F-78" style="edgeStyle=orthogonalEdgeStyle;rounded=0;orthogonalLoop=1;jettySize=auto;html=1;exitX=1;exitY=0.5;exitDx=0;exitDy=0;labelBackgroundColor=none;fontColor=default;" parent="1" source="vYnCNZlJ9MJ4-SZzmh1F-13" target="vYnCNZlJ9MJ4-SZzmh1F-57" edge="1">
          <mxGeometry relative="1" as="geometry" />
        </mxCell>
        <mxCell id="vYnCNZlJ9MJ4-SZzmh1F-13" value="탈퇴" style="ellipse;whiteSpace=wrap;html=1;labelBackgroundColor=none;fillColor=#647687;fontColor=#ffffff;strokeColor=#314354;" parent="1" vertex="1">
          <mxGeometry x="730" y="595" width="40" height="40" as="geometry" />
        </mxCell>
        <mxCell id="vYnCNZlJ9MJ4-SZzmh1F-14" value="회원가입" style="ellipse;whiteSpace=wrap;html=1;labelBackgroundColor=none;fillColor=#1ba1e2;fontColor=#ffffff;strokeColor=#006EAF;" parent="1" vertex="1">
          <mxGeometry x="227.47" y="515" width="60" height="50" as="geometry" />
        </mxCell>
        <mxCell id="vYnCNZlJ9MJ4-SZzmh1F-16" value="주문&lt;span style=&quot;background-color: transparent;&quot;&gt;&amp;nbsp;서비스&lt;/span&gt;" style="ellipse;whiteSpace=wrap;html=1;fontSize=14;labelBackgroundColor=none;fillColor=#a20025;strokeColor=#6F0000;fontColor=#FFFFFF;" parent="1" vertex="1">
          <mxGeometry x="840" y="80" width="80" height="80" as="geometry" />
        </mxCell>
        <mxCell id="vYnCNZlJ9MJ4-SZzmh1F-18" value="&lt;div&gt;이벤트&lt;/div&gt;서비스" style="ellipse;whiteSpace=wrap;html=1;fontSize=14;labelBackgroundColor=none;fillColor=#a20025;strokeColor=#6F0000;fontColor=#ffffff;" parent="1" vertex="1">
          <mxGeometry x="840" y="170" width="80" height="80" as="geometry" />
        </mxCell>
        <mxCell id="vYnCNZlJ9MJ4-SZzmh1F-25" value="USE" style="html=1;verticalAlign=bottom;endArrow=block;curved=0;rounded=0;entryX=0;entryY=0.5;entryDx=0;entryDy=0;labelBackgroundColor=none;fontColor=default;" parent="1" source="vYnCNZlJ9MJ4-SZzmh1F-2" target="vYnCNZlJ9MJ4-SZzmh1F-73" edge="1">
          <mxGeometry width="80" relative="1" as="geometry">
            <mxPoint x="560" y="409" as="sourcePoint" />
            <mxPoint x="640" y="409" as="targetPoint" />
          </mxGeometry>
        </mxCell>
        <mxCell id="vYnCNZlJ9MJ4-SZzmh1F-26" value="USE" style="html=1;verticalAlign=bottom;endArrow=block;curved=0;rounded=0;entryX=0;entryY=0.5;entryDx=0;entryDy=0;labelBackgroundColor=none;fontColor=default;" parent="1" source="vYnCNZlJ9MJ4-SZzmh1F-6" target="vYnCNZlJ9MJ4-SZzmh1F-14" edge="1">
          <mxGeometry width="80" relative="1" as="geometry">
            <mxPoint x="80" y="539.5" as="sourcePoint" />
            <mxPoint x="180" y="539.5" as="targetPoint" />
          </mxGeometry>
        </mxCell>
        <mxCell id="vYnCNZlJ9MJ4-SZzmh1F-28" value="USE" style="html=1;verticalAlign=bottom;endArrow=block;curved=0;rounded=0;entryX=1;entryY=0.5;entryDx=0;entryDy=0;labelBackgroundColor=none;fontColor=default;" parent="1" source="vYnCNZlJ9MJ4-SZzmh1F-8" target="vYnCNZlJ9MJ4-SZzmh1F-9" edge="1">
          <mxGeometry width="80" relative="1" as="geometry">
            <mxPoint x="1180" y="520" as="sourcePoint" />
            <mxPoint x="1280" y="520" as="targetPoint" />
          </mxGeometry>
        </mxCell>
        <mxCell id="vYnCNZlJ9MJ4-SZzmh1F-29" value="USE" style="html=1;verticalAlign=bottom;endArrow=block;curved=0;rounded=0;entryX=1;entryY=0.5;entryDx=0;entryDy=0;labelBackgroundColor=none;fontColor=default;" parent="1" source="vYnCNZlJ9MJ4-SZzmh1F-7" target="vYnCNZlJ9MJ4-SZzmh1F-18" edge="1">
          <mxGeometry width="80" relative="1" as="geometry">
            <mxPoint x="1090" y="139.5" as="sourcePoint" />
            <mxPoint x="1020" y="139.5" as="targetPoint" />
          </mxGeometry>
        </mxCell>
        <mxCell id="vYnCNZlJ9MJ4-SZzmh1F-31" value="USE" style="html=1;verticalAlign=bottom;endArrow=block;curved=0;rounded=0;entryX=1;entryY=0.5;entryDx=0;entryDy=0;labelBackgroundColor=none;fontColor=default;" parent="1" target="vYnCNZlJ9MJ4-SZzmh1F-16" edge="1" source="vYnCNZlJ9MJ4-SZzmh1F-7">
          <mxGeometry width="80" relative="1" as="geometry">
            <mxPoint x="1090" y="210" as="sourcePoint" />
            <mxPoint x="1100" y="260" as="targetPoint" />
          </mxGeometry>
        </mxCell>
        <mxCell id="vYnCNZlJ9MJ4-SZzmh1F-74" style="edgeStyle=orthogonalEdgeStyle;rounded=0;orthogonalLoop=1;jettySize=auto;html=1;exitX=1;exitY=0.5;exitDx=0;exitDy=0;entryX=0;entryY=0.5;entryDx=0;entryDy=0;labelBackgroundColor=none;fontColor=default;" parent="1" source="vYnCNZlJ9MJ4-SZzmh1F-57" target="vYnCNZlJ9MJ4-SZzmh1F-9" edge="1">
          <mxGeometry relative="1" as="geometry" />
        </mxCell>
        <mxCell id="vYnCNZlJ9MJ4-SZzmh1F-57" value="전체&lt;div&gt;&lt;br&gt;&lt;/div&gt;&lt;div&gt;&lt;br&gt;&lt;/div&gt;&lt;div&gt;&lt;br&gt;&lt;/div&gt;&lt;div&gt;&lt;br&gt;&lt;div&gt;&lt;br&gt;&lt;/div&gt;&lt;div&gt;&lt;br&gt;&lt;/div&gt;&lt;div&gt;&lt;br&gt;&lt;/div&gt;&lt;/div&gt;" style="rounded=1;whiteSpace=wrap;html=1;labelBackgroundColor=none;fillColor=#647687;strokeColor=#314354;fontColor=#ffffff;" parent="1" vertex="1">
          <mxGeometry x="845" y="470" width="70" height="140" as="geometry" />
        </mxCell>
        <mxCell id="vYnCNZlJ9MJ4-SZzmh1F-54" value="일반&lt;div&gt;계정&lt;/div&gt;" style="ellipse;whiteSpace=wrap;html=1;labelBackgroundColor=none;" parent="1" vertex="1">
          <mxGeometry x="860" y="558" width="40" height="40" as="geometry" />
        </mxCell>
        <mxCell id="vYnCNZlJ9MJ4-SZzmh1F-56" value="직원&lt;div&gt;계정&lt;/div&gt;" style="ellipse;whiteSpace=wrap;html=1;labelBackgroundColor=none;" parent="1" vertex="1">
          <mxGeometry x="860" y="509" width="40" height="40" as="geometry" />
        </mxCell>
        <mxCell id="R9DxcJ9zK3iEaExgcJQZ-43" style="edgeStyle=orthogonalEdgeStyle;rounded=0;orthogonalLoop=1;jettySize=auto;html=1;exitX=1;exitY=0.5;exitDx=0;exitDy=0;entryX=0;entryY=0.5;entryDx=0;entryDy=0;" edge="1" parent="1" source="vYnCNZlJ9MJ4-SZzmh1F-61" target="vYnCNZlJ9MJ4-SZzmh1F-10">
          <mxGeometry relative="1" as="geometry" />
        </mxCell>
        <mxCell id="ZqvY--SSaue7ITZlCJed-1" style="edgeStyle=orthogonalEdgeStyle;rounded=0;orthogonalLoop=1;jettySize=auto;html=1;exitX=0.5;exitY=1;exitDx=0;exitDy=0;entryX=0;entryY=0.5;entryDx=0;entryDy=0;" edge="1" parent="1" source="vYnCNZlJ9MJ4-SZzmh1F-61" target="vYnCNZlJ9MJ4-SZzmh1F-12">
          <mxGeometry relative="1" as="geometry" />
        </mxCell>
        <mxCell id="ZqvY--SSaue7ITZlCJed-2" style="edgeStyle=orthogonalEdgeStyle;rounded=0;orthogonalLoop=1;jettySize=auto;html=1;exitX=0.5;exitY=1;exitDx=0;exitDy=0;entryX=0;entryY=0.5;entryDx=0;entryDy=0;" edge="1" parent="1" source="vYnCNZlJ9MJ4-SZzmh1F-61" target="vYnCNZlJ9MJ4-SZzmh1F-13">
          <mxGeometry relative="1" as="geometry" />
        </mxCell>
        <mxCell id="vYnCNZlJ9MJ4-SZzmh1F-61" value="나의&lt;div&gt;정보&lt;/div&gt;" style="ellipse;whiteSpace=wrap;html=1;labelBackgroundColor=none;fillColor=#6d8764;fontColor=#ffffff;strokeColor=#3A5431;" parent="1" vertex="1">
          <mxGeometry x="590" y="445" width="40" height="40" as="geometry" />
        </mxCell>
        <mxCell id="vYnCNZlJ9MJ4-SZzmh1F-62" value="USE" style="html=1;verticalAlign=bottom;endArrow=block;curved=0;rounded=0;entryX=0;entryY=0.5;entryDx=0;entryDy=0;labelBackgroundColor=none;fontColor=default;" parent="1" source="vYnCNZlJ9MJ4-SZzmh1F-2" target="vYnCNZlJ9MJ4-SZzmh1F-61" edge="1">
          <mxGeometry width="80" relative="1" as="geometry">
            <mxPoint x="65" y="54.5" as="sourcePoint" />
            <mxPoint x="710" y="390" as="targetPoint" />
            <Array as="points">
              <mxPoint x="65" y="465" />
            </Array>
          </mxGeometry>
        </mxCell>
        <mxCell id="vYnCNZlJ9MJ4-SZzmh1F-73" value="주문하기" style="ellipse;whiteSpace=wrap;html=1;fontSize=14;labelBackgroundColor=none;fillColor=#fa6800;fontColor=#FFFFFF;strokeColor=#C73500;" parent="1" vertex="1">
          <mxGeometry x="220" y="129" width="74.94" height="71" as="geometry" />
        </mxCell>
        <mxCell id="7vTpCLfjV0hnLTvKKzpt-4" value="로그인" style="ellipse;whiteSpace=wrap;html=1;fontSize=14;labelBackgroundColor=none;fillColor=#0050ef;strokeColor=#001DBC;fontColor=#ffffff;" parent="1" vertex="1">
          <mxGeometry x="530" y="174.5" width="72" height="72" as="geometry" />
        </mxCell>
        <mxCell id="zzn3BVoMpoBlaDxnKFfP-1" value="&lt;div&gt;공지/알림&lt;/div&gt;서비스" style="ellipse;whiteSpace=wrap;html=1;fontSize=14;labelBackgroundColor=none;fillColor=#a20025;strokeColor=#6F0000;fontColor=#ffffff;" vertex="1" parent="1">
          <mxGeometry x="840" y="260" width="80" height="80" as="geometry" />
        </mxCell>
        <mxCell id="izcecEZTBBu7IHc16Z6V-1" value="USE" style="html=1;verticalAlign=bottom;endArrow=block;curved=0;rounded=0;entryX=1;entryY=0.5;entryDx=0;entryDy=0;labelBackgroundColor=none;fontColor=default;" edge="1" parent="1" source="vYnCNZlJ9MJ4-SZzmh1F-7" target="zzn3BVoMpoBlaDxnKFfP-1">
          <mxGeometry width="80" relative="1" as="geometry">
            <mxPoint x="1090" y="210" as="sourcePoint" />
            <mxPoint x="1040" y="280" as="targetPoint" />
          </mxGeometry>
        </mxCell>
        <mxCell id="Zkmzd9PMVi5jDCZJUQk6-1" value="장바구니&lt;div&gt;조회&lt;/div&gt;" style="ellipse;whiteSpace=wrap;html=1;fontSize=14;labelBackgroundColor=none;fillColor=#fa6800;fontColor=#FFFFFF;strokeColor=#C73500;" vertex="1" parent="1">
          <mxGeometry x="220" y="214.5" width="74.94" height="71" as="geometry" />
        </mxCell>
        <mxCell id="Zkmzd9PMVi5jDCZJUQk6-2" value="쿠폰&lt;br&gt;조회" style="ellipse;whiteSpace=wrap;html=1;fontSize=14;labelBackgroundColor=none;fillColor=#fa6800;fontColor=#FFFFFF;strokeColor=#C73500;" vertex="1" parent="1">
          <mxGeometry x="220" y="44.5" width="74.94" height="71" as="geometry" />
        </mxCell>
        <mxCell id="Zkmzd9PMVi5jDCZJUQk6-4" value="USE" style="html=1;verticalAlign=bottom;endArrow=block;curved=0;rounded=0;entryX=0;entryY=0.5;entryDx=0;entryDy=0;labelBackgroundColor=none;fontColor=default;" edge="1" parent="1" source="vYnCNZlJ9MJ4-SZzmh1F-2" target="Zkmzd9PMVi5jDCZJUQk6-1">
          <mxGeometry width="80" relative="1" as="geometry">
            <mxPoint x="180" y="230" as="sourcePoint" />
            <mxPoint x="320" y="230" as="targetPoint" />
          </mxGeometry>
        </mxCell>
        <mxCell id="Zkmzd9PMVi5jDCZJUQk6-5" value="USE" style="html=1;verticalAlign=bottom;endArrow=block;curved=0;rounded=0;entryX=0;entryY=0.5;entryDx=0;entryDy=0;labelBackgroundColor=none;fontColor=default;" edge="1" parent="1" source="vYnCNZlJ9MJ4-SZzmh1F-2" target="Zkmzd9PMVi5jDCZJUQk6-2">
          <mxGeometry width="80" relative="1" as="geometry">
            <mxPoint x="180" y="280" as="sourcePoint" />
            <mxPoint x="320" y="357" as="targetPoint" />
          </mxGeometry>
        </mxCell>
        <mxCell id="R9DxcJ9zK3iEaExgcJQZ-5" style="edgeStyle=orthogonalEdgeStyle;rounded=0;orthogonalLoop=1;jettySize=auto;html=1;exitX=1;exitY=0.5;exitDx=0;exitDy=0;entryX=0;entryY=0.5;entryDx=0;entryDy=0;" edge="1" parent="1" source="R9DxcJ9zK3iEaExgcJQZ-1" target="vYnCNZlJ9MJ4-SZzmh1F-16">
          <mxGeometry relative="1" as="geometry" />
        </mxCell>
        <mxCell id="R9DxcJ9zK3iEaExgcJQZ-1" value="등록" style="ellipse;whiteSpace=wrap;html=1;labelBackgroundColor=none;fillColor=#647687;fontColor=#ffffff;strokeColor=#314354;" vertex="1" parent="1">
          <mxGeometry x="720" y="111.75" width="40" height="40" as="geometry" />
        </mxCell>
        <mxCell id="R9DxcJ9zK3iEaExgcJQZ-6" style="edgeStyle=elbowEdgeStyle;rounded=0;orthogonalLoop=1;jettySize=auto;html=1;exitX=1;exitY=0.5;exitDx=0;exitDy=0;" edge="1" parent="1" source="R9DxcJ9zK3iEaExgcJQZ-2">
          <mxGeometry relative="1" as="geometry">
            <mxPoint x="840" y="120" as="targetPoint" />
          </mxGeometry>
        </mxCell>
        <mxCell id="R9DxcJ9zK3iEaExgcJQZ-9" style="edgeStyle=orthogonalEdgeStyle;rounded=0;orthogonalLoop=1;jettySize=auto;html=1;exitX=1;exitY=0.5;exitDx=0;exitDy=0;entryX=0;entryY=0.5;entryDx=0;entryDy=0;" edge="1" parent="1" source="R9DxcJ9zK3iEaExgcJQZ-2" target="vYnCNZlJ9MJ4-SZzmh1F-18">
          <mxGeometry relative="1" as="geometry" />
        </mxCell>
        <mxCell id="R9DxcJ9zK3iEaExgcJQZ-2" value="조회" style="ellipse;whiteSpace=wrap;html=1;labelBackgroundColor=none;fillColor=#647687;fontColor=#ffffff;strokeColor=#314354;" vertex="1" parent="1">
          <mxGeometry x="720" y="163.75" width="40" height="40" as="geometry" />
        </mxCell>
        <mxCell id="R9DxcJ9zK3iEaExgcJQZ-7" style="edgeStyle=orthogonalEdgeStyle;rounded=0;orthogonalLoop=1;jettySize=auto;html=1;exitX=1;exitY=0.5;exitDx=0;exitDy=0;entryX=0;entryY=0.5;entryDx=0;entryDy=0;" edge="1" parent="1" source="R9DxcJ9zK3iEaExgcJQZ-3" target="vYnCNZlJ9MJ4-SZzmh1F-16">
          <mxGeometry relative="1" as="geometry" />
        </mxCell>
        <mxCell id="R9DxcJ9zK3iEaExgcJQZ-10" style="edgeStyle=orthogonalEdgeStyle;rounded=0;orthogonalLoop=1;jettySize=auto;html=1;exitX=1;exitY=0.5;exitDx=0;exitDy=0;entryX=0;entryY=0.5;entryDx=0;entryDy=0;" edge="1" parent="1" source="R9DxcJ9zK3iEaExgcJQZ-3" target="zzn3BVoMpoBlaDxnKFfP-1">
          <mxGeometry relative="1" as="geometry" />
        </mxCell>
        <mxCell id="R9DxcJ9zK3iEaExgcJQZ-3" value="수정" style="ellipse;whiteSpace=wrap;html=1;labelBackgroundColor=none;fillColor=#647687;fontColor=#ffffff;strokeColor=#314354;" vertex="1" parent="1">
          <mxGeometry x="720" y="217.25" width="40" height="40" as="geometry" />
        </mxCell>
        <mxCell id="R9DxcJ9zK3iEaExgcJQZ-8" style="edgeStyle=elbowEdgeStyle;rounded=0;orthogonalLoop=1;jettySize=auto;html=1;exitX=1;exitY=0.5;exitDx=0;exitDy=0;" edge="1" parent="1" source="R9DxcJ9zK3iEaExgcJQZ-4">
          <mxGeometry relative="1" as="geometry">
            <mxPoint x="840" y="120" as="targetPoint" />
          </mxGeometry>
        </mxCell>
        <mxCell id="R9DxcJ9zK3iEaExgcJQZ-4" value="삭제" style="ellipse;whiteSpace=wrap;html=1;labelBackgroundColor=none;fillColor=#647687;fontColor=#ffffff;strokeColor=#314354;" vertex="1" parent="1">
          <mxGeometry x="720" y="269.25" width="40" height="40" as="geometry" />
        </mxCell>
        <mxCell id="Zkmzd9PMVi5jDCZJUQk6-6" value="결제" style="ellipse;whiteSpace=wrap;html=1;labelBackgroundColor=none;fillColor=#647687;fontColor=#ffffff;strokeColor=#314354;" vertex="1" parent="1">
          <mxGeometry x="390" y="144.5" width="40" height="40" as="geometry" />
        </mxCell>
        <mxCell id="R9DxcJ9zK3iEaExgcJQZ-19" value="주문&lt;div&gt;하기&lt;/div&gt;" style="ellipse;whiteSpace=wrap;html=1;labelBackgroundColor=none;fillColor=#647687;fontColor=#ffffff;strokeColor=#314354;" vertex="1" parent="1">
          <mxGeometry x="390" y="230" width="40" height="40" as="geometry" />
        </mxCell>
        <mxCell id="R9DxcJ9zK3iEaExgcJQZ-23" value="" style="endArrow=open;endFill=0;endSize=6;html=1;rounded=0;exitX=0.5;exitY=1;exitDx=0;exitDy=0;entryX=0.5;entryY=0;entryDx=0;entryDy=0;labelBackgroundColor=none;fontColor=default;" edge="1" parent="1" source="Zkmzd9PMVi5jDCZJUQk6-6" target="R9DxcJ9zK3iEaExgcJQZ-19">
          <mxGeometry width="160" relative="1" as="geometry">
            <mxPoint x="430" y="210" as="sourcePoint" />
            <mxPoint x="530" y="210" as="targetPoint" />
          </mxGeometry>
        </mxCell>
        <mxCell id="R9DxcJ9zK3iEaExgcJQZ-24" value="&amp;lt; include &amp;gt;" style="edgeLabel;html=1;align=center;verticalAlign=middle;resizable=0;points=[];labelBackgroundColor=default;" vertex="1" connectable="0" parent="R9DxcJ9zK3iEaExgcJQZ-23">
          <mxGeometry x="-0.1111" y="3" relative="1" as="geometry">
            <mxPoint x="-3" y="-4" as="offset" />
          </mxGeometry>
        </mxCell>
        <mxCell id="R9DxcJ9zK3iEaExgcJQZ-26" value="" style="endArrow=open;endFill=0;endSize=6;html=1;rounded=0;exitX=0;exitY=0.5;exitDx=0;exitDy=0;entryX=1;entryY=0.5;entryDx=0;entryDy=0;labelBackgroundColor=none;fontColor=default;" edge="1" parent="1" source="Zkmzd9PMVi5jDCZJUQk6-6" target="vYnCNZlJ9MJ4-SZzmh1F-73">
          <mxGeometry width="160" relative="1" as="geometry">
            <mxPoint x="440" y="250" as="sourcePoint" />
            <mxPoint x="440" y="295" as="targetPoint" />
          </mxGeometry>
        </mxCell>
        <mxCell id="R9DxcJ9zK3iEaExgcJQZ-27" value="&amp;lt; include &amp;gt;" style="edgeLabel;html=1;align=center;verticalAlign=middle;resizable=0;points=[];labelBackgroundColor=default;" vertex="1" connectable="0" parent="R9DxcJ9zK3iEaExgcJQZ-26">
          <mxGeometry x="-0.1111" y="3" relative="1" as="geometry">
            <mxPoint x="-3" y="-4" as="offset" />
          </mxGeometry>
        </mxCell>
        <mxCell id="R9DxcJ9zK3iEaExgcJQZ-28" value="" style="endArrow=open;endFill=0;endSize=6;html=1;rounded=0;exitX=1;exitY=0.5;exitDx=0;exitDy=0;entryX=0;entryY=0.5;entryDx=0;entryDy=0;labelBackgroundColor=none;fontColor=default;edgeStyle=orthogonalEdgeStyle;elbow=vertical;" edge="1" parent="1" source="Zkmzd9PMVi5jDCZJUQk6-6" target="7vTpCLfjV0hnLTvKKzpt-4">
          <mxGeometry width="160" relative="1" as="geometry">
            <mxPoint x="470" y="140" as="sourcePoint" />
            <mxPoint x="470" y="185" as="targetPoint" />
          </mxGeometry>
        </mxCell>
        <mxCell id="R9DxcJ9zK3iEaExgcJQZ-29" value="&amp;lt; include &amp;gt;" style="edgeLabel;html=1;align=center;verticalAlign=middle;resizable=0;points=[];labelBackgroundColor=default;" vertex="1" connectable="0" parent="R9DxcJ9zK3iEaExgcJQZ-28">
          <mxGeometry x="-0.1111" y="3" relative="1" as="geometry">
            <mxPoint x="-3" y="4" as="offset" />
          </mxGeometry>
        </mxCell>
        <mxCell id="R9DxcJ9zK3iEaExgcJQZ-31" value="" style="endArrow=open;endFill=0;endSize=6;html=1;rounded=0;exitX=1;exitY=0.5;exitDx=0;exitDy=0;entryX=0.5;entryY=1;entryDx=0;entryDy=0;labelBackgroundColor=none;fontColor=default;edgeStyle=orthogonalEdgeStyle;elbow=vertical;" edge="1" parent="1" source="vYnCNZlJ9MJ4-SZzmh1F-14" target="7vTpCLfjV0hnLTvKKzpt-4">
          <mxGeometry width="160" relative="1" as="geometry">
            <mxPoint x="410" y="660" as="sourcePoint" />
            <mxPoint x="510" y="746" as="targetPoint" />
          </mxGeometry>
        </mxCell>
        <mxCell id="R9DxcJ9zK3iEaExgcJQZ-32" value="&amp;lt; include &amp;gt;" style="edgeLabel;html=1;align=center;verticalAlign=middle;resizable=0;points=[];labelBackgroundColor=default;" vertex="1" connectable="0" parent="R9DxcJ9zK3iEaExgcJQZ-31">
          <mxGeometry x="-0.1111" y="3" relative="1" as="geometry">
            <mxPoint x="-131" y="1" as="offset" />
          </mxGeometry>
        </mxCell>
        <mxCell id="R9DxcJ9zK3iEaExgcJQZ-33" value="USE" style="html=1;verticalAlign=bottom;endArrow=block;rounded=0;entryX=0.5;entryY=0;entryDx=0;entryDy=0;labelBackgroundColor=none;fontColor=default;exitX=0.5;exitY=0;exitDx=0;exitDy=0;edgeStyle=elbowEdgeStyle;elbow=vertical;" edge="1" parent="1" source="vYnCNZlJ9MJ4-SZzmh1F-16" target="7vTpCLfjV0hnLTvKKzpt-4">
          <mxGeometry x="-0.2221" width="80" relative="1" as="geometry">
            <mxPoint x="820" y="163" as="sourcePoint" />
            <mxPoint x="650" y="80" as="targetPoint" />
            <Array as="points">
              <mxPoint x="730" y="40" />
            </Array>
            <mxPoint as="offset" />
          </mxGeometry>
        </mxCell>
        <mxCell id="R9DxcJ9zK3iEaExgcJQZ-34" value="USE" style="html=1;verticalAlign=bottom;endArrow=block;rounded=0;entryX=0.5;entryY=1;entryDx=0;entryDy=0;labelBackgroundColor=none;fontColor=default;exitX=0.5;exitY=1;exitDx=0;exitDy=0;edgeStyle=elbowEdgeStyle;elbow=vertical;endSize=2;" edge="1" parent="1" source="zzn3BVoMpoBlaDxnKFfP-1" target="7vTpCLfjV0hnLTvKKzpt-4">
          <mxGeometry x="-0.2221" width="80" relative="1" as="geometry">
            <mxPoint x="1054" y="400" as="sourcePoint" />
            <mxPoint x="740" y="495" as="targetPoint" />
            <Array as="points">
              <mxPoint x="904" y="360" />
            </Array>
            <mxPoint as="offset" />
          </mxGeometry>
        </mxCell>
        <mxCell id="R9DxcJ9zK3iEaExgcJQZ-35" value="USE" style="html=1;verticalAlign=bottom;endArrow=block;rounded=0;entryX=1;entryY=0.5;entryDx=0;entryDy=0;labelBackgroundColor=none;fontColor=default;exitX=0;exitY=0.5;exitDx=0;exitDy=0;edgeStyle=elbowEdgeStyle;elbow=vertical;" edge="1" parent="1" source="vYnCNZlJ9MJ4-SZzmh1F-18" target="7vTpCLfjV0hnLTvKKzpt-4">
          <mxGeometry x="0.3454" y="-1" width="80" relative="1" as="geometry">
            <mxPoint x="1004" y="303" as="sourcePoint" />
            <mxPoint x="690" y="210" as="targetPoint" />
            <Array as="points" />
            <mxPoint as="offset" />
          </mxGeometry>
        </mxCell>
        <mxCell id="R9DxcJ9zK3iEaExgcJQZ-36" value="쿠폰" style="ellipse;whiteSpace=wrap;html=1;labelBackgroundColor=none;fillColor=#647687;fontColor=#ffffff;strokeColor=#314354;" vertex="1" parent="1">
          <mxGeometry x="390" y="60" width="40" height="40" as="geometry" />
        </mxCell>
        <mxCell id="R9DxcJ9zK3iEaExgcJQZ-37" value="" style="endArrow=open;dashed=1;endFill=0;endSize=6;html=1;rounded=0;exitX=0.5;exitY=1;exitDx=0;exitDy=0;labelBackgroundColor=none;fontColor=default;entryX=0.5;entryY=0;entryDx=0;entryDy=0;" edge="1" parent="1" source="R9DxcJ9zK3iEaExgcJQZ-36" target="Zkmzd9PMVi5jDCZJUQk6-6">
          <mxGeometry width="160" relative="1" as="geometry">
            <mxPoint x="409.58" y="107.25" as="sourcePoint" />
            <mxPoint x="410" y="140" as="targetPoint" />
          </mxGeometry>
        </mxCell>
        <mxCell id="R9DxcJ9zK3iEaExgcJQZ-38" value="&amp;lt;&amp;lt; extend &amp;gt;&amp;gt;" style="edgeLabel;html=1;align=center;verticalAlign=middle;resizable=0;points=[];labelBackgroundColor=default;" vertex="1" connectable="0" parent="R9DxcJ9zK3iEaExgcJQZ-37">
          <mxGeometry x="-0.1111" y="3" relative="1" as="geometry">
            <mxPoint x="-33" y="-7" as="offset" />
          </mxGeometry>
        </mxCell>
        <mxCell id="R9DxcJ9zK3iEaExgcJQZ-39" value="" style="endArrow=open;endFill=0;endSize=6;html=1;rounded=0;exitX=0;exitY=0.5;exitDx=0;exitDy=0;entryX=1;entryY=0.5;entryDx=0;entryDy=0;labelBackgroundColor=none;fontColor=default;" edge="1" parent="1" source="R9DxcJ9zK3iEaExgcJQZ-36" target="Zkmzd9PMVi5jDCZJUQk6-2">
          <mxGeometry width="160" relative="1" as="geometry">
            <mxPoint x="465" y="70" as="sourcePoint" />
            <mxPoint x="370" y="70" as="targetPoint" />
          </mxGeometry>
        </mxCell>
        <mxCell id="R9DxcJ9zK3iEaExgcJQZ-40" value="&amp;lt; include &amp;gt;" style="edgeLabel;html=1;align=center;verticalAlign=middle;resizable=0;points=[];labelBackgroundColor=default;" vertex="1" connectable="0" parent="R9DxcJ9zK3iEaExgcJQZ-39">
          <mxGeometry x="-0.1111" y="3" relative="1" as="geometry">
            <mxPoint x="-3" y="-4" as="offset" />
          </mxGeometry>
        </mxCell>
        <mxCell id="R9DxcJ9zK3iEaExgcJQZ-41" value="" style="endArrow=open;endFill=0;endSize=6;html=1;rounded=0;entryX=1;entryY=0.5;entryDx=0;entryDy=0;labelBackgroundColor=none;fontColor=default;exitX=0;exitY=0.5;exitDx=0;exitDy=0;" edge="1" parent="1" source="R9DxcJ9zK3iEaExgcJQZ-19" target="Zkmzd9PMVi5jDCZJUQk6-1">
          <mxGeometry width="160" relative="1" as="geometry">
            <mxPoint x="390" y="260" as="sourcePoint" />
            <mxPoint x="330" y="250" as="targetPoint" />
          </mxGeometry>
        </mxCell>
        <mxCell id="R9DxcJ9zK3iEaExgcJQZ-42" value="&amp;lt; include &amp;gt;" style="edgeLabel;html=1;align=center;verticalAlign=middle;resizable=0;points=[];labelBackgroundColor=default;" vertex="1" connectable="0" parent="R9DxcJ9zK3iEaExgcJQZ-41">
          <mxGeometry x="-0.1111" y="3" relative="1" as="geometry">
            <mxPoint x="-3" y="-4" as="offset" />
          </mxGeometry>
        </mxCell>
        <mxCell id="ZqvY--SSaue7ITZlCJed-4" value="USE" style="html=1;verticalAlign=bottom;endArrow=block;rounded=0;entryX=0.5;entryY=0;entryDx=0;entryDy=0;labelBackgroundColor=none;fontColor=default;edgeStyle=elbowEdgeStyle;elbow=vertical;" edge="1" parent="1" source="vYnCNZlJ9MJ4-SZzmh1F-7" target="vYnCNZlJ9MJ4-SZzmh1F-61">
          <mxGeometry width="80" relative="1" as="geometry">
            <mxPoint x="1000" y="400" as="sourcePoint" />
            <mxPoint x="1525" y="670" as="targetPoint" />
            <Array as="points">
              <mxPoint x="860" y="400" />
            </Array>
          </mxGeometry>
        </mxCell>
      </root>
    </mxGraphModel>
  </diagram>
  <diagram id="EPnICu6wofdyTL7_I-YK" name="요구사항명세서">
    <mxGraphModel dx="1426" dy="859" grid="1" gridSize="10" guides="1" tooltips="1" connect="1" arrows="1" fold="1" page="1" pageScale="1" pageWidth="827" pageHeight="1169" math="0" shadow="0">
      <root>
        <mxCell id="0" />
        <mxCell id="1" parent="0" />
        <mxCell id="PGcAvko0GGr-xwm2Tnm8-1" value="&lt;div&gt;&amp;lt;&amp;lt;유스케이스 명세서&amp;gt;&amp;gt;&lt;/div&gt;유스케이스명 : 주문 서비스" style="shape=table;startSize=40;container=1;collapsible=1;childLayout=tableLayout;fixedRows=1;rowLines=0;fontStyle=1;align=center;resizeLast=1;html=1;" parent="1" vertex="1">
          <mxGeometry x="74" y="40" width="680" height="760" as="geometry" />
        </mxCell>
        <mxCell id="PGcAvko0GGr-xwm2Tnm8-2" value="" style="shape=tableRow;horizontal=0;startSize=0;swimlaneHead=0;swimlaneBody=0;fillColor=none;collapsible=0;dropTarget=0;points=[[0,0.5],[1,0.5]];portConstraint=eastwest;top=0;left=0;right=0;bottom=1;strokeColor=default;verticalAlign=middle;fontStyle=0" parent="PGcAvko0GGr-xwm2Tnm8-1" vertex="1">
          <mxGeometry y="40" width="680" height="30" as="geometry" />
        </mxCell>
        <mxCell id="PGcAvko0GGr-xwm2Tnm8-3" value="목표" style="shape=partialRectangle;connectable=0;fillColor=none;top=0;left=0;bottom=0;right=0;fontStyle=1;overflow=hidden;whiteSpace=wrap;html=1;" parent="PGcAvko0GGr-xwm2Tnm8-2" vertex="1">
          <mxGeometry width="60" height="30" as="geometry">
            <mxRectangle width="60" height="30" as="alternateBounds" />
          </mxGeometry>
        </mxCell>
        <mxCell id="PGcAvko0GGr-xwm2Tnm8-4" value="&lt;span style=&quot;font-weight: 400; text-wrap-mode: nowrap;&quot;&gt;회원은 상품을 선택하여 주문을 생성하고, 해당 주문 내역을 조회하거나 변경 및 취소할 수 있습니다.&lt;/span&gt;" style="shape=partialRectangle;connectable=0;fillColor=none;top=0;left=0;bottom=0;right=0;align=left;spacingLeft=6;fontStyle=1;overflow=hidden;whiteSpace=wrap;html=1;" parent="PGcAvko0GGr-xwm2Tnm8-2" vertex="1">
          <mxGeometry x="60" width="620" height="30" as="geometry">
            <mxRectangle width="620" height="30" as="alternateBounds" />
          </mxGeometry>
        </mxCell>
        <mxCell id="PGcAvko0GGr-xwm2Tnm8-5" value="" style="shape=tableRow;horizontal=0;startSize=0;swimlaneHead=0;swimlaneBody=0;fillColor=none;collapsible=0;dropTarget=0;points=[[0,0.5],[1,0.5]];portConstraint=eastwest;top=0;left=0;right=0;bottom=1;" parent="PGcAvko0GGr-xwm2Tnm8-1" vertex="1">
          <mxGeometry y="70" width="680" height="30" as="geometry" />
        </mxCell>
        <mxCell id="PGcAvko0GGr-xwm2Tnm8-6" value="엑터" style="shape=partialRectangle;connectable=0;fillColor=none;top=0;left=0;bottom=0;right=0;fontStyle=1;overflow=hidden;whiteSpace=wrap;html=1;" parent="PGcAvko0GGr-xwm2Tnm8-5" vertex="1">
          <mxGeometry width="60" height="30" as="geometry">
            <mxRectangle width="60" height="30" as="alternateBounds" />
          </mxGeometry>
        </mxCell>
        <mxCell id="PGcAvko0GGr-xwm2Tnm8-7" value="회원" style="shape=partialRectangle;connectable=0;fillColor=none;top=0;left=0;bottom=0;right=0;align=left;spacingLeft=6;fontStyle=0;overflow=hidden;whiteSpace=wrap;html=1;" parent="PGcAvko0GGr-xwm2Tnm8-5" vertex="1">
          <mxGeometry x="60" width="620" height="30" as="geometry">
            <mxRectangle width="620" height="30" as="alternateBounds" />
          </mxGeometry>
        </mxCell>
        <mxCell id="PGcAvko0GGr-xwm2Tnm8-8" value="" style="shape=tableRow;horizontal=0;startSize=0;swimlaneHead=0;swimlaneBody=0;fillColor=none;collapsible=0;dropTarget=0;points=[[0,0.5],[1,0.5]];portConstraint=eastwest;top=0;left=0;right=0;bottom=1;" parent="PGcAvko0GGr-xwm2Tnm8-1" vertex="1">
          <mxGeometry y="100" width="680" height="30" as="geometry" />
        </mxCell>
        <mxCell id="PGcAvko0GGr-xwm2Tnm8-9" value="사전 조건" style="shape=partialRectangle;connectable=0;fillColor=none;top=0;left=0;bottom=0;right=0;fontStyle=1;overflow=hidden;whiteSpace=wrap;html=1;" parent="PGcAvko0GGr-xwm2Tnm8-8" vertex="1">
          <mxGeometry width="60" height="30" as="geometry">
            <mxRectangle width="60" height="30" as="alternateBounds" />
          </mxGeometry>
        </mxCell>
        <mxCell id="PGcAvko0GGr-xwm2Tnm8-10" value="회원은 로그인을 완료한 상태여야 합니다." style="shape=partialRectangle;connectable=0;fillColor=none;top=0;left=0;bottom=0;right=0;align=left;spacingLeft=6;fontStyle=0;overflow=hidden;whiteSpace=wrap;html=1;" parent="PGcAvko0GGr-xwm2Tnm8-8" vertex="1">
          <mxGeometry x="60" width="620" height="30" as="geometry">
            <mxRectangle width="620" height="30" as="alternateBounds" />
          </mxGeometry>
        </mxCell>
        <mxCell id="PGcAvko0GGr-xwm2Tnm8-11" value="" style="shape=tableRow;horizontal=0;startSize=0;swimlaneHead=0;swimlaneBody=0;fillColor=none;collapsible=0;dropTarget=0;points=[[0,0.5],[1,0.5]];portConstraint=eastwest;top=0;left=0;right=0;bottom=1;" parent="PGcAvko0GGr-xwm2Tnm8-1" vertex="1">
          <mxGeometry y="130" width="680" height="30" as="geometry" />
        </mxCell>
        <mxCell id="PGcAvko0GGr-xwm2Tnm8-12" value="사후 처리" style="shape=partialRectangle;connectable=0;fillColor=none;top=0;left=0;bottom=0;right=0;fontStyle=1;overflow=hidden;whiteSpace=wrap;html=1;" parent="PGcAvko0GGr-xwm2Tnm8-11" vertex="1">
          <mxGeometry width="60" height="30" as="geometry">
            <mxRectangle width="60" height="30" as="alternateBounds" />
          </mxGeometry>
        </mxCell>
        <mxCell id="PGcAvko0GGr-xwm2Tnm8-13" value="회원은 원하는 상품을 장바구니에 담아 주문하기 페이지로 이동" style="shape=partialRectangle;connectable=0;fillColor=none;top=0;left=0;bottom=0;right=0;align=left;spacingLeft=6;fontStyle=0;overflow=hidden;whiteSpace=wrap;html=1;" parent="PGcAvko0GGr-xwm2Tnm8-11" vertex="1">
          <mxGeometry x="60" width="620" height="30" as="geometry">
            <mxRectangle width="620" height="30" as="alternateBounds" />
          </mxGeometry>
        </mxCell>
        <mxCell id="PGcAvko0GGr-xwm2Tnm8-14" value="" style="shape=tableRow;horizontal=0;startSize=0;swimlaneHead=0;swimlaneBody=0;fillColor=none;collapsible=0;dropTarget=0;points=[[0,0.5],[1,0.5]];portConstraint=eastwest;top=0;left=0;right=0;bottom=1;" parent="PGcAvko0GGr-xwm2Tnm8-1" vertex="1">
          <mxGeometry y="160" width="680" height="280" as="geometry" />
        </mxCell>
        <mxCell id="PGcAvko0GGr-xwm2Tnm8-15" value="기본흐름" style="shape=partialRectangle;connectable=0;fillColor=none;top=0;left=0;bottom=0;right=0;fontStyle=1;overflow=hidden;whiteSpace=wrap;html=1;" parent="PGcAvko0GGr-xwm2Tnm8-14" vertex="1">
          <mxGeometry width="60" height="280" as="geometry">
            <mxRectangle width="60" height="280" as="alternateBounds" />
          </mxGeometry>
        </mxCell>
        <mxCell id="PGcAvko0GGr-xwm2Tnm8-16" value="&lt;div style=&quot;text-wrap: nowrap;&quot;&gt;1 회원이 원하는 상품을 고르기 위한 카테고리를 선택하여 검색 버튼을 클릭한다&lt;br&gt;&lt;/div&gt;&lt;div style=&quot;text-wrap: nowrap;&quot;&gt;2 시스템은 해당 카테고리에 안의 상품의 데이터를 가져와 상품 페이지로 전송한다&lt;/div&gt;&lt;div style=&quot;text-wrap: nowrap;&quot;&gt;3 회원은 원하는 상품을 선택 한 후 장바구니에 담기 버튼을 클릭한다&lt;/div&gt;&lt;div style=&quot;text-wrap: nowrap;&quot;&gt;4 시스템은 해당 상품을 회원의 장바구니에 전송한다&lt;/div&gt;&lt;div style=&quot;text-wrap: nowrap;&quot;&gt;5 회원은 장바구니 조회를 누른다&lt;/div&gt;&lt;div style=&quot;text-wrap: nowrap;&quot;&gt;6 시스템은 장바구니 목록 페이지를 보여준다&lt;/div&gt;&lt;div style=&quot;text-wrap: nowrap;&quot;&gt;7 회원은 장바구니 목록 페이지에서 주문하기 버튼을 클릭한다&lt;/div&gt;&lt;div style=&quot;text-wrap: nowrap;&quot;&gt;8 회원은 주문 정보를 입력하고 결제하기 버튼을 클릭한다&lt;/div&gt;&lt;div style=&quot;text-wrap: nowrap;&quot;&gt;9 시스템은 결제 수단 입력 폼을 전달한다&lt;/div&gt;&lt;div style=&quot;text-wrap: nowrap;&quot;&gt;10 회원은 원하는 결제 수단을 선택한다&lt;/div&gt;&lt;div style=&quot;text-wrap: nowrap;&quot;&gt;11 시스템은 결제 정보를 결제대행사에 전달한다&lt;/div&gt;&lt;div style=&quot;text-wrap: nowrap;&quot;&gt;12 결제대행사는 시스템에 결제 여부를 전달한다&lt;/div&gt;&lt;div style=&quot;text-wrap: nowrap;&quot;&gt;13 시스템은 결제 승인 확인 후 결제 완료 메세지를 전달한다&lt;/div&gt;&lt;div style=&quot;text-wrap: nowrap;&quot;&gt;14 회원은 메세지 결제 완료 버튼을 클릭한다&lt;br&gt;15 시스템은 회원의 결제 완료 메세지를 전달한다&lt;/div&gt;" style="shape=partialRectangle;connectable=0;fillColor=none;top=0;left=0;bottom=0;right=0;align=left;spacingLeft=6;fontStyle=0;overflow=hidden;whiteSpace=wrap;html=1;" parent="PGcAvko0GGr-xwm2Tnm8-14" vertex="1">
          <mxGeometry x="60" width="620" height="280" as="geometry">
            <mxRectangle width="620" height="280" as="alternateBounds" />
          </mxGeometry>
        </mxCell>
        <mxCell id="NIZ0WtZvj7tnCSkv-O99-1" value="" style="shape=tableRow;horizontal=0;startSize=0;swimlaneHead=0;swimlaneBody=0;fillColor=none;collapsible=0;dropTarget=0;points=[[0,0.5],[1,0.5]];portConstraint=eastwest;top=0;left=0;right=0;bottom=1;" vertex="1" parent="PGcAvko0GGr-xwm2Tnm8-1">
          <mxGeometry y="440" width="680" height="120" as="geometry" />
        </mxCell>
        <mxCell id="NIZ0WtZvj7tnCSkv-O99-2" value="대안흐름" style="shape=partialRectangle;connectable=0;fillColor=none;top=0;left=0;bottom=0;right=0;fontStyle=1;overflow=hidden;whiteSpace=wrap;html=1;" vertex="1" parent="NIZ0WtZvj7tnCSkv-O99-1">
          <mxGeometry width="60" height="120" as="geometry">
            <mxRectangle width="60" height="120" as="alternateBounds" />
          </mxGeometry>
        </mxCell>
        <mxCell id="NIZ0WtZvj7tnCSkv-O99-3" value="&lt;div&gt;&lt;font&gt;1a 주문 변경&lt;/font&gt;&lt;/div&gt;&lt;div&gt;&lt;font&gt;&lt;u&gt;&lt;span style=&quot;white-space: pre;&quot;&gt;&#x9;&lt;/span&gt;회원은 주문 상태가 &quot;결제 전&quot;이거나 &quot;배송 전&quot;일 경우에만 변경 가능하다&lt;/u&gt;&lt;/font&gt;&lt;/div&gt;&lt;div&gt;&lt;font&gt;2a 주문 취소&lt;/font&gt;&lt;/div&gt;&lt;div&gt;&lt;font&gt;&lt;font&gt;&lt;span style=&quot;white-space: pre;&quot;&gt;&#x9;&lt;/span&gt;&lt;u&gt;동일하게 배송 전 상태일 때만 가능하다 (관리자/직원이 승인하여야 &lt;/u&gt;&lt;/font&gt;&lt;u&gt;가능)&lt;/u&gt;&lt;/font&gt;&lt;/div&gt;" style="shape=partialRectangle;connectable=0;fillColor=none;top=0;left=0;bottom=0;right=0;align=left;spacingLeft=6;fontStyle=0;overflow=hidden;whiteSpace=wrap;html=1;fontColor=default;fontSize=12;" vertex="1" parent="NIZ0WtZvj7tnCSkv-O99-1">
          <mxGeometry x="60" width="620" height="120" as="geometry">
            <mxRectangle width="620" height="120" as="alternateBounds" />
          </mxGeometry>
        </mxCell>
        <mxCell id="PGcAvko0GGr-xwm2Tnm8-20" value="" style="shape=tableRow;horizontal=0;startSize=0;swimlaneHead=0;swimlaneBody=0;fillColor=none;collapsible=0;dropTarget=0;points=[[0,0.5],[1,0.5]];portConstraint=eastwest;top=0;left=0;right=0;bottom=1;" parent="PGcAvko0GGr-xwm2Tnm8-1" vertex="1">
          <mxGeometry y="560" width="680" height="200" as="geometry" />
        </mxCell>
        <mxCell id="PGcAvko0GGr-xwm2Tnm8-21" value="예외흐름" style="shape=partialRectangle;connectable=0;fillColor=none;top=0;left=0;bottom=0;right=0;fontStyle=1;overflow=hidden;whiteSpace=wrap;html=1;" parent="PGcAvko0GGr-xwm2Tnm8-20" vertex="1">
          <mxGeometry width="60" height="200" as="geometry">
            <mxRectangle width="60" height="200" as="alternateBounds" />
          </mxGeometry>
        </mxCell>
        <mxCell id="PGcAvko0GGr-xwm2Tnm8-22" value="&lt;div style=&quot;text-wrap: nowrap;&quot;&gt;&lt;span style=&quot;background-color: transparent; color: light-dark(rgb(0, 0, 0), rgb(255, 255, 255));&quot;&gt;1a 회원가입을 하지않고 주문을 하려는 경우&lt;/span&gt;&lt;/div&gt;&lt;div style=&quot;text-wrap: nowrap;&quot;&gt;&lt;span style=&quot;white-space-collapse: preserve;&quot;&gt;&#x9;&lt;/span&gt;&lt;u&gt;시스템은 &#39;회원가입 후 주문을 진행해주십시오&#39; 라는 메시지를 비회원에게 전달&lt;/u&gt;&lt;br&gt;&lt;/div&gt;&lt;div style=&quot;text-wrap: nowrap;&quot;&gt;&lt;br&gt;&lt;/div&gt;&lt;div style=&quot;text-wrap: nowrap;&quot;&gt;1b 회원이 주문 정보(배송지, 주문자 성함)을 누락 시&amp;nbsp;&lt;br&gt;&lt;/div&gt;&lt;div style=&quot;text-wrap: nowrap;&quot;&gt;&lt;span style=&quot;white-space-collapse: preserve;&quot;&gt;&#x9;&lt;/span&gt;&lt;u&gt;&#39;주문 정보 필수 입력란에 내용을 작성 후 결제를 진행해주십시오&#39; 메시지를 회원에게 전달&lt;/u&gt;&lt;br&gt;&lt;/div&gt;&lt;div style=&quot;text-wrap: nowrap;&quot;&gt;&lt;u&gt;&lt;br&gt;&lt;/u&gt;&lt;/div&gt;&lt;div style=&quot;text-wrap: nowrap;&quot;&gt;&lt;u&gt;1c 상품 재고 부족 등의 이유로 주문 생성 실패 시&lt;/u&gt;&lt;/div&gt;&lt;div style=&quot;text-wrap: nowrap;&quot;&gt;&lt;u&gt;&lt;span style=&quot;white-space: pre;&quot;&gt;&#x9;&lt;/span&gt;&#39;재고 수량 부족으로 인해 실패하였습니다&#39; 메세지를 회원에게 전달&lt;br&gt;&lt;/u&gt;&lt;/div&gt;&lt;div style=&quot;text-wrap: nowrap;&quot;&gt;&lt;br&gt;&lt;/div&gt;&lt;div style=&quot;text-wrap: nowrap;&quot;&gt;&lt;span style=&quot;background-color: initial;&quot;&gt;1d 결제 실패 시 (ex 잔액 부족으로 오류 시 결제대행사에서 결제 오류(잔액부족) 전달 시)&lt;/span&gt;&lt;br&gt;&lt;/div&gt;&lt;div style=&quot;text-wrap: nowrap;&quot;&gt;&lt;span style=&quot;white-space-collapse: preserve;&quot;&gt;&#x9;&lt;/span&gt;&lt;u&gt;&#39;잔액 부족으로 인해 결제가 실패했습니다&#39;&amp;nbsp;라는 메시지를 회원에게 전달&lt;/u&gt;&lt;/div&gt;" style="shape=partialRectangle;connectable=0;fillColor=none;top=0;left=0;bottom=0;right=0;align=left;spacingLeft=6;fontStyle=0;overflow=hidden;whiteSpace=wrap;html=1;" parent="PGcAvko0GGr-xwm2Tnm8-20" vertex="1">
          <mxGeometry x="60" width="620" height="200" as="geometry">
            <mxRectangle width="620" height="200" as="alternateBounds" />
          </mxGeometry>
        </mxCell>
      </root>
    </mxGraphModel>
  </diagram>
  <diagram id="Fmnw7F44-wlXMEJ9b5-x" name="로그인 FLOWCHART">
    <mxGraphModel dx="2707" dy="1111" grid="1" gridSize="10" guides="1" tooltips="1" connect="1" arrows="1" fold="1" page="1" pageScale="1" pageWidth="827" pageHeight="1169" math="0" shadow="0">
      <root>
        <mxCell id="0" />
        <mxCell id="1" parent="0" />
        <mxCell id="R7qSLEDc-N9UETuU_XvO-54" value="Note" style="shape=note;size=20;whiteSpace=wrap;html=1;" vertex="1" parent="1">
          <mxGeometry x="-20" y="100" width="820" height="900" as="geometry" />
        </mxCell>
        <mxCell id="R7qSLEDc-N9UETuU_XvO-7" value="" style="edgeStyle=orthogonalEdgeStyle;rounded=0;orthogonalLoop=1;jettySize=auto;html=1;" edge="1" parent="1" source="R7qSLEDc-N9UETuU_XvO-1" target="R7qSLEDc-N9UETuU_XvO-5">
          <mxGeometry relative="1" as="geometry" />
        </mxCell>
        <mxCell id="R7qSLEDc-N9UETuU_XvO-1" value="시작" style="strokeWidth=2;html=1;shape=mxgraph.flowchart.terminator;whiteSpace=wrap;" vertex="1" parent="1">
          <mxGeometry x="140" y="120" width="100" height="60" as="geometry" />
        </mxCell>
        <mxCell id="R7qSLEDc-N9UETuU_XvO-3" value="" style="shape=image;verticalLabelPosition=bottom;labelBackgroundColor=default;verticalAlign=top;aspect=fixed;imageAspect=0;image=data:image/png,iVBORw0KGgoAAAANSUhEUgAAArkAAALHCAYAAACKdloFAAAgAElEQVR4AeydCdQlRXm/P1yIiIrgkoAbLrgkRJBJNPkGgYOsLkmMW1AjkMi4BFDCXwUcTY6iIJjkS0zEBFGTQ+ISj1s8o8aDUQm4JNGQSEQ+ZgYGGMZhmRkQcJgZ6n/eurf6VldXVS/3dt9ennvOne6u9a3nfbvqd+v2d2dB8YIABCAAAQhAAAIQgEDPCCzcdPMmtfGWTWrzrbfxhgExkBMDa9ffAKMcRswl6bn0+htuVJt+upm4IW6IAWKAGGggBmS+vX7DjVquL8iiLRe3bPopbxgQAzkxcPWPr4VRDiPmkvRceu3yOnXjTRuJG+KGGCAGiIEGYkDm2+Xr1qudO3ephZs3blK33na72r59O28YEAM5MSAil3uFuaJMDKxbv0Ft3XYncZNzb5VhSlnuQWKAGAjFgMy3199w02gnF5FLoIQChfRsbCBys0yIkzgTRG6cD/EDH2KAGJhlDCBy2VFgV6liDCBymYzLTsaIXGKmbMxQnpghBqrHACK3osAh6KoHXV/YIXJNDCyrS05YoVasWK0uC91Pl61WK1asUCdcsux8qLpMrV6xQq044RK1HKrbo3RErokZjnXNg8uXnKDvtdWXwbguxrTbndhC5LZ8AWXCau/NNAiRu3yJOkFEqOc9EayI3KKLHiK3vfdzUR+2pdxlq+W+PEFdspxmWmTNGNX13NerL3M+hKbb9o19lm352ict3wcwCjNC5LZK5I53tTyCIisyIrtmrRpTOPi6fmMOSeROBO12tX28K5sXk2axzZYbLa6jNtnJ7fp9gP3zmeOqiVyzxmTF8fbkA23RtWWatkxdj9BO1r+idsyHP3HfDe6IXARh6U/u3Nyjm3voIncifNnJLXpPsJPbjYWxqD/nWa6SyDUfUAM7tmZXttCjDlO1NawPt/OMk6H3jchtqcgN7YJNhAWLxbxvXkSueb42X+SaxXNFZnEd1mKHyGXemtW8VUnkbjc7qC3ZyR3Is/iz8jntlJ8/ELmtE7lGMEQmISaGVuw+D13kZh9DCHy9OP4a9IQT5A9i3LhG5LJwlV+4YGbWiRXK3XU1GyRu+oTZpG7mHi69tlRta1j3/YQ9sd40C0Ru20SueS4qs+M1ujlCn96bDhz6266GLnIn3yqYhc4jct2vNMfXkwV4WIsdO7ks8jOZO806Ic+vOmuFEblGwE7uU8Ped79WvQ+rtlW1PzMGjjOJo7bpnxrsQeTWAHW64Bvf/Jkdr+2q/B8GMBFM54s4vyGJXLNg2sfJ4ulb6LYr84jCRNAanvYCZ5+b/P4eEbn99W2dc43btr63ZNc186FxuzIiN33fmXUl9odebp7nQ6teL2fRVpE23G99iB03DrjOjwlEbutEri1m3UlHrrnx23JjD0LkFro//CK3LX5qkx2I3PxFqU3+aqMtIxE7WQdGHyYngtQvctvN3dg8+eDcbnvbGBfY5I8ZRG6hRdwPr4mgMjd/+lP5/OxpYsxd6WOIItfEo72jK+dFFiezs+vWHVJsI3KZu6aZ38z9l77fJruici+ZMrH7KnQvuo8+FLF1Fm0Zm9PjIlaK8KdMPE4QuYjcVvwRVxdv1GGJXLNbm/1Dl+R3c4N/tGIW4cnuU+Jv95ndlt+Pid0V7UTkxhekafn2uv74XvELQbnHVqvVl12WI3Ij92LynO9kVzjOc3ZtIXK5L+KxVp0PIrfiYjV7h5gJw/eIQiit6GRUPUBmP87+2DIokWsWQOePXEx8jHZzPCJW7q/o4mzE8zBiGZHbn/vfxH7bjkYwendyo/disV3gZLyV2mKdS/i1Rnv0+55E5BJo7ORWjIFBidztRox6dnKNAJ5mJzdYt18TMCK3X/5so2CJitzW/E4ucdDG2OmjTYjcigKnj8HAmMpNvMMSuSM2ZgF1n6v1f4Wa5hl6dq9I3b7EJiI3HRN98WubxmHuUe9O7ni9C92L83omt038sKVf9ygiF5HLTm7FGBiiyGUBmG4BQOROx4/4gx8xQAyUiQFEbkWBUwYyZft5UyJy++nXOu9XRC4xU2d80TbxRQykYwCRi8hlJ7diDCBy05MJk2s+D0RuPiPiCEbEADEwqxhA5FYUOLNyAO1092ZG5HbXd/O67xC5xMy8Yo9+ib0hxkBK5F573Xolb5mIecOAGIjHwNU/XuY+Ya4oFQPX/GStum7tDaXqcB/G70P4wIcYIAZCMbC89np1zbVr1c6du9TChhtvVps236p+dvc9vGFADOTEgOzkcq8wV5SJgbXrN6jb7thC3OTcW2WYUpZ7kBggBkIxIPOtCGB5Ldy8cZPasnWbvuAfCEAgTkBELi8IlCFw/Q03aYFbpg5lIQABCECgGgERvzLvyguR6zC8//77dYp7dIr17lLGu2vXLv3u3eBmOCBE7gxhDqQpRO5AHM0wIQCBVhBA5EbcYMRtpAhZAyaAyB2w8ysOHZFbERzVIAABCFQggMiNQBORe/fdd6s77rhDbd26VW3btk3deeedvX7LGGWsMm7ZzeUVJoDIDbMhx08AkevnQioEIACBOgggcnOonnPOOWpxcVEddthh6tBDD9XvlStXqj6/Zaxnn3222rlzZw6dYWcjcoft/yqjR+RWoUYdCEAAAtUIIHIj3GQnVwTfr/3ar6kPfvCD6gMf+IA6//zz1XnnndeL9/vf/35lv2VcF154oXruc5+rDj/88AgZsoQAIpc4KEsAkVuWGOUhAAEIVCeAyM1hd9RRR6l3vetdOaX6lb169Wp19NFHK55JjvsVkRvnQ26WACI3y4QUCEAAAnURQORGyIrIE5ErX90P6SXjlXEjcuNeR+TG+ZCbJYDIzTIhBQIQgEBdBBC5EbJG5J511lmRUv3LkvEicvP9isjNZ0SJNAFEbpoHVxCAAATqJIDIjdAVkfuCF7xAIXIjkAachcgdsPMrDh2RWxEc1SAAAQhUIIDIjUBjJ3f0n2FEEA06C5E7aPdXGjwitxI2KkEAAhCoRACRG8GGyEXkRsKDX1eIwSHPSwCR68VCIgQgAIFaCCByI1gRuYjcSHggcmNwyPMSQOR6sZAIAQhAoBYCiNwIVkQuIjcSHojcGBzyvAQQuV4sJEIAAhCohQAiN4JVRC5/eBYBNPAsnskdeABUGD4itwI0qkAAAhCoSACRGwGHyGUnNxIe7OTG4JDnJYDI9WIhEQIQgEAtBBC5Eaw8roDIjYQHIjcGhzwvAUSuFwuJEIAABGohgMiNYEXkInIj4YHIjcEhz0sAkevFQiIEIACBWgggciNYEbmI3Eh4IHJjcMjzEkDkerGQCAEIQKAWAojcCFZELiI3Eh6I3Bgc8rwEELleLCRCAAIQqIUAIjeCVUQuv64QATTwrOH9usIatWphlVrj8/uaVWphcUkt+/Jy0paXFtXiUpWaOQ23MBuRW8YpkXgr08wsylaO7zrGsKyWFhfUKrkRl5fUYuiezBt35TFJt4tqQRuQ10mB/CnsKNB6c0VKjyMSG6XbmgxzSPPpZNThM0RumI1iJ5ed3Eh4DHAnt+ykLOUX1ILnbYvaIU3KiFxzR4ViY1FNPu+E423NKn9cZWKtqBATUZGKU+fDXI7oCIu+8BgMifLHgiI3NSab67hH75hGbadZGNYTJuHxekZTyQ5pJ2bL2KZSH6ynbC81joXsh3ovTw+PJCkSG962QvfMQmqTYEjzaYIycoLIjcBB5CJyI+ExCJGrF7PU4m8WvNExEaveSdlPTwRKUk9vRrGT6yc1sNTMrmREBLhoxgKkqKa1q49ifCLgJM8roiOCKiz6SozBNiog8EbjKyByNQ9rTPraEbree9ZqO2VP+iI83nQ5VdkOaUdscWx2mi93Wb09X4xk0rw80xaO6qTnUPsDRTIvFmjLtDzk+dQwiB0RuRE6iFxEbiQ8BiFy0+OPLNhMymlUgSt2cgNgxsIyWeR1sUi82c1oIbWoltbIV/dlRZH04avjCKKc+A6LvoJjsMejz53+U/mSF3tcwcq36mVs9I7JX9dqZmRdoccV/G0Vs0O6kfo+37jWFL2u2l4oRkYfhpKY9fKM2RaJjRJtIXJjjJVC5Eb4IHIRuZHwQOTacJiUbRrBc0SuH81oh8vaedTFRASYXS+P2NE7v5Jv1xvXKbylGxYaIh6SZqLxPRJzaTvMOMPtmxL+Y0yQjfrTtmV2v/VXI/7ndN2y3jFZbfsN06kZoeor6/ZnyrjpXjukcIyBaazMsWp74kNP/LkfzILjCNkYiY0SbSFyQ3xH6YjcCB8RufzhWQTQwLMG94dnMvFak/1ImBgR4nlGTckkbuVb58nuh16TeVxhyLeSLNKlBKIWSW4dRzDoWJUyfnEy4R0SMI4giomOcd4a7x9Q2vdAni0Tq+ICzxKirmCUJiTN+2iFh1Gm3Kht+yt0Obfv11EXBf7wbCo7dC96x9q1JX1tf8Cx+fnO/WMr0p7vQ1gmLRYjPnN0jE5igvnUB2n6NERuhCEil53cSHgMbCfXWiAyC6Pe0sj+IYYWuZNJPMRSJnd3EQ2V7Xo6O7kTDyaLui+edDFHlE2qes7KlE1Xz4iVUs/kSr8mxu1z00dVu+R+M+1KW9b9N/6wGN3J9TJ1bPGKslE/yQ62GYYctSizPrR6C1kVpha5Vlv61LHfza772h2/y9jLM2SU5U+3HanibcsXX9n2hzSfZkefTUHkZpkkKTyugMhNgsFzMqSd3Mlum0y0C9mfD2JS9kRINgmRK0zMAp+3C+cTNeP4s74VSO/EWSIsKZPXTwEBF4xv65EGPTT3uWDfGLJxkU0RRrbItUtYQjS0k5t6hGNc1y3rHZPVtt2lc64/GBQRuZXsmLWPZ92eA8NcenmazPSR+TTNo84rRG6ELiIXkRsJj4Hs5PoEyXjRsHcgvBO8lAst1BOyQ9p5QORO/N6ps0x8R8RgSkzKPVBAZGdgSPuhe8fqO9WXacTKN0njx4JSv22bGZMU9te1mtGnhURuoK1MXa8dbo8duC40jhHf9OM5zKd1eheRG6GLyEXkRsJjECJX7zjYYjYBMp6szW6Od4JH5Ca4xieIXJvIeHFPdlzL78JqweSpX/7xl5xY9ca3PZbQubTbtMg1O9NWv2K/+4HTOyYjwny+mDx3nxGqweFLv1XsmDQ42vXM2lPex6M2Z91eYqmXZ5KrT5hP0zyauELkRigjchG5kfAYhMiNjT+V553gc0TMWDzLgll1wUrZ0IELRG4ZJ8UFYmHBUKjL6iI3Hr/xMYRNC4hNfc+M8vTnS+9O7rhVLWyNOPTsCnvv2bBFdk5hkSuVKtvhfJC2DdDNTkS3kxW4rNJezhxmPmCJX6bgmTHY21aOLQOcTzPcPAmIXA8UkyQil19XMDQ4ugSG9EyuO/bMtXdSzpTyJsRFgrdKZxMRuWVcFxOIkucRbqb5mPgzZVLHnPZSZdMXpeO3tG3p/lKPFEzT1pT3bOrRB9fEMtchO3LHFosPjwGzbs/tIjQOt1yR6ynaKh2PRezpcBlEbsR5iFx2ciPhwU6uDYdJ2aYRPEfkBtF4MuIiptGdXI91Jqm0qJB7xTzmYxopdSy4k5vX5pT37HRjsIwL2hHbeR3njXcvrdYip7Nuz+kqOA6nXJHLKdoqHY9F7OlwGURuxHk8roDIjYQHIteGw6Rs0wieI3KDaDwZcZErFWRB9/26QvnHX6Qv89V+6OjfOQ7ZYNtl2zO9CBmKyB2FRIivzdQTPMGkeT6TGzTKzWA+dYlUvkbkRtDt2rVLP65w9tlnJ6VE+Pb9JeOVxzRk/LzCBHhcIcyGHD8BRK6fy5BS16zyi+UhMWCsEGiKACI3QlpE3tFHH63e8Y536FIicCVNjn18GxRnnXWWOuqooxC5BkjgiMgNgCE5SACRG0RDBgQgAIGZE0DkRpDu3LlTiz0jciNFe5Ul4z3mmGO0kO/VwGY8GETujIEOoDlE7gCczBAhAIHWEEDkRlxhRK7sbA7pJeOVHWweV4h7HZEb50NulgAiN8uEFAhAAAJ1EUDkRsiKyFu5cqV6zGMeo44//nh17LHH9uotu7Xu+0UvepEer4xbRD6vMAFEbpgNOX4CiFw/F1IhAAEI1EEAkRuhKs/dfuxjH1Onn366estb3qJOPfXUXr1PO+005b5ljGeccYa65JJLImTIEgKIXOKgLAFEbllilIcABCBQnQAitzo7ag6cACJ34AFQYfiI3ArQqAIBCECgIgFEbkVwVIMAIpcYKEsAkVuWGOUhAAEIVCeAyK3OjpoDJ4DIHXgAVBg+IrcCNKpAAAIQqEgAkVsRHNUggMglBsoSQOSWJUZ5CEAAAtUJIHKrs6PmwAkgcgceABWGj8itAI0qEIAABCoSQORWBEc1CCByiYGyBBC5ZYlRHgIQgEB1Aojc6uyoOXACiNyBB0CF4SNyK0CjCgQgAIGKBBC5FcFRDQKIXGKgLAFEbllilIcABCBQnQAitzo7ag6cACJ34AFQYfiI3ArQqAIBCECgIgFEbkVwVIMAIpcYKEsAkVuWGOUhAAEIVCeAyK3OjpoDJ4DIHXgAVBg+IrcCNKpAAAIQqEgAkVsRHNUggMglBsoSQOSWJUZ5CEAAAtUJIHKrs6PmwAkgcgceABWGj8itAI0qEIAABCoSQORWBEc1CCByiYGyBBC5ZYlRHgIQgEB1Aojc6uyoOXACiNyBB0CF4SNyK0CjCgQgAIGKBFIid3ntenXd2uuVTMS8YUAMxGPg6h8vc58wV5SKgWt+slatXbehVB3uw/h9CB/4EAPEQCgG1q7foK65dq3asWOHWthw481q0+ZblShf3jAgBuIxIDu5MIozgk+aj0y4t92xhbhhjSEGiAFioIEYkPlWNhbktXDzxk1qy9ZtFTeFqQaBYRHgcYVh+XsWo5XdBhH+vCAAAQhAoH4CMt/KvCsvRG79vOmhRwQQuT1yZkNDQeQ2BJpuIAABCCilNxUQuYQCBCoQQORWgDbwKojcgQcAw4cABBolwE5uo7jprE8EELl98mYzY0HkNsOZXiAAAQgIAUQucQCBigQQuRXBDbgaInfAzmfoEIBA4wQQuY0jp8O+EEDk9sWTzY0Dkdsca3qCAAQggMidYwzs2rVL3X///V4L3HQpy6tdBBC57fJHF6xB5HbBS9gIAQj0hQAid06e3LlzpxLhKseiLxG+5i11jfA1564wLtou5aoRQORW4zbkWojcIXufsUMAAk0TQOQ2TXzcnxG35mjMuP3229XVV1+tLr/8cvWtb31Lffvb31br1q3LiGEjbKWeEb5uW6ZNjvUQQOTWw7XPrSJy++xdxgYBCLSNACJ3Th6xBekdd9yhPvOZz6gTTzxRPe95z1NPfvKT1d57760e/ehHq4c//OHqwAMPVEceeaR629vepq666qrEYhG30o4c77vvvuCjD0kFTmZKAJE7U5yDaAyROwg3M0gIQKAlBBC5c3CEecxAuv7CF76gDjjgALXXXnup5zznOepNb3qT+sQnPqF+8IMfqJ/85CfqG9/4hvrrv/5r9Tu/8zvqCU94gtpnn33UCSecoPOkvtnFtXd25zCkQXaJyB2k26caNCJ3KnxUhgAEIFCKACK3FK7ZFf7pT3+qBe3CwoI6/vjj1ec///nkGdtQLzfffLP68Ic/rJ7+9KerfffdV1166aVJUSN2kwROaieAyK0dce86QOT2zqUMCAIQaDEBRG7NzjGPFEg35hGF5eVl9eu//utqjz32UH/1V3+ltm/fnrJC6sjLHFOZSqmbbrpJvfSlL1UPfvCD1fve976krL1DHKrrtsV1dQKI3OrshloTkTtUzzNuCEBgHgQQuTVSN48QGMEpx23btqnDDz9cPe5xj9N/WGa6twWqSYsdf/7zn6szzjhDyU6wPM4gL9OPex5rh7zqBBC51dkNtSYid6ieZ9wQgMA8CCBya6Yu4tUWn29961u1MP3yl7+c9Cz5dpkkI+dkx44d6pRTTlEPe9jD1H//9397S1dp19sQiRkCiNwMEhJyCCBycwCRDQEIQGCGBBC5M4TpNiUC0+zmSp78JJg8ovAnf/InSVEjcIvu5BrRao7yk2PPetaz1LHHHusVyqZc0iEnMyOAyJ0ZysE0hMgdjKsZKAQg0AICiNyanSDP4RoB+8IXvlD/ksLWrVuTXs1Ob0yMSp7Jd4/S0Gc/+1m1++67q69+9au6XVMm6YSTWgggcmvB2utGEbm9di+DgwAEWkYAkVuzQ4zg/NGPfqT2228/dd555yU9Sp68jdBNMpwTU85ONu3KUf5wbXFxUb385S+3i+hzUy6TQcLUBBC5UyMcXAOI3MG5nAFDAAJzJIDIrRG+LTA/9KEP6f/gQf73slm8pG15m13id77znXqXeOPGjbp5k2/bMIt+aWNCAJE7YcFZMQKI3GKcKAUBCEBgFgQQubOgmNOGCM03vOENauXKlUr+WGwWLyNiTVtf//rX1WMe8xj9e7uSZnaH3XKmPMfpCSByp2c4tBYQuUPzOOOFAATmSQCRWyN9s4t65513quc///n6lxCM+Jy2W9O2aUf+o4jHPvax6pJLLjFJ+mh2elOJXMyEwKBE7ppVamFxSS1XIVe17vKSWlxYpdZU6bOldRC5EcdUjRO3yd7EzRq1amFRLVW66VwoSqlp+M6rrmcYlZMKj0G492veUdPcE5XqWgwLc6/s2WhFRG4Uz3SZRoiKyJVnZi+44ALdoEmfrvXJf+kr7cjv7z7pSU9SH/vYx5I+ZiWop7Wzr/V7JXJlIlpYsN7OJO+dqJbV0qJdZ3K+aK/MvrqZ/iZ1EzFdaXJtd7S1T+Rai1EuurC/k9iJfRBK+dwj3nxxkrFJ7LVixTpPYi4aN1OOIWNPgfZ8QlXb6B/HQiKwZKweThkbxgkpvtJ2zfewUmp5adGaM9LjSfwR8euaVQsqKRcaV9F0d/yrnI/HATtiY0jieiFkZzgeJ3UdPyTjKRA7sfspaadAnATvibD9iV+CdUf2u5hHZkm743EHuCfm13yCyK0ZsDQvAvQ3f/M31Z/+6Z/W1psI6Sc84QkpkVtbZzSsCfRF5I4m+fRELIvPZJIenxeacGXiW1RLa2QX1mojVjc0CQYn1+4G4HxFboFFNfFZOh4KERd/hfysBYjVpr52BFwoDlKdT7OgpxryXxSywV/Vn1rAXrtiKuaL153XPaz79aucyagiTGcmcnU8WfGlxrFu2xaxY2KsJdztunaBUueW2CtVT3+CCN9PqbYKxEkqruzK09RF5NokB3ludmzvvfdedfTRR6tXv/rVyR+Kmf/iV8CYcmUgSR17p/anP/2p/vWGj3/847oZkyflqrRfxpahlu2HyA1NcmOxar4qLbhA6K9E3cUhr24oPzgxdzfi5ityp+VWQCR7Ra5/McwIpFAcpMwOxatVKBo3VcdgtV/qtIC9dnsp24vWDZWr/x7O+NAeizmP+HU2ItcfX0o5XCJ2aFMlX3/Ikw9fUnf0IT3Z0TTjKXWUdmzxbVeeVSw647S7MOepuDKJcpymboi7aXc87jzutjk1nLOTWwNU06QtMOV/Ojv44IOViFtboNrnpl6Ro2nH/CHbV77yFf1fBV922WW6ut13kfYoU55Af0SufxKWBSjRq0UmKj2ROrtzgjWvbig/ODGX91VbarRF5I52/qyd9kILuiOaikIN+dFND8VBqp9pFmVpKLYwpzqqdJEVfQXstXtKMSlaV8rN5x7OjtcezPg84tfZiNwQJydefXZo3pP7IJnvzDBS+Z65zZQLHVP+dAs59rnZha9D47caCNoxTd3YvSTtTrgmj6BZJjV1isitmbT5w6+LL75YPfKRj1RXX3217lFEqBGqkiDXZV5GxJp6b3rTm/RPiG3ZsiVpxuQlCZzMlEB/RK5v8nYmYN8CYdPUk+iknYyI8u7wjRoYlZ3UTZoNTsxJic6dzF/kjhYm/6ITyxPUTkwUpS9+9PpfFkJLnOXFmO5vmkXZjMH68FZ0DAXLZUWfM8ZMOyPmibhKsSowVt1eqJzjrzy+Fe7h7HgzA4x+yBWRm3ksyhZHhZ5JdhgmJjhc8saf1JvhSXQOG9k9/fidcfrMD9ohdX0+sOZjXXdSJonV6AdGaZedXJ8repdmhKaI23333Ve9613v0mM04tc8tmCuiwIwjyNI+U2bNqmnP/3p6rWvfW1S3c5PEjmZKYF+iFzzDJolNvTm62RSSyZhr1AxE3W6fgp0dHEZTdCLi54/7AhOrqnWO3Uxf5FrLT5ecrF842tPbCQLpbU4mvbFj97YcfqKxolpbBQv9t81mpzk6MRN+uvmImOoLoILib7EUDkZ2ZMIhxQDGeuEdXocqUbGfwCWvge9AtLrB8MkXT/VQ8quSc7oA+rExmSuELvNoAJ1J63M4Ez6MKJKNzcek7FB0jJ2pPmmbLe4p9MjjHzDCMa+r3DVtPL3xARL0bq+cZu4cf0vZaXdcZ0M96rjrFaPndxq3ArXMiJXKpx88snqKU95ipKf+5KXEaJ2maINS115y+uiiy7Sn4a//e1v62tpz+RVabuoDUMv1xeRq/2oFwlrsprMgiM3eyYqs8C5RcvEhW5DFl4tTJyJ1JdWpvEWlp2/yB0vTDGx482bAmbIj266J8ayvU6zKGdbq54idlj3S6FzJ7515yN/JPdQikGBsdoDmNM9bEwICvzUmEzpGo4Vxu+3whJo/gLjZ1mr+n9WsWOMKxAn7r1mqk71TG7SiOfEYtiU/z1WSBIiNwBmVsmyU2sEp+zmPuIRj1Cnnnpq0ryIUFuUJhnjk5BINW1ef/31eof4la98ZdKP3Uaovl2G82oEeiVy8xBEJ6oCk7ZPOOmJd7Lzp3eektV+/NfFZjcgz76O5M9f5I5AmQ8o6V0qz266Ll7AvxmRZws6R8iNfZURRdEYMw6uuqBPOwbT/6yPfjajXgqMtYw5Ub4F+PjuYav/jD9NXqbfAn1F48k0PKtjAXtyxp5YEhSTSYkaTkigyWAAACAASURBVArESdCuaerWMJQamkTk1gDVbtKIWJP2F3/xF2q33XZTf//3f2+StMh1xaiIWPstf2Bm2jIC9/bbb1dHHnmk2meffdS1116btMdJMwT6JXJzJrvMQlWCsbfuaGGxNa356jb5WjY4MZfou2VF2yJyG8ciMWB/YNHXkw842h5vnLiWjuLGFefmWsfOPOOm0BjsMc1S5DZ9D9vjGD/2lL6hRwVKM0m3W/xKxm9/uHJqVrVD4qkWkRuP5VFMR8aTDC+nHfFJ8J6I1y12P8Xb0OMoyi8Z0+xOELmzYxlsyYhTKfCzn/1M/d7v/Z564AMfqD7xiU8kdaSMEa9yNDvAJv2+++5L8qXSrbfeqo466ij18Ic/XH3xi1/U7UhZXs0RQOQa1mUnudHCnohZ04w+Sltj8ROcmFMVOnXRbZE78psRlN5jbDETkZHs0DkCV7xYVYS4ERCNm5iodBsqfz16DtYzNrupFIfQV97ShnUv2PWD5znlo3zL3sPirpDtVroIrGC/s/aFjCEiCoN2lB970AXR2AvW8me0pa1cO6py9w971qmI3FkT9bRnxKcRsVu3blWvec1rtNA988wz1ebNm5NaUkbe9s6tZJo25FyevZX/Qe0hD3mI+tKXvpSqm1xwUjuBQYncKE2Z5HIW9mj9QGbu5Bqo1+Lk+YncAgt5IkCNSHEFg4iSiJ/FXzGRm+eXoAjJq+jkR+Nm1sJq0vdI9K1SS/p/AXPZTcoVPyt7X5Utb1syTV27Hc950K+z9kWBGPfG5wzHHo09l00Be2Oi3W0udl3KLqeh3Loyjki8B/3v9FPTJSK3JrCmWRGsRqDK0Qhd2dGVX1rYc8899e/n/tVf/ZW68cYbTTXv8Xvf+5563etep/bYYw91yCGHqG9+85tJOfvnyJJETmolgMg1eGe4SJgm5Zg7udqFu3E+P5E7Cz6IXC9FHacLKvWzbLKwy4cG39f33kZ8iWXvq7Ll7T6nqWu34zkPipw6RG4VsTXDsZeas2bYrwd7KqmUXamaBeZhGUcV7k4/NV0icmsCazdrxK0Ru0boSpn/+q//UieccIJ+rlb+W95jjz1WnXPOOeqjH/2o+ru/+zv9SMOb3/xmtWLFCv0HZo997GPV6tWr1W233aa7kMcYpF3Th90v5/US6J/INTt4oWNoF08muVAdkx6qG/HRNBNzpNl5ZnVf5Bp/Bo7enbKCxINiqGB9UywaNyNhNXlswj+OQtpU9yP1wwt88gd+hRo0AzDHsiJomvtwmrrG3sAx6NcivigzbxQYgzc+C9RbKPizctHYc/nMsF+3afe6lF1O5dy6Bcbh5e70U9MlIrcmsHazRoS6R7vMVVddpd797nerF73oRVrQyk7tr//6r+sd20MPPVSddNJJ6pJLLtHP4pp6ZpdY2uXVPIF+idzm+Q2xx26L3CF6jDFDAAJdJoDIbaH35Bndm266Sd1yyy36N3XvuuuuFlqJSYhcYqAsAURuWWKUhwAEIFCdACK3OruZ18zbkTX5Zgd35gbQYCkCiNxSuCislELkEgYQgAAEmiOAyG2OdW5P5nEGKSjnImaNoLXzTFpugxSolQAit1a8vWwckdtLtzIoCECgpQQQuS1yjNmpNYLWHMVEOTfi1pRrkemDNAWRO0i3TzVoRO5U+KgMAQhAoBQBRG4pXPUV9olYW+SKwDX/QUR9VtByGQKI3DK0KCsEELnEAQQgAIHmCCBym2NNTz0jgMjtmUMbGA4itwHIdAEBCEBgTACRSyhAoCIBRG5FcAOuhsgdsPMZOgQg0DgBRG7jyOmwLwQQuX3xZHPjQOQ2x5qeIAABCCByiQEIVCSAyK0IbsDVELkDdj5DhwAEGieAyG0cOR32hQAity+ebG4ciNzmWNMTBCAAAUQuMQCBigQQuRXBDbgaInfAzmfoEIBA4wQQuY0jp8O+EEDk9sWTzY0Dkdsca3qCAAQggMglBiBQkQAityK4AVdD5A7Y+QwdAhBonAAit3HkdNgXAojcvniyuXEgcptjTU8QgAAEELnEAAQqEkDkVgQ34GqI3AE7n6FDAAKNE0DkNo6cDvtCAJHbF082Nw5EbnOs6QkCEIAAIpcYgEBFAojciuAGXA2RO2DnM3QIQKBxAojcxpHTYV8IIHL74snmxoHIbY41PUEAAhBA5BIDEKhIAJFbEdyAqyFyB+x8hg4BCDROAJHbOHI67AsBRG5fPNncOBC5zbGmJwhAAAIpkbu8dr26bu31SiZi3jAgBuIxcPWPl7lPmCtKxcA1P1mr1q7bUKoO92H8PoQPfIgBYiAUA2vXb1A/uXad2rlzl1rYcOPNatPmW5UoX94wIAbiMSA7uTCKM4JPmo9MuLfdsYW4YY0hBogBYqCBGJD5VjYW5LVw88ZNasvWbexvQwACBQjwuEIBSBRJEZDdBhH+vCAAAQhAoH4CMt/KvCsvRG4B3rt27VI7d+5U999/vy4tR7mWl+TJ27xMGXPdhaPYbN72WLpge9M2InKbJt79/hC53fchI4AABLpDAJFbwVdGBEpV+7xCU62ugsiNuweRG+dDbpYAIjfLhBQIQAACdRFA5JYka4taEYFyLce77rpLbdmyRW3dulUft23bpuR95513duotNpsx7NixoySdYRVH5A7L37MYLSJ3FhRpAwIQgEAxAojcYpySUq7IlYxvfetb6uijj1a/8Ru/oQ477DB16KGHqpUrV6rnP//5+ijnXXmLzUcccYQ69dRT1d13352Mm5MsAURulgkpcQKI3DgfciEAAQjMkgAitwJN2bm1v8p/xzveofbcc0913nnnqQsuuEC9973vVeeff76+lrSuvMVmsf9Rj3qUOuaYY5LnjisgGkQVRO4g3DzTQSJyZ4qTxiAAAQhECSByo3j8meYRBcmVxxRk5/OEE07wF+5Y6saNG9VTn/pU9YEPfKBjljdvLiK3eeZd7xGR23UPYj8EINAlAojcCt6SX1MwO7n/+7//qx7xiEeoj33sY6mWRAh36WXs/eQnP6n2228/9Z//+Z9dMn8utiJy54K9050icjvtPoyHAAQ6RgCRW8Fh9nO5//AP/6D23ntvdc011+iWjFi0y1ToopEqxlbpTES7XL/1rW9VBx54YPKzaI0Y0tFOELkdddwczUbkzhE+XUMAAoMjgMgt6XIjXo1AfM1rXqOOO+44de+99+qWJN3s8poyJbtotLgRt9Lp5s2b1YoVK9Qf/uEfNmpDVztD5HbVc/OzG5E7P/b0DAEIDI8AIrekz22Re8cdd6gnPvGJ6pxzztGtdE3gitG2yP2v//ov9aAHPUh9/vOfL0llmMURucP0+zSjRuROQ4+6EIAABMoRQOSW46VLm53ar3zlK/r51S9/+cs63RbA5rxC841VERvt19/8zd+oxz/+8WrdunU62YzTLsP5hAAid8KCs2IEELnFOFEKAhCAwCwIIHIrUDTi8O1vf7t6ylOeomRH136ZfDutjeeuED/++OPVb/3Wb6nt27drc7syjnmxReTOi3x3+0Xkdtd3WA4BCHSPACK3pM9E+MkO589//nP9W7IveclLSrbQnuK2iL3lllvUL/7iL6o/+ZM/0Qayi5vvJ0RuPiNKpAkgctM8uIIABCBQJwFEbkW6P/rRj9S+++6r/vqv/7piC/OvJiJXfg5NXp/97GfVE57wBHXllVfqa5M+fyvbawEit72+aatliNy2ega7IACBPhJA5Jb0qtnh/NSnPqUe9rCHqR//+MclW2hPcbMrLRadfvrp+j+BuOeeexIDzViTBE5SBBC5KRxcFCCAyC0AiSIQgAAEZkQAkVsBpOxyvvGNb1QrV65URhR2URAam7dt26YOO+ww9fKXvzyhYe/yJomcpAggclM4uChAAJFbABJFIAABCMyIACK3AkgRhfvvv3/y02FGLFZoqhVVvvOd76iHP/zhSnaneRUngMgtzoqSIwKIXCIBAhCAQHMEELkFWMuupnlL8W9+85v6UYUvfOELurbkdfn1iU98Qu21115q/fr1XR5G47YjchtH3vkOEbmddyEDgAAEOkQAkVvAWa6IlV8gOOCAA9QNN9yga9sCuEBzrSoiu9Dyv7Ydc8wx6mc/+1mrbGu7MYjctnuoffYhctvnEyyCAAT6SwCRG/Gt/RiCEbqSdsQRR6gXvvCFSc0ui9zbb79dPeYxj1HnnntuMh5OihEYlMhds0otLC6p5Vw0a9SqhVVqTW65ggUK91uwvTkXQ+TO2QFTd7+slhYX1CoJ8OUltVg11qeI6+WlRbWgDagwmCn6zfQ2TVuV68r8sqiW8ieijLlKMTd5oPQ+CZEbcbERtraIlV9TePKTn6zOP/98XVPy5A/RTNlIc63MWrNmjRa5//Zv/5aMp5WGttCoXolcWXQWFiZvdxENLEp6wbXrBc4XPavSmlVWf0k9ZwEL9NvCcChkEiK3EKY5FxIx5MamicuCIjd1P5m61rC8cT1qO3UfJnZMPjhGRW6q34XsB1Nvv5Zd9qnbVsE5ofJ9rT80uNzNtRl/cZHL3GQ7c7jniNyI7424tQXsJz/5SbXPPvuoH/7wh7rmjh07OitwZQB//Md/rA455BAlf0wnL3usOoF/ggR6I3L1YmYWERnueLG1F7WCi2OysNh1gwTdDLOAOSKj0A6y21Y7rxG57fRL2ioTh+nU0VUBkeveT/raEbre+8lq29f1OC0kckf3nn0fy2bzolqwd5u9/Xo6c8cwxZww2kGV8Ve8r1M75jHfeMZhJTE3WTAGdIrIzXG2K/rOPPNMddBBByU/HSbV3TI5TTaeLfbZNppzeQb3ec97nvrt3/5tbZNbrnFDO9ZhP0RuaGF1FpO8xVEvirLrkl7MfDu4YTc7fUrBvH7DjbUyB5HbSrc4RnniMClh3S8p8WUKWPkmST/Z4Dxi4I1rf12rGX3qF7lhm2VnNbkPvf1mepg8kpHKcvoo1JY04NTTSUUff3IfC/G0lbLRcyF26h1x5iYPnd4nIXIjLpbnb+Vt/vevrVu3qgMPPFCdeuqpupYRhUY0RppqRZax0xxlN/rxj3+8+shHPqLts59BboXBLTeiHyI3tGjIgmvtPvkWNOfrxczmbSrfamvs18pfa7Y8LmLmIXJjdNqSF7onxD5LiPpEri9NV3Oe3/XdT3bbERT1i9zQ+AvMCfpzqXnEwD469793/IFBp5iGbHPqpuae8TPUdpFUvmNbHWOw++a8UQKI3AhuEYNG4EoxEYW77bZb8nuyRhQa0Rhpaq5ZITsvvfRS9ahHPUqtW7dO29f2ccwVoqfzfohca9FOjdFZTMosSql2whepHaZUMenbWiB5XCFFh4u6CTjxZ3/dbwvRlPga2yRp3niVNq1HCbz30+hedJ/JTXZhky6cXWE73e7D7CDbad5+XZ7TzQnT39dO/ymmzrzkmj6j6+nHMCNDaGZqAojcCEL3D8ouvPBC/UdnXROFIl6NgDWCV4Z9yimn6McV7rrrLk3BLhfBQtaYQD9E7viRAHshLPT8nSsELFFqC9TUubXIj3dL3AU8E1yFFuVMrdYmsJPbWtdYhvmEVDre9bcWNYnczDciYpncB/a95C3kKecK7qL3k+7Pvl/HAtzuN9BWWCDaiGOPKzgiN9VP2g/++SNdJsXNZpg6t8cquK1HPCyzU6cpu1I5XLSIACI34gwjco1APOqoo9SLXvQidd999+laJj3SRGuyjK1G5G7evFk/qvCud70rGYvkmfzWGN5iQ3ojcoWxXtQsoWovZibfXTC9vpEFJr1geIuNRa5/AbLq92whQeSGoqFN6RLD2a+wRxZaAiwkcn3x75b1xrXVdgSH/3GFSAU7y9uvXcA6rzgniECc7r52OKRsjvnGst17ytzkxdLzRERuxMEi+IzQ3bRpk3rCE56gbFFohKMczXmkubllGdvkaETs5Zdfrvbcc0/1jW98I7HLlEsSOIkS6JXIjY40likLR2hRG6cXEsexPvqTh8jtgi9jQsoSYK5w1UOz8q2hZoRpSriZgv66JtccM22ZjCJHb79FKjZZJsYh5hvXRuYml8gQrxG5Ea/bovDTn/60+qVf+iX13e9+N1KjnVlGvMrRnJ9zzjnql3/5l9XGjRu10SbP5LdzJO2yql8iVxYEawfVRV11cRQhEBG5esEekEhG5LqB1cbrgDjS325YAswrcs23Ita9JPeOuzPsvZ9Gbft3QSe/educyK0+J0x3X1uMM+EhNoV22TOF4wnMTXE+PclF5EYcaQu+t73tbeqZz3ym+vnPfx6p0d4s91GElStXqpe+9KXJzq7k2+Nt70jaYxkiV3wREAS2cI2I3FxvesVAbq3WFkDkttY1BQ2zBFhI5EpLWtiabzg8omyKuM6K3AL3oNyPch+W6re6yM2F6dqR4mW4uUfhWEbkFuDC3JTrqq4XQORGPGhEn/xHCYuLi+r1r399pHS7s+xfibjuuuvU/vvvrz74wQ8mRstYzXiTRE6iBPonct1Fxbn2LghlFp0oTn+muxj6S3UmFZHbGVcFDC0ocgO1k+Qp4jorcpNW809K9VujSCxlhz2sMvNNmbJ2HwXPK4+hYPsUmwkBRG4EoxF93/ve99RDH/rQ5KfDTHqkaquy3F1c+emwfffdV/3v//5vyk6EbgpH7kX/RK71Fas7+uCEzkLioopdI3JjdLqQNzSRW2VOKODH4HySV7fMfFOmbF6/nvzKY/C0RVJtBBC5EbRGzF588cX6v/K99tprdWmTHqnaqiyzi2vsfvOb36x+5Vd+JfUbwCavVYa33Jj+iVxn59Z+5MB83ZnxiSwkOfUWPD/GnmknkNCzhQSRG/BzZ5KHJnJz7m3vtzsFnFn5vi4jXJmbCnii90UQuQVc/KpXvUodd9xxavv27QVKt6+ILWB/+tOfqmc/+9nqjDPOSAyVfPNOEjnJJdAvkZs7XArMgAAidwYQaQICEIBAQQKI3BxQIgrlVxXe/e5365LmJ8WMKOzSUQbwne98Rz3kIQ9RX/nKV/R4xH5e1QggcqtxG3ItRO6Qvc/YIQCBpgkgcnOI/8u//It+fvWb3/xmTsluZP/lX/6l2m+//dT69eu9BiN6vVi8iYhcLxYSIwQQuRE4ZEEAAhCYMQFEbg5Q+ekw+XpffmGhDy/5X9te8pKXJD8dZo/J7ErbaZyHCSByw2zI8RNA5Pq5kAoBCECgDgKI3AjVe++9Vz3nOc/R/0Wh/He+xx57rDrmmGP0Uc678j766KP1M8XHH3+8HsuFF14YGTVZRQkgcouSopwhgMg1JDhCAAIQqJ8AIjfCeMuWLer973+/OvPMM9Vpp52mTj311E6+xfbTTz9dj2H16tVq3bp1kVGTVZQAIrcoKcoZAohcQ4IjBCAAgfoJIHLrZ0wPPSWAyO2pY2scFiK3Rrg0DQEIQMAhgMh1gHAJgaIEELlFSVHOEEDkGhIcIQABCNRPAJFbP2N66CkBRG5PHVvjsBC5NcKlaQhAAAIOAUSuA4RLCBQlgMgtSopyhgAi15DgCAEIQKB+Aojc+hnTQ08JIHJ76tgah4XIrREuTUMAAhBwCCByHSBcQqAoAURuUVKUMwQQuYYERwhAAAL1E0Dk1s+YHnpKAJHbU8fWOCxEbo1waRoCEICAQwCR6wDhEgJFCSByi5KinCGAyDUkOEIAAhConwAit37G9NBTAojcnjq2xmEhcmuES9MQgAAEHAKIXAcIlxAoSgCRW5QU5QwBRK4hwRECEIBA/QQQufUzpoeeEkDk9tSxNQ4LkVsjXJqGAAQg4BBA5DpAuIRAUQKI3KKkKGcIIHINCY4QgAAE6ieAyK2fMT30lAAit6eOrXFYiNwa4dI0BCAAAYcAItcBwiUEihJA5BYlRTlDAJFrSHCEAAQgUD8BRG79jOmhpwQQuT11bI3DQuTWCJemIQABCDgEUiJ3ee16dd3a65VMxLxhQAzEY+DqHy9znzBXlIqBa36yVq1dt6FUHe7D+H0IH/gQA8RAKAbWrt+gfnLtOrVz5y61sOHGm9WmzbcqUb68YUAMxGNAdnJhFGcEnzQfmXBvu2MLccMaQwwQA8RAAzEg861sLMhr4eaNm9SWrduczV4uIQABHwEeV/BRIS1GQHYbRPjzggAEIACB+gnIfCvzrrwQufXzpoceEUDk9siZDQ0FkdsQaLqBAAQgoJTeVEDkEgoQqEAAkVsB2sCrIHIHHgAMHwIQaJQAO7mN4qazPhFA5PbJm82MBZHbDGd6gQAEICAEELnEAQQqEkDkVgQ34GqI3AE7n6FDAAKNE0DkNo6cDvtCAJHbF082Nw5EbnOs6QkCEIAAIpcYgEBFAojciuAGXA2RO2DnM3QIQKBxAojcxpHTYV8IIHL74snmxoHIbY41PUEAAhBA5BIDEKhIAJFbEdyAqyFyB+x8hg4BCDROAJHbOHI67AsBRG5fPNncOBC5zbGmJwhAAAKIXGIAAhUJIHIrghtwNUTugJ3P0CEAgcYJIHIbR06HfSGAyO2LJ5sbByK3Odb0BAEIQACRSwxAoCIBRG5FcAOuhsgdsPMZOgQg0DgBRG7jyOmwLwQQuX3xZHPjQOQ2x5qeIAABCCByiQEIVCSAyK0IbsDVELkDdj5DhwAEGieAyG0cOR32hQAity+ebG4ciNzmWNMTBCAAAUQuMQCBigQQuRXBDbgaInfAzmfoEIBA4wQQuY0jb6bD+++/P9iRmyfXblqwMhkJAURugoKTggQQuQVBUQwCEIDADAggcktC9AnCtgnEXbt2qZ07d+q3a5vkmbfJk2vfuEqiGVxxRO7gXD71gBG5UyOkAQhAAAKFCSByC6MaFRQxaEShHNv4EoErr3vuuUede+656oILLlBr165VO3bsSJlrxnLfffclItcI31RBLrwEELleLCRGCCByI3DIggAEIDBjAojckkCNMGyrwHWHc/HFF6uFhQW19957q9e85jXq0ksvVevXr0+KiSC2x4TITdDkniBycxFNXWB5aVEtLi1P3U5bGhiWyF2jVi2sUmt88NesUguLS6qKZ6eKiSn69Q2j+TRhuqhmdUtMxbL5wft7nManeXVD+ctLajEU234ra0vthQ9ro6MUIrckXBGBRghedNFF6vjjj1cvf/nL1Ste8Yq5v1/2spepV73qVeqVr3yltuXVr361Ouyww9QDHvAALXRF7Mr7SU96kjrxxBPVD3/4Qz16MyZzLIlksMX7K3Ij4iTj7WW1tDiKKxNfmWOemAktJEqpvk3giNxxAHl9LnHnjyX7g040JqRduw039rz9ZoLak9DAPaGFk3/8C4mgKipyZ8AyRaGB8af6sy5cnyYsxmW8Pg3PS3YsKW9dp283hiQ7R+SuWbUwgw/n0/twNnZYPDp4isit4DQjcj/84Q+r4447Tom4FJEr4nKeb9sGORfBe/jhh6cm/Qc/+MHqkEMOUWeddZb6yU9+ktnF7coOdQW3zbxKP0RueDFIiQUtHAK7cjGyshj4Fgm7TmShiQoau42OnPdd5Iq/snEzEW6JwIj43HWlu1CHYmLUdzpGM2mF+m3BPWFDSAmqoiLXbmByXoxle8af8Z9SSsaQibG8OUYjkHEtqqU1sgtrtZGqmz92HcMpn0z4mjOXs0mfxdFtO3Q/SF9u2Vn037U2ELkVPGZEboWqjVf5+Mc/rieEX/mVX9HC9mtf+5ratm1bYocZC7u4CZLCJ/0QuYWHGyiYvyjkfi0twiPZncm2lwijgAVdSu67yE37IrL7V0hsjlpzF2r/oh4Wf6n6JfpNj6XMVTaGq4mycZ8pQRUeZ76FYlf6UQc/y/yW4iVmNf7QWJ1xFPWplFvlPDxTtK474JRP3Mw6xaUz9pxvu1KxnzVzECmI3B662QjX7du3q3/4h39Qn/nMZ9SmTZtSI2XHNoWj0kXfRO5o18Ta4RjvdsRFZnbSLQtzzapFtUrezvoj7dSzCJe1cHblEbljliXEhbtQ+2MiJIgcwVGiXxN/GYG6kPdV9PT3RCriUoIqPM5UHd9Fqp1RAT/LSeV5zQkjC2Ss6Z15Y5nERDJfFPGpHnta4Ou2gnXFh+m5MOlPKnpYGtvk6MasnTfVuaffmA/FDl/8TtI8TKYysH2VEbnt80lli0Tcing1R/MrC3aDkm/K2OmclyfQH5E7ntBTX9sZHrE8KTPdgj6ZoP0L2iTf2NPt46BErggI64+kMoIpE28SA/5F2f6gFYqJUftpUZRJC4oaN65icR/Lm/6eGN1TlogTYZOwqi5yfcIrxNLY4P8Wpsj4/X4sJ65CY3XmnDyfOgJ3FBOWfQlbEwPj8aVU7Sg2kySP2DS15ViXuCznQ9ui4Z4jcnvmeyNgjZg1v55gP45gyvRs6I0Ppz8iVybwtDhIw4zljxeEgDgZLWr+3QK92CSrhtkdSZcNL8JpC7tyNRyRa8VFRkRoFeD5dYWQqEl7NxoTWlhHBEyeIEq6isW8FIrlW2MP3hfpOE+61Sej+smtkbJZ+p2Mzxb/6Tacq4AoC7OMjU/azst3+q94qecIZ27yCkhfjOkP4MIqMrel2I6NTH2osAy3y2qeEz8kvrKKz/y0tA9nbkEnG0TkdtJtcaNF0JrfxDVi19QwYleOvKYj0B+RO16UYwuFN686P71QeVcGWTwnAiC8CFfve541hyJyR0JExMVYlLm+tgVD4pC075Nk52SqmPD263SgL5u/JyZW5Incyf0xqRM7G/nAdYHUCLOsMv6xry0RPtm5nQjCdFpEgJohic/sNt2BeHw6EsfWbrhpq8ixsMgtYHuR/gqVKePDmvxQyM72FULkts8nU1kkolYErhzlZYtZc26E7lQdUVn1R+SOnGkWhtSCEnz+sJmJNLwIdzMA+y9yx+IotXs2jhX7g5JHmIx2B/MF3FQx4e03HEvzuScckZsyT1jmM5pUGbEP7fjmsSw3/kmvjZ5FfVpgnrLjUhs+juGUmB61P75R6AAAIABJREFUkyR5d1UL9GWLdX1eRChP58NGfdHCzhC5LXTKtCYZMTttO9SPE+ibyI2PtqZc72Ix6StvEZ6U7MZZ30Wu3sHNiAbxjSMcvMJEFvN8ATdVTHj7bVvszEjk6nsrvptZnKX4poggE5ZFxF7Rtkx7kbiYxqfBuuN4tURpInB1ODf0n0HMwIed+KBS4y2IyK0RLk33mwAiV/ybXQzcnWD/H6+MYyNH5PYtgvoucgv7yysucsTRWDxnhVlOPSNUpL6338JWFyxY4Z4Qu4ydwaMIPRlrRPAZC3V7+UIyy9I04B6l3/z23Fre69L3fM6Yoz4tEBveD2VeyyeJ0THEPqRMmsg9m9qH4zhMqfNJr+EPpJMyfThD5PbBi4xhLgS6L3ILLACZBddd6GQijSy6shjEFpHoYjEXt9baKSJ3jDcqTOIuKC7MPO3k9tuCe8Jj9iQpR/BNChY6y7KcxfiLtOHOIzFzpxnzNHUjNkXnrRmJ3Ej3dlbWh+PcqI1SRtiU8YPda3fOEbnd8RWWtoxA90XuLIAicstQROSOaeWKzTDV4KIerjLJmaLfSSN5Z1PeE9HmZyvapmIZtHO2NhZ9VttvzqxtGfcSFZAtEbnmWzbvTu7Ixui3bH6gnUtF5HbOZRjcFgKIXPHEeLLM7Phaf02du5NrlfW205/dBkTu+O6dQmxOJcym6Lf4vDPlPRHtaLaibSqWQTvFxrx7Ov6scLrpIu2Fvk2apm7aitRVAZEbf/wkZG+ql0IXeT6UfJ8toT9GLNRphwohcjvkLExtFwFEbrv80QVrELld8BI2QgACfSGAyO2LJxlH4wQQuY0j73yHiNzOu5ABQAACHSKAyO2QszC1XQQQue3yRxesQeR2wUvYCAEI9IUAIrcvnmQcjRNA5DaOvPMdInI770IGAAEIdIgAIrdDzsLUdhFA5LbLH12wBpHbBS9hIwQg0BcCiNy+eJJxNE4Akds48s53iMjtvAsZAAQg0CECiNwOOQtT20UAkdsuf3TBGkRuF7yEjRCAQF8IIHL74knG0TgBRG7jyDvfISK38y5kABCAQIcIIHI75CxMbRcBRG67/NEFaxC5XfASNkIAAn0hgMjtiycZR+MEELmNI+98h4jczruQAUAAAh0igMjtkLMwtV0EELnt8kcXrEHkdsFL2AgBCPSFACK3L55kHI0TQOQ2jrzzHSJyO+9CBgABCHSIACK3Q87C1HYRQOS2yx9dsAaR2wUvYSMEINAXAojcvniScTROAJHbOPLOd4jI7bwLGQAEINAhAojcDjkLU9tFAJHbLn90wRpEbhe8hI0QgEBfCCBy++JJxtE4AURu48g73yEit/MuZAAQgECHCCByO+QsTG0XAURuu/zRBWsQuV3wEjZCAAJ9IYDI7YsnGUfjBBC5jSPvfIeI3M67kAFAAAIdIoDI7ZCzMLVdBBC57fJHF6xB5HbBS9gIAQj0hQAity+eZByNE0DkNo688x0icjvvQgYAAQh0iAAit0POwtR2EUDktssfXbAGkdsFL2EjBCDQFwIpkbtu/Qa14aab1eZbb+MNA2IgJwZE5HKvMFeUiYHl69armzduIm5y7q0yTCnLPUgMEAOhGLhp4yYl8+7OnbvUwvrrb0TkMvmyABeMAUQuE2toYg2lI3KJmVBskE5sEAOzjwEjcu+//361IDsMW7Zu68suNeOAQK0EeFyhVry9bJzHFXrpVgYFAQi0lEDqcQVEbku9hFmtJIDIbaVbWm0UIrfV7sE4CECgZwQQuSUdumvXLrVz505dS7a/7euSTTVW3NhpHxvrvMcdIXJ77NyahobIrQkszUIAAhDwEEDkeqDkJYnIFXErotGc59WZZ74Rt2Lzjh07OmHzPHkV7RuRW5QU5QwBRK4hwRECEIBA/QQQuRUYi1g0O7gickVEduFl7OyCMO8CT0RuF7zULhsRue3yB9ZAAAL9JoDIreBfEYvmXaF6K6qISOc1HQFE7nT8hlgbkTtErzNmCEBgXgQQuRXJm13Rn/3sZ+p1r3udOuigg9RznvMcdfDBB7fufcghh2jbxEax9d577604aqrZBBC5Ng3OixBA5BahRBkIQAACsyGAyJ2S49/8zd+o3XbbTZ122mnqfe97nzr33HNb937Pe96j3v/+96szzjhDPfjBD1YXXnhhZtRGtGcySAgSQOQG0ZARIIDIDYAhGQIQgEANBBC5JaGKGDRf9W/YsEE95jGPUaecckrJVuZX/PWvf7169KMfra677jpthIzHPFdsxjU/67rVMyK3W/5qg7WI3DZ4ARsgAIGhEEDkVvC0CMPt27crEYwicteuXatbaetuqBGyYuT69evVfvvtp04++eTkuWIRt/KrC3JE6BYPCERucVaUHBFA5BIJEIAABJojgMgtydqIwG9961v6q/+lpaWSLTRfXGwWoWts//CHP6xt//rXv66NMTu5zVvW7R4Rud323zysR+TOgzp9QgACQyWAyI143t2ZNdeyi3vUUUfpPza74447dAsmL9Lc3LLENnkbkSt/eHbooYeq5z3veUr+cM7km+PcDO1Yx4jcjjmsBeYiclvgBEyAAAQGQwCRG3G1iD77Za7/9m//Vu+EfulLX9LZXdgJNQLWCN1/+7d/02P48z//c3uInJcggMgtAYuimgAil0CAAAQg0BwBRG6EtQhDeVbViFspetNNN6n9999fvfSlL+38Dugb3/hGtc8++yR/hCZinVdxAojc4qwoOSKAyCUSIAABCDRHAJEbYS3iVoSf2f2Uou985zvVIx/5SPWf//mfuqbk2fmR5lqXtW7dOv1HaK997WszYr51xrbQIERuC53ScpMQuS13EOZBAAK9IoDIzXGnCFjZzZXXD37wA7XHHnuod73rXfrafQQgp6lWZn/oQx9Su+++u/ra176m7euqYJ8HXETuPKh3u09Ebrf9h/UQgEC3CCByI/4yjynIUf7Y7Oijj1bPetaz1C233JLUssskiR04MQL9nnvuUUcccYSS/xVt8+bNHbC8PSYictvji65YgsjtiqewEwIQ6AMBRG7Ei0YISpF//Md/VA960IPUpZdeqmvIjqfJN8dIU63LEpvNrq38EZqM7b3vfW/r7GyzQYjcNnunnbYhctvpF6yCAAT6SQCRG/GrCEF5bdmyRR188MHqyCOPVPfdd59OM48wGKEYaaa1WUaoi4GnnnqqesQjHqGuuuqqxF4z/iSBkxQBRG4KBxcFCCByC0CiCAQgAIEZEUDkFgApO5wPechD1H/8x38UKN2tIkbI3nDDDfqP0F7xileon//853oQXRbwTXgBkdsE5X71gcjtlz8ZDQQg0G4CiNwc/8jO5sMf/nB1xhln6JJGFOZUa322jMPs5Box+5GPfETttttu6jOf+Uzr7W+DgYjc2XhheWlRLS4tz6axlrfSRpE7Ff81q9TC4pIq7701atXCKrWm5f4qY151jm1mMaVtleNDKTVN3TKOyylb3a++hoXnoqo83c2KyfKSWqx6/1Wqa8XRrMbgw+tJQ+R6oJgkeSThla98pTrggAPUxo0bTXJvjiJ0zVsGJX+EJv+T2y//8i8r8z+59WawNQxkKCJ3zaoFtbBQ4L3KlSzWxGbzdya52S4idkftO29W5Ap/v9/sDxVR/uIruw3Xx44vhbi0l6pj108EcSA2vC4rU9bbQCBR2i0iOKbhGKprC/wy41tWS4t+nybME8aBYY+TZ+InJz7suNLdeOIjscqpm/mwFKubNCJaOIeHiT83dlWAu9Nv9P6w7FBa/IVsMf6WPj0x57IwNsvR9qdjm9395DzQx6SA3KQBkSt1/WNIfBusO4rNDGbdr8W60BhsY6c7R+RG+F1xxRXqgQ98oLrooot0KRGEffkPE8xOrvnf2swzxt/85jfVL/zCL6g//dM/jZAhSwgMReRmvK0nOc9EnSloTWx2njPJFV5E7DY6et6syPVDElGQLFhjUWpfm1ojEWQW51GqFhQlFl3dhnfVC8SG6dw+Fo43u1L2vLoYyrYlKUU5ZmrLeGyGIbGVqSgJIiSK3HveyuFEuSfL+knqpHYDxwLcbse5140BvtjKpAXqmjaCx8LxEohBp1+xy3d/BPt3M7Q95j6SPnP85/Sfai6WlxQs0EfKpqSiRHW+fcG6iFybZCfOr7zySi1y5b/xlZf5er8TxhcwUsZj3rZ4f/vb367/J7T/+Z//KdDKcIsMUuSaBWRNaCfAjoeGFhG7y5afz1/kZkWSfxEPLVhO/ZxFNyOKE/8EYiPJn5yMxE9amE9ypzgzsVz+WQuv2PRzzNonTGwdOBIWRgRly6dTHP7pzMpXmnFKeJumQn4KxYdT3hsfUsYv9FIfHLx1jV2Bo/Fpm+anlCgMj92MaBTvgXgoxCS/j/hOrt83xr5w3VBMSE0rLgqNIelt6hN2ciMIZXdT/hDrKU95SvLbuGYH1HzNb46RZlqbZQSujMF+/dmf/Zn+ulFEPq8wgWGJ3NEElt65kYlrIbADJNysic3G6ExyRcWB3URXz+cuclML7oiin39ooTRxYH2l6RVH0vY4PryCxuRJO5FFVezV7Uu/kXIVAkIL8Gj8RhotzDHdhl9MFmShm5o9h4mfXPEtHYZsk3SfP4rER6iuszvuzBNpku6V6dcWh2Pb058orIqSb5cfZzn9+u8Pq5m801SshMc+amZs88LEF0mcmscIgvebMSSvD/31TeRxBZ9fTduxuiMf+HFPxqUfq8kdg9XflKeI3ByAP/zhD/Ufnr31rW9NSpodXfNVvxwlrWsvEbdmDMZ+84d2b3rTmzo5piZ9MAiRqyfoHCEii4KegN3J0ZnYzCQtR2uSm3oRadLpU/Y1b5Gb2ikbj8XPP7RgSbrlZ0cQ2HiSvrxlJDY8AsNuICUOJKPA4m3XD56PBZFejcfnVjwGq1kZydisND/HSQEtVrz9FGCRNDO2176XMuc5XJO25GTUnv46Xt/Hbt2QbaN6WUHj+Mjre/Pcdrov4Zf6EB2omzZfvlFq2/zksJE4Tvzu8EkNZvx8sZTVsW/dZ6ZcESZF7pPMvZV0EHgm17JF1518yJ3EgDNu06Q+WnFUaAypylNdIHIL4Dv33HP1f+drfkLM7ICaYxd3c43NMgbz27/btm1Thx56qP5f3TZt2lSAzLCLDELkTuVia2Kz23EmuTxxYFft+vlcRW5gYQvxz4gOkZnyRz7Jgq0T0tfaQaPFzn7GU7dl19MLcVrk2L719T3KH7Vd9RnJUbvZRx9Mum2zbU/qvBLHCt94pDqt40Luz7RdIw6WoIn5Se7j1AeVrN+jv5Cg60/EUiquZLjOPDF7AnXNT47YS41jzHz8wWQSx+N0+x4Z85mIyKJMpC3bhx5yQaFatK7v3h373/uhS9od10nx8Ng24yREbgSoeU5V/jOIgw46SP/ygEkzu7fuV/2R5lqVJXYbkW7GtHr1av0/n11++eXaVpPeKsNbZEz/Re544s1MWtbClMmzJz9rYrP95kxysrBOJnu7YP/O5ydyR75MLZhjvFH+44U2+ct9twHHl6mdQdd9ui0TH5HYWHBFaLasEaWuOW6XybUZR04FLeKtr4qT+slJGY5m0TdjThqpcDLqN/FD5r7z3ZOxfke2ee+7In4yIzBcx/Zk2pN8W7iZekWOuXWnZZKNK22W02/0/vCOI0/kZgWojjtfbGoxapV3bPN2P/VOrtWfr4PAhzxf0UmaxbrQGCY1pz1D5EYIigg0IvZTn/qUesADHqA++clP6hqSJy+zIxppprVZRqiLgZdddpnafffd1dlnn63tNSK4tca3wLD+i9wQZGvCChXR6YFyziRXfhGJdtrqzPmIXPGDKxwnmObDPxAbE7OsszJlrWq5p2XbrcjREQUiaCZ6xhFEuTYPqIAzTxQfeVG/Bso5/Za/P2I+lT5zRGRsoI5t/qIF+nBictLONHUnrbTpDJEb8YYReiJot2/fro4//nj9Vb79m7mmTKSZ1mYZoS7jeeYzn6lWrFih7rzzTm2vyWut8S0wDJGb5wSZMH07TOmvvMsvInn9tje/cZGrFzNbVGXZRPnLohryoUmP7dSF6k9UXtagTIrEUWxXMlOhYEKJdqfh6AiKWYhcs+Ps+iazk5pLInKPGv9G2ecwLCTKAkZWrptjU9JdZOxWTEfvj6Qt+2R6kRvyb7HbJjIu8ak04sTkxPp4XR1fwbqmlXgbOmYtvqZWXUdEboSs2aU1gk/+KOuhD32okq/1zcuUMddtPRoxbuyVo3m94Q1vUA972MPUj370I5PEsQCB4Yhcd9KWSWx2oqP8IlLAOS0t0qjI1QIz309T8Y8IEb1QBxazWF7WdbONt0n7BdudluNYINuCdCJWRoKguDgd3YuhZ4fLcZ2QCJ/lMcrJz8THaLw2C++5xE2mbsjKFsxPOkYCH+iTDwuygyvjj+3kjvlMAsQadCzPKlbkNFeoRhrJrSt2Ruadwn6N2FAiC5EbgWWEoV1Evs7fa6+9lPkjNPmZMRHBtmi0y7fh3AhbscWcG+H+T//0T3qn5i//8i/bYGqnbEDkzsZdU4ms2ZjQWCuNityCo5qKf3DBKrKYu4v9eBFPREGeaJD88WIaXXinaLcgQykW5OjYJkLUaJhRnaW4KLBtcNqys0bnOQIjWyEnJa+9AmwDH3RyOi7xh2ctELm5gzEFhJcb9yavwB+W5frfait2Ok07uXVzYiY4Z8QMrp6HyI2wM0LQFrE333yzeuITn6he9rKXacEoeW3/Ay1bgBuRK8O+5ppr1C/90i+p3/md31H33nuvJtH2sUTc1XjWcEXubFEHxcFsu2lFa8MRueNfYjAi1KE/8x1HWTiNcnT6auoyGMeOKEhErrXYS91i9sd2csd5VUWlF1SOYIn9+oK0Z43R23wssXBdV+TGGi2fF/Rr+aYESFzk6vz0L15MupG6obxJqUJnTkwWqmMK5dbNiZnCfjUdTndE5Eb4GZErRWyhePHFF6vddttNffGLX9S1uyAMxX4ZjxHsYrMI9cc+9rFq/fr1yTjscUbQkDWo/9Z3vHhGd9giuxM50TLbRSSnszlnD0nkatSyoPniZsaCtA0xFLRBi4L0rvSqJfl91/RXulK/mNA1HyDSbQrn4o89FL0RcgSLEWU+H5u0qqK7sBjq0vyUJ3JHftEfAg0/6ziz2yZXqEbiI7fuWIxbdmfmgKoxETErlIXIDZEZpxvRZ+/Yyh+hveAFL1DPfvaz1R133KFLmnI5zc0l29gmR3P+0Y9+VC8+l156qbZJRK8RwHMxsoOdDmcnt4POaanJbRS5LUVVyqw1q6p/yCrVEYUhAIFOEUDkRtxlRKERhiICzUt+S/ZBD3qQOv/8801Sa4/GfnP87//+b7XnnnuqE088MRG9xnhTxlxzDBNA5IbZkOMngMj1cyEVAhCAQB0EELklqRoRKH9wdtJJJ6lHPvKR6tprr9WtmDy7SUlrw9s8UnHXXXepI488Uj3jGc9Q5n81M/aZMrb9nIcJIHLDbMjxE0Dk+rmQCgEIQKAOAojcklRFEJod3RtuuEHtu+++6vWvf33JVuZXXH4d4oEPfKD68pe/rI2QsZjHFETkyvh4FSOAyC3GiVITAojcCQvOIAABCNRNAJFbkrCIQFsMfuhDH9Ki8bTTTlPve9/71Hvf+179Pvfcc5W8zfU8j+95z3u0LWeeeab+X83e9ra3JaO2Rbt9nhTgJEgAkRtEQ0aAACI3AIZkCEAAAjUQQOSWhGqEoNnNla//5dlW+SO0gw8+OHkfdNBBSt522rzOxY5DDjlE2/OqV71Kbdu2TY/ajEUevTDnJXEMujgid9DurzR4RG4lbFSCAAQgUIkAIrcSNtX638Z1hyUi1n6ZxxSMWHev7bKc+wkgcv1cSA0TQOSG2ZADAQhAYNYEELmzJtqh9kT4uuLXve7QcBo3FZHbOPLOd4jI7bwLGQAEINAhAojcDjkLU9tFAJHbLn90wRpEbhe8hI0QgEBfCCBy++JJxtE4AURu48g73yEit/MuZAAQgECHCCByO+QsTG0XAURuu/zRBWsQuV3wEjZCAAJ9IYDI7YsnGUfjBBC5jSPvfIeI3M67kAFAAAIdIoDI7ZCzMLVdBBC57fJHF6xB5HbBS9gIAQj0hQAity+eZByNE0DkNo688x0icjvvQgYAAQh0iAAit0POwtR2EUDktssfXbAGkdsFL2EjBCDQFwKI3L54knE0TgCR2zjyzneIyO28CxkABCDQIQKI3A45C1PbRQCR2y5/dMEaRG4XvISNEIBAXwggcvviScbROAFEbuPIO98hIrfzLmQAEIBAhwggcjvkLExtFwFEbrv80QVrELld8BI2QgACfSGAyO2LJxlH4wQQuY0j73yHiNzOu5ABQAACHSKAyO2QszC1XQQQue3yRxesQeR2wUvYCAEI9IVASuSuW79BbbjpZrX51tt4w4AYyIkBEbncK8wVZWJg+br16uaNm4ibnHurDFPKcg8SA8RAKAZu2rhJybx7//33qwVELoESChTSs7GByM0yIU7iTBC5cT7ED3yIAWJgljGQErmyw7Bl67a+7FIzDgjUSoDHFWrF28vGeVyhl25lUBCAQEsJpB5XQOS21EuY1UoCiNxWuqXVRiFyW+0ejIMABHpGAJEbcag8wyHvXbt26aOcy0uuzdGU0Qkd+8fYvnPnTm25GZ8cJc2Ms2PDasxcRG5jqHvTESK3N65kIBCAQAcIIHIjTjKiL1KErAETQOQO2PkVh47IrQiOahCAAAQqEEDk5kC7++671ZYtW9TWrVvVtm3b1J133qnP5VrO3TxJ68pbxmOPyR6bjJud3HhwIHLjfMjNEkDkZpmQAgEIQKAuAojcHLLvfOc71eLionr+85+v34ceeqi+Puqoo9QLXvACfS5p8l65cmVn3mKvjOmwww5TMpYjjjhCn8tYJe/ss8/Wjyzk4Bl0NiJ30O6vNHhEbiVsVIIABCBQiQAiN4JNHlcQIbhixQp1wQUXqPPPP1/92Z/9mT4eeOCB6uCDD9bn5513nuri+4Mf/KB6wxveoB72sIepU045RY9N0p773Oeqww8/PEKGLCGAyCUOyhJA5JYlRnkIQAAC1QkgciPsROTKLufq1aszpU466SR18sknZ9K7lvD9739fPf3pT1c/+MEPEtPPOeccPW6eSU6QeE8QuV4sJEYIIHIjcMiCAAQgMGMCiNwIUCNy5at79/Xa175WidDt+uvKK69UT3va09T3vve9ZCgyXhH3iNwEifcEkevFQmKEACI3AocsCEAAAjMmgMiNADUi96yzzsqUEpF74oknZtK7lnDFFVdokfvd7343MV3Gi8hNcARPELlBNGQECCByA2BIhgAEIFADAURuBKqIXPnjsj6L3H//939H5EZiIJaFyI3RIc9HAJHro0IaBCAAgXoIIHIjXNnJHf3nFxFEg85C5A7a/ZUGj8ithI1KEIAABCoRQORGsCFyEbmR8ODXFWJwyPMSQOR6sZAIAQhAoBYCiNwIVkQuIjcSHojcGBzyvAQQuV4sJEIAAhCohQAiN4IVkYvIjYQHIjcGhzwvAUSuFwuJEIAABGohgMiNYBWRyx+eRQANPItncgceABWGj8itAI0qEIAABCoSQORGwCFy2cmNhAc7uTE45HkJIHK9WEiEAAQgUAsBRG4EK48rIHIj4YHIjcEhz0sAkevFQiIEIACBWgggciNYEbmI3Eh4IHJjcMjzEkDkerGQCAEIQKAWAojcCFZELiI3Eh6I3Bgc8rwEELleLCRCAAIQqIUAIjeCFZGLyI2ERyMid3lpUS0uLcfMCOZNUzfT6JpVamFxSVWyZIq6MoaFVWsy5sQT1qhVC6uUt9aUtlT1hbEXkWtIlDtOE8vT1M1YOUX8qCnq9u0+yHBtOkF8UXpeSRu5ZtXCeG6W+WZRVZym040uL6nF0NyVLslVQQKI3AgoEbn8ukIE0MCzpvt1BZkYF9SC721Nvv4FOlzXFmH+uo7TZLL32SBptqiNLdBuG3Y96S5QVy/cgb4NgmYW9xnydPC6l4hcl0iYvS1C/LEcrst9oG+8kh/2puUZrj+ZYwIfPt2wGF+H5gjbv27VUB07nvScZCYZtwFzbc9rq9You13pfyqRG5gTVQGRa9sx4WoEtzGeoyGAyDUkPEd2ctnJ9YRFkjS9yM1O+HoCsyZfuY5N6IkxWkumJ7oydXU7oYlXMgN5owk3PY5MWqyuNVZ7LOZct5VTRsqO+gx8aFiwuARsMf3Zx8kiNkqVPor6wm7HPkfk2jTkXIRROn4k1fV7GfZT+y0WI4G8Ufylx5FJi9XNiXGXh0vRXI/6bOt94Pe1sd09ih9TH7STAstqaXGh1E6scEndu+KLHObunOe2MYkzGVfJndxALOSJ3FkySXD2/ASRG3EwIheRGwmPKR9X8E/47mLmTqwxeyaT7qhUmbpSQ/ftERy6Ne+kHJ7cU7Z462aFjG9sLg9fmWyan214HNkWJCU1hjGf1ELprxZNReS6ePy+cv1eJpan9Rv3QdpH0/KctOb39STfPgvPLbpUgR3PSWuefjspcmfJZEKn72eI3IiHEbmI3Eh49EzkygQ62gEyGxyyuNlfh2V3VcKTbmphROQmYYTITVCMTzwCxHzgMoFY8gNGKvZK1h3tLHMf2F4qznMyh6TmjdQjSendbrsf91zPP+6jT7pQmZ3cUdnMh9M2iFzfhkKOeJ8NE5d0v68RuRH/InIRuZHwmKPIDS8m9mRedvdLi1g9yXq+eosJVWeyzuyERes6Qnq8IJpx6LYssRPzR5In/VlfH47ssfrJLJyz55nY4pwgch0gUz2uMHu/JSKC+yD1Adfcj+K98Lwi/iguYt1I8F1n7l1nfvDVmaQFBK4UmLPI1XFmzVGJzTkiV8pNxyTpaTAniNyIq0Xk8odnEUADz5rfM7mymHiEqOMi5AD2AAAgAElEQVSP8GJkFxwLBVv4aZG4oFLaMiBUdUvj8snujd2WFIjVHZuiJ+5Uh6OMUPq4mucw3uWRxdC1Q0p7bZklT49JVhIi14KhT/3CyPW7P5Zn6Tfug9Eu9jTzit+XrserXZdrW8fPgjOH2R3LPOCZb+wi7lzhxuBIqJoPz/ncJm2PxrLkPicsBbTINW367XftGFVznjmedDb4M0RuJAQQuezkRsJjzju5+ZOqbzJ0x6Mnat9k7+5kecWh21rgukBdvSh57AilB3rSz9Eu6N2ksWhx2/TaImVnwzNkl0lH5BoS5ugXL67f/bE8O79xH4g/puUp9ScCLfnQ66TZu8ImCibHYm2k27Z2j8ciMd7HpLfomTNXuDEoMTPqpxg301e0nncnd0ompuOBHhG5EcfzuAIiNxIevRC5sfGl8pwJP5WXd+Gpq0WFs/ilF67RLoYrdsJdmR1ca8HTi7azo+uxZfrFPWyVm4PIdYnIAm77bJTv+t0VGKNSxcSFv65rR8Frb/xUr9vv+8Dv24K0pixm5oOI6PZ902P36vjajaOoWLXbsc+dNt3d4rxfV7Cb4rwYAURuhBMiF5EbCY8ZiNzABGztProT68ie+hb30KJrmRRD4s9zJ3Z/KW+qjD/3a0X9FIIjZpPWxoudGYDXlvp4JmaMTxC5LhFhz33gUnGvu3kfTCFy5T6140IEqfNVvuSb29rllXvtnQecWikbVil5vCCxaXFJLZXdydXtZb8x0nOuEdzendy0XToWbDbj85nsXqe76sUVIjfiRkQuIjcSHlOK3FjLk7ywyA0IA5nwxhOmv+6k7fTZWGx4Vw1fXkSc2BOw2BJZUPIW77z89BgKXHltyRlLJZ5+WxC5fi55qf5YrsNvvlg31vnycmww98Ig7wNhk92lNzQLH0X4Cb+UABx9ePVOV7rhGezk5hhYbid3FCche6UtnZcaY9aAlCBOZTsf5lN5w75A5Eb8j8hF5EbCY44iN2bVJM8vDCb5qTOv+LNK5Ey+VsnsaaTtmYvYbO/plIgt6YLZq1I8s9V1CiI3ACYneRr2permxQf3gefXFQoKfSP49TEufvW8YJevKHJDojIn3ApllxO5hZoc/+FZiI1wzu4EJy1PE5tJI/07QeRGfCoil19XiAAaeNZ0v65QDF6pBdppslzd8ULlXRVieU6nvsuIcNCLmbdPX0MzSIvYktd6OZ7+1hC5fi55qdOwL1c3FuuxvLwRhH7ZY1RvaPdBHi0vj5SIK7aTW+fU0rzIHf0HNeabujRDdnLTPCZXiNwJi8wZIped3ExQWAn9Ermjgemvw+wdlPH5VItFRFjqxczTX/Lsm84L7WxYzih6GrElr4lyYsnfGiLXzyUvdRr2VepyH4Q9UoVnuDV/jvSRngMW1dKaJbXozBXheanA4wqxXVG/WanUeYhcMSDLZvToGs/kptyTXCByExTZEx5XQORmo2KS0oTInfTGWR8IIHL74EXGAAEIdIUAIjfiqZ07d6qjjjpKnXXWWZlSr33ta9VJJ52USe9awpVXXqme+tSnqu985zuJ6TJeGbeIfF5hAojcMBty/AQQuX4upEIAAhCogwAiN0JVRO7RRx+t3vGOd2RK/f7v/7563etel6Tv2rVLi0IRhl14i73yuvzyy9UBBxygrrjiimQsiNwERfQEkRvFQ6aHACLXA4UkCEAAAjURQORGwIrIlT88O+ecczKlTjzxxF7s5H73u9/VIvd73/teMsazzz5bHXPMMUrGzytMAJEbZkOOnwAi18+FVAhAAAJ1EEDkRqju2LFDf23v28mVXdyTTz45UrsbWfKYgjyuIGLXvGS8soNtdntNOsc0AURumgdX+QQQufmMKAEBCEBgVgQQuRGSIvIOPfRQtc8++6gXvehFWvAef/zx6rjjjlN77bWXTn/xi1+sjj322E6+ZRwrVqzQf8X63Oc+V73whS/U70c/+tFq5cqVPJMbiQ3JQuTmACI7QwCRm0FCAgQgAIHaCCByI2jl2dqPf/zj6i1veYs67bTT1Kmnnqrfcn7mmWeq//f//l8qzeR35SjjOP3009Xb3/52fZRx/tEf/ZH64z/+Y3XJJZcgciOxIVmI3BxAZGcIIHIzSEiAAAQgUBsBRG5taGm47wQQuX338OzHh8idPVNahAAEIBAigMgNkSEdAjkEELk5gMjOEEDkZpCQAAEIQKA2Aojc2tDScN8JIHL77uHZjw+RO3umtAgBCEAgRACRGyJDOgRyCCBycwCRnSGAyM0gIQECEIBAbQQQubWhpeG+E0Dk9t3Dsx8fInf2TGkRAhCAQIgAIjdEhnQI5BBA5OYAIjtDAJGbQUICBCAAgdoIIHJrQ0vDfSeAyO27h2c/PkTu7JnSIgQgAIEQAURuiAzpEMghgMjNAUR2hgAiN4OEBAhAAAK1EUDk1oaWhvtOAJHbdw/PfnyI3NkzpUUIQAACIQKI3BAZ0iGQQwCRmwOI7AwBRG4GCQkQgAAEaiOAyK0NLQ33nQAit+8env34ELmzZ0qLEIAABEIEELkhMqRDIIcAIjcHENkZAojcDBISIAABCNRGAJFbG1oa7jsBRG7fPTz78SFyZ8+UFiEAAQiECCByQ2RIh0AOAURuDiCyMwQQuRkkJEAAAhCojUBK5K6//ka14aab1eZbb+MNA2IgJwZE5HKvMFeUiYHl69armzduIm5y7q0yTCnLPUgMEAOhGLhp4yYl8+7999+vFtat34DIZfJlAS4YA4hcJtbQxBpKR+QSM6HYIJ3YIAZmHwNG5O7cuUstyA7Dlq3bats2pmEI9IkAjyv0yZvNjIXHFZrhTC8QgAAEhEDqcQVELkEBgeIEELnFWVFyRACRSyRAAAIQaI4AIrc51vTUMwKI3J45tIHhIHIbgEwXEIAABMYEELmEAgQqEkDkVgQ34GqI3AE7n6FDAAKNE0DkNo6cDvtCAJHbF082Nw5EbnOs6QkCEIAAIpcYgEBFAojciuAGXA2RO2DnM3QIQKBxAojcxpHTYV8IIHL74snmxoHIbY41PUEAAhBA5ObEgPyAsLzd165du3S6L88t29Zre2xdHse8+CJy50W+u/0icrvrOyyHAAS6RwCRG/GZCFnztgXhzp07dbpd9d5771VbtmxRV199tbryyivV97///da8/+M//kPJe/Pmzeruu++2zdbj2LFjhxbsvnGlCnORIoDITeHgogABRG4BSBSBAAQgMCMCiNwISCNsjdC97777Uru699xzj/rqV7+qVq9erQ477DD1uMc9Tj3iEY9QT37yk9VTnvIUfdx///3VvN9iz957761+8Rd/UR188MHqrW99q/rKV76ixH7zkrGKyGVH1xDJPyJy8xlRIk0AkZvmwRUEIACBOgkgciN0jeATkSsCUHY85SXi8KMf/ah6/vOfr/bcc0/1jGc8Q51yyinqL/7iL9QnP/lJ9e1vf1v9+7//u7riiiv0Uc7n9RYb5P35z39efeQjH1FnnHGGOuigg9RDHvIQdcQRR2ixaxDIOM2YTRrHMAFEbpgNOX4CiFw/F1IhAAEI1EEAkRuhKoJP3rKDa17yOMKLX/xi9dCHPlT97u/+rhaJd9xxh8nuxHHbtm3qc5/7nHre856n9thjD/XOd75TyeMW8kLkFnchIrc4K0qOCCByiQQIQAACzRFA5EZYu1/fX3bZZeqJT3yiOvDAA9UXvvCFTE0RiObRBiOQ23K07TKGb9++XX3gAx9QCwsL6qSTTlJyjcg1dPKPiNx8RpRIE0DkpnlwBQEIQKBOAojcCF1b8P3P//yPfqZ15cqVav369Ukt8xW/K2algF0/qTDHE5+NYs5FF12khe6FF16orbPLzdHc1neNyG29i1pnICK3dS7BIAhAoMcEELkR5xqRKr9IcMwxx6jHP/7xasOGDbqG2eX17ZBGmmxVlhHoYpT8Mdpee+2lrrrqKm2j5PGKE0DkxvmQmyWAyM0yIQUCEIBAXQQQuQXI/uM//qPafffd1ac//Wld2ghbuTC7ngWaaV0RMw453nrrrVrEv/rVr07GZER+6wxviUGI3JY4okNmIHI75CxMhQAEOk8AkZvjQvlFhcXFRfXCF74w+QM0s4trRGBXha5tv2CQ53P32Wcf9eMf/1hTMfk5iAabjcgdrOsrDxyRWxkdFSEAAQiUJoDIzUH2gx/8QD+L+7GPfUyXFOFndkDNeVfFoNht3jI4edZ43333VRdccEEOFbKFACKXOChLAJFblhjlIQABCFQngMjNYXfxxRfr/9jhmmuu0SWNoDXi0FznNNP6bBmH7FC/6lWvUscdd1zr7W2DgYjcNnihWzYgcrvlL6yFAAS6TQCRm+O/t7zlLeo5z3lO5r/DzanWuWwj1s877zz1pCc9ST+j27lBNGwwIrdh4D3oDpHbAycyBAhAoDMEELk5rnrjG9+oXvCCFySljBhMEjp+IuOxx/TP//zP6mlPe5q67rrrOj6y+s0fkshdXlpUC6vWVIIqdReXlhuvW6nDmishcmsGPO/m16xSC4tLqlq0T2H8LPut3NYatWphlao2S0jdRVVxmpgCXANVK/NswLYBdIHIzXHym970JnXYYYfpUrYYzKnWmWxX5H75y1/W/+HFlVde2ZkxzMvQfojcZbW0uKB/J1n+U5D0e7Jg+UWuLExunfG1JYiDIrfA5B+sOy+nT9kvIndKgDOvXkGYxeI2mBe7z8b3TEwcS7v2veaWDfYbABYr78nT97/dv32e2BJgubykFu3yqXMzxxQXuRlbVq1RmbQSYnvNqsAclrJzIf4h38MsIR/LSwpxUhcBRG4OWRG5hx9+uC7VN5Erf0DnvkTk7r333urSSy91s7h2CPRJ5Fqa1Bnl6FIvIplC/kXNLSvX3p3cApN/sK7XyvYnInLb5aNE4GRiO2JnLG6DeSORW6YbY4G+nxzRlkkL9mtacY6x8rE8aUbyvQPxzwdOz5NLLX7Li9xJA2okbl1bUu3apWs8jzGL5dVoEk2PCCBycyLhzW9+c7KTK0V9wjCnidZm+0S7iFz5GbG///u/b63dbTEMketf1PQCbC08QaHqmfwT0WHtongFcluCoKQdiNySwOoqbnYXx3E6iruCX5d74jYxM5hXVeSGdzjF5uTeCPabWJY+iZWP5amxsEx2b+1m/fOBXSJ1nhKj4XGm6jgX3rlF2vXa51R2LlM8TZ6wsOYyk5w5xpjF8jINkTBrAojcHKJ/9Ed/pI488khdqk8C1wzbPK5gBK+I3Mc97nHq61//uinCMUAAketf1KYRuS5q7yLmFurQNSJ3js4ywlY+QHlFkP1IQUTwimhxdlaTUQUFTQtFbukxyCjlnh99vZ/VfpO8hSLP185A5HqFaUWR65tr3Lks8bN7Uikm3Ea4roMAIjeHqjyu8Ju/+ZtK/lOIvr2MsJWjEfBf+tKX1DOf+UxlfjKtb2Oe5Xj6JHJTz/stWDtEY2D+yR6RWzaeELllibWvvLvrO7q2nuuMCOisMMwfn773HEGaSQuKa3/7o/oBIR9sayTU9e6xV9T554OJBY7QT4lRqRuwZ9KAc+a0Z3KD9psC/qMwSXbGx0U0pwJOq8bTbwepsyWAyM3h+cEPflA9/elP1/9RghQ1wjCnWieyRdjKeOQtv5Err0suuUT/977XX399J8YwTyP7JHK987heyKzFO1PIv6i5C4Nv8dB+c9u3HlEwO0HBuvN0/BR9I3KngNeKqiMxtriY/SCozQsKrIAgKzom915xhXSwX18HozGsWpUVdeExSJ30H19lhZ1/PphY4DBI2TxufzwHuGJz1Ea6jPvB3H9tnvmdWBE6c+ctKVds/hG7FlU5niErSJ81AURuDtHLL79c/y9gX/ziF3NKdi/bCFyziysjkMczfvVXf1Vt3769ewNq2OLei1yLp28BGH11mV1E3LLFFgqrsx6fInLn5dzZCCQd2yIwU1+1W2NKCTcrXY0Enl+ImQ+S2XvJbiF6Huw3W2tyfwoTT5+Ztka2e4WnlE3aCLSXmJAncsvu5CYNT3FSxC9j/7gfLMa9luc5hblULU0AkZuD7M4779Q7uaeffnpOye5luyL31ltvVc961rOU/AcYvPIJIHL9i9pk0h8xlGvvAqmz88VHuG6+j9pWApHbNo/4Y9hrpRZ0EyHmxrmukxGI3pbGz7Z6BGaoeF560X5dcS713G9oiraVZ1Mm3xG5qXzxw4RtKitzUUSYlmfr82d87tJbvWoxEfmBX56ojWcGDAkeAohcDxQ36eyzz9Zf4W/cuNHN6vS1iFx7F/fTn/60etCDHqT+9V//tdPjasr4Ponc4A7TePfCtwDYf4SSqW8tnLkLRcRh09SNNDu3LETu3NCPO3aFVkGRK0JlYUFZYa3b08/j2omFBU3BfoviKtSv9DnNGEb1M/d66jGjmLh02duDk7bLiNyiZe0+4ue+OS4+/0zLM24PubMhgMiNcBQRKK//+7//U4985CPVmWeemZR2d0FNWZMuBU1aUmmOJ2KLCFr7OVzbVtmxll1c+U3gbdu2JeXmaHLru+6HyC2G2bcAFKuZ91xb/sLJTm5R0pTLJ+AKLYm/mDCTFt066V5Sf+FfSGxK/SL95t8bWnDKB9HcfusYQ5qDd0xiV0oEm0cz7KMIVhlrUeE6Gku03cCjBa7F9rVvjguL3CZ42tZxXpUAIjdCzhap73nPe9Tuu++uvva1r+kaRjDaotGkmSbt+iZtXkcjcs3RtvW+++5TJ598snroQx+qvvOd7yTja5P98+IW6xeRG6MzyQsvFFKmyGI/aavrZ+zkztuDcXEytXUZsVlQqKaEYJ7o9liZ6ddTpmhS5bamuZfLityigjg26A76JjYc8rwEELleLKNEEXnmVwfuvfdedcQRR6hHPepR6tvf/nZSS/KNcDSi0K6XFJzjidhj3ra4FZPuvvtu9YY3vEE94AEPUB/60IcSK91ySQYnCQFEboIieoLIneBB5E5YzOesaZHb0CgrC1OPfZXb6prI9Yy9jqTKPOswZnhtInIjPhehJyJWjvJav369OuSQQ9R+++2nPve5z2VqipCUskZQyrENr5Bgveqqq/R/dCEC98ILL9Smis1GuLfF/jYw9NmAyPVRyabli1z7q0vfeYWdrawZrUhB5M7bDQW+6i78tblnLPMSNLPst3JbTYpc3zxhp81ip9fj3ypJlXlW6Yw6LgFErkvEuhaRJ1/lG9EnWevWrVMveclL1J577qle8YpXqCuvvFLddtttrXr+1hpC6lTGsmXLFnXFFVeoP/iDP9C70s94xjPUF77whaScjNkIdSPuk0xOUgSGJHJTA+eiMgFEbmV0VIQABCBQmgAiNweZiD6zoyliV14iFj/ykY+oFStWqD322EP/xJg80/qBD3xA/e3f/q3O+7u/+zt10UUX6WtJm+dbbJGd2te97nX6fzP7hV/4BfUbv/Eb6t3vfre65ZZbUgTs8aYyuMgQQORmkJCQQwCRmwOIbAhAAAIzJIDInQLm7bffrtasWaNWr16tXvziF6unPe1p+v3kJz9ZyVuun/rUp879vf/++6sDDjhAHXPMMUr+gO7zn/+82rp16xQjp6oQQOQSB2UJIHLLEqM8BCAAgeoEELkV2PmecZVdXhGOd911l37Lz3CZ83kf5efB5G12os2QzQ61XNvnJp9jnAAiN86H3CwBRG6WCSkQgAAE6iKAyC1JVsSgEbldfWbVjMEduqQjdl0q4WtEbpgNOX4CiFw/F1IhAAEI1EEAkVuBqi0S5Vx2SG3hK+dtEozG3h07dujRGlsl3X61yWbbrraeI3Lb6pn22oXIba9vsAwCEOgfAURuRZ/aQtaIXCMm5Shprois2NXU1YyolYaMTeboNh5Kd8txzTO5xEB5Aojc8syoAQEIQKAqAURuVXLjel0ThV2zd0r31Fqdndxa8faycURuL93KoCAAgZYSQOS21DGY1X4CiNz2+6htFiJy2+YR7IEABPpMAJHbZ+8ytloJIHJrxdvLxhG5vXQrg4IABFpKAJHbUsdgVvsJIHLb76O2WYjIbZtHsAcCEOgzAURun73L2GolgMitFW8vG0fk9tKtDAoCEGgpAURuSx2DWe0ngMhtv4/aZiEit20ewR4IQKDPBBC5ffYuY6uVACK3Vry9bByR20u3MigIQKClBBC5LXUMZrWfACK3/T5qm4WI3LZ5BHsgAIE+E0Dk9tm7jK1WAojcWvH2snFEbi/dyqAgAIGWEkDkttQxmNV+Aojc9vuobRYictvmEeyBAAT6TACR22fvMrZaCSBya8Xby8YRub10K4OCAARaSgCR21LHYFb7CSBy2++jtlmIyG2bR7AHAhDoMwFEbp+9y9hqJYDIrRVvLxtH5PbSrQwKAhBoKQFEbksdg1ntJ4DIbb+P2mYhIrdtHsEeCECgzwRSInf99TeqDTfdrDbfehtvGBADOTEgIpd7hbmiTAwsX7de3bxxE3GTc2+VYUpZ7kFigBgIxcBNGzcpmXfvv/9+tbBu/QZELpMvC3DBGEDkMrGGJtZQOiKXmAnFBunEBjEw+xgwInfnzl1qQXYYtmzd1ueda8YGgZkR4HGFmaEcTEM8rjAYVzNQCECgBQRSjysgclvgEUzoDAFEbmdc1RpDEbmtcQWGQAACAyCAyJ2Rk+V5j127dunnPnbu3KmPkmbe0o2cm7wZdTvzZuxx7NixY+bt96lBRG6fvNnMWBC5zXCml//f3pkAW1KVB/hVyqogCMoaQBmGGUBAKwxBID4GGJElxEiMAQQBEZdHYixUUjBsCWDJKqGGoGxFiAGjhgoJEBmEQsWAKLJkWIYBHo+Hw84wKzPDMsuf+vve0/f0dnq5t+/tvv3dqjvdffbzndPd3zvTrx8EIAABJYDk9nAeqCC+++67nuyqzKr0GvHVrYYZyTXyW7WtwWHaZY7ZRgkguVEmhLgJILluPsRCAAIQ6CUBJLdHNI0UGpFVqa37R/vEJ5kAkpvMhph4AkhuPBdCIQABCJRBAMntEVUVQnv1VoudnJyUq666Sq655hpve/XVV8uVV17pHWtYFb+mjb/4xS+8/vQIz1AWg+QO5bCW2ikkt1S8FA4BCEAgQADJDeAofmBLrpYyf/58mTFjhmyyySYyffp0mTZtmvedOnWqVPm74447ykYbbSSHHXZYcRgNyYnkNmSge9hNJLeHMCkKAhCAQAoBJDcFUFK0eTxB43XfPH+rxwsWLJDddttNpkyZIr/97W/l7bfflpUrV8qqVasq/V29erXX1lNOOUUOPPDApK4T3iaA5DIV8hJAcvMSIz0EIACB4gSQ3JzszIqt+QUy8wyuhuvniSeeEF0N1ZXbhx9+OGfp1Uh+5plnykEHHeTJezVaVM1WILnVHJcqtwrJrfLo0DYIQGDYCCC5OUfUrNq+8847/jO4RnCffvpp2WWXXbzHER588EGvZBOXs5qBJj/99NOR3AwjgORmgESSAAEkN4CDAwhAAAKlEkByC+A1rwUzv2imRTz++OPy4Q9/2FvBfeSRR7xS6yi42nAkN9ukQHKzcSJVhwCS22HBHgQgAIGyCSC5BQgbyTUS++STT8rOO+8s2267rfzf//2fV6KJK1D8wLMgudmGAMnNxolUHQJIbocFexCAAATKJoDkFiBsC6y+RUEFV5/BnTdvXqQ0TWunt/cjiSsSgORmGwgkNxsnUnUIILkdFuxBAAIQKJsAkptCOLxqa79F4bHHHvNeD7bDDjsMxQquQYHkGhLuLZLr5kNslACSG2VCCAQgAIGyCCC5DrIqtPrcrf6pXrMiq2H60UcU9JfMtt9+e/8tCnVYpXV0149Ccn0Uzh0k14mHyBgCSG4MFIIgAAEIlEQAyXWANa8HW7NmjfceXCOx+ktmunqrjyiYZ3AdxdQuCsnNNmRIbjZOpOoQQHI7LNiDAAQgUDYBJNdB2Lw9wcitJjXvwbVXcDWdncZRZC2ikNxsw4TkZuNEqg4BJLfDgj0IQAACZRNAch2EzaMJupKrH30GV1dvd9ppJ++VYRqmcqvpkFwHyCGNQnKHdGBL7BaSWyJcioYABCAQIoDkhoCED4286iMK+pfMpk6d6j+iYFZwTZqkvOHwqh+zkptthJDcbJxI1SGA5HZYsAcBCECgbAJIroOwkVd9TZiu3uqrwnQ1Vz8mzpG9tlFIbrahQ3KzcSJVhwCS22HBHgQgAIGyCSC5KYQffvhhT3D1MYVHH300JfVwRCO52caxlpI7PkdGR8ZkbkwXx+eMyuic8ZiYEoMc7Smx1oEVjeQODH25FTvmcePOq7ljMjI6R7q+kmQuZ66MJVzTCg165noLlU6mPhNAch3AdbX28MMPlylTpviCq48oDPsHyc02ws2R3HGZMzoiIyOu76hE/Ni78cfn8WXaIQciGertxc0023D3JBWS2xOM1SvEMY+TJTfD/B6p4HmlEmhfC8LnYFZJDJczFvrRO6Ec5Rmo326Lte9fY6zZMncs7noUYpxQr1UMuzUigOQ6Bkt/4WzWrFkye/ZsL5X9DC6PKzjANSSqLpLrvil0LvDJN+O0Ac23kqI3Gv9+5pADI7l+2rRm1CAeya3BIGVsYhPPq1afg/8TFAnLIome4NrltIXfPtmzlCMi/jjYeTOOoYheu/QaqFtLgMPinrk8ElaNAJLrGJF33nlHDjnkEDn77LO9VCq2wyy3BgUruYaEe1sXyQ30wiGVerOIW/0I5I89yCO55qbSLsjRHiQ3FjaBVSTgmMfDc16Fzl1rHPQHV//akSqnLaGNOmmo/LRyPFFWMQ1Kqt8Oq33Ju6E6NWFavcmFEVNBAkiuY1BUaA866CA57bTTHKmGLwrJzTamtZRc78Zgr6B0+pr1ZhxNpzeK+DI7pbf3VAbsVRKHHCC5EXoEVJVAI86rGCFsj0c+yU0qR+W38z9LsbLpXS86K64RUQ7EW2VZ7Xni81sAACAASURBVIw+6hBKh+RW9Swr1C4k14FN33+rkmseV3AkHaooJDfbcNZRcs0zaebmYI7NhT/LKkhEchNENVx2bB0JeVsjkLTik218qpiKxxWqOCrdt8nM9WE/r/TcHwn9QBsJS5XEpPM6JL+p5eQfNx2n+Guc1t2R55784lz+5pGjBAJIrgMqkrveQYeoukmudzPSVVRPLEOrF+1n2+JvAMGxjkhuMDr5KE5ovbDOzSVYf9LNMLmKqscguVUfofzta9x55a1ad87ZiBBmkVOvDPt/f1rn+oj5KUGHIVJOSERtKU3ct+vQIpMk1xr3SL1WHLu1I4DkOoYMyUVyHdND6iO57RuIvQLTlktbKqPy2v1NpcOvVZZ9D/Pi4sTXz2Tabd1QIzez4E3Mz1rRHSS3ogNTqFlmflpzkPMqRk4T4Hqia53b4YtDZtnUa4s1BgnVabBZcTf/q9TZWvkz1+uoiKjKEEByHUOB5CK5julRG8n1Luz2c7B+p4LiGZVcP2F3O+0bf/ge5hXqlNzuqq1ibiS3iqNSrE2cVwncSpfEDD98x17vEtpL8FATQHIdw4vkIrmO6VEbyfX7kCKUaZLr/bdsZCXV/d9/ZuUkVnC1YSlt8ts+JDtI7pAMpN2NlDncuPMqs+SmrMBmLscejPY1xSG5SdexzqruSG/+mEWoWRwOhgCS6+CO5CK5junRIMmNeV7OB5Mc17qZWP8N6OexdlIEwUo5FLtI7lAMY7ATKXM4WXKTzx3zZpHAM6rtWgdzXmVYPdUfgFUuM8tpUcnN0BaH5AYHL+Yoc/tj8hJUOQJIrmNIkFwk1zE9hk5yE/uachPvajU2tuwMN7HIinKKTCd2rr8RSG5/efelttg5nKHmtHxp8a4qYvP26bzKLIkZ2hMrq5ov+ouzLhy54jK3P1epJB4QASTXAR7JRXId06M5kmv+vG7sMweu1SgXvXZc7M04Q76aJkFyazpwrmYXnsOuc8cV52pMO65wmzKUnZYksySqrDp+OE0sB8lNGwLiOwSQ3A6LyB6Si+RGJoUVUJ+3K7Qb7d34rN9mjqyGalzyTSfpWTb7DQ0Wnmy7g7wZZ2thT1MhuT3FWY3COK+C45Aop8FkrT+pm3I9SlzJTck3Yv3p8HC1aceZ259WEPFVIIDkOkYByUVyHdOjfiu5rs4Q1xcCSG5fMFMJBCAAAY8AkuuYCE2W3E9+8pOif9aYTzKB2q3kJneFmD4RQHL7BJpqIAABCIgIkuuYBiq5Bx98sP9nfdeuXSv6HZaPSqz9Nf3iz/oaEu4tkuvmQ2yUAJIbZUIIBCAAgbIIILkOsiq5uqKp0tekzxlnnOHJ/TAJfRnjh+SWQXW4y0Ryh3t86R0EIFAtAkiuYzxUcg888EA55ZRT5O2335bVq1d731WrVskwfrV/2s9vfetbXr8daIgS4ZlcZkFuAkhubmRkgAAEIFCYAJLrQKf/lf+pT31KNtxwQ5k2bZpMnz5ddthhh6H+aj832mgjr98q+XySCbCSm8yGmHgCSG48F0IhAAEIlEEAyU2hes8998jVV1/tfa+77jq59tpr5Zprrhnar/ZP+6v95hfP3JMDyXXzITZKAMmNMiEEAhCAQFkEkNyyyFLu0BNAcod+iHveQSS350gpEAIQgEAiASQ3EQ0REHATQHLdfIiNEkByo0wIgQAEIFAWASS3LLKUO/QEkNyhH+KedxDJ7TlSCoQABCCQSADJTURDBATcBJBcNx9iowSQ3CgTQiAAAQiURQDJLYss5Q49ASR36Ie45x1EcnuOlAIhAAEIJBJAchPREAEBNwEk182H2CgBJDfKhBAIQAACZRFAcssiS7lDTwDJHfoh7nkHkdyeI6VACEAAAokEkNxENERAwE0AyXXzITZKAMmNMiEEAhCAQFkEkNyyyFLu0BNAcod+iHveQSS350gpEAIQgEAiASQ3EQ0REHATQHLdfIiNEkByo0wIgQAEIFAWASS3LLKUO/QEkNyhH+KedxDJ7TlSCoQABCCQSADJTURDBATcBJBcNx9iowSQ3CgTQiAAAQiURQDJLYss5Q49ASR36Ie45x1EcnuOlAIhAAEIJBJAchPREAEBNwEk182H2CgBJDfKhBAIQAACZREISO7k8y/IwhdfktcXvcEXBsyBlDmgksu5wrUizxwYf3ZSXnr5VeZNyrmVhylpOQeZA8yBpDnw4suvyvizz3sOPTIx+Xskl4svN+CMcwDJ5cKadGFNCkdymTNJc4Nw5gZzoPdzoCW5k7J27ToZ0RWGpcuWl7VqTLkQGCoCPK4wVMPZl87wuEJfMFMJBCAAAY9A4HEFJJdZAYHsBJDc7KxI2SKA5DITIAABCPSPAJLbP9bUNGQEkNwhG9A+dAfJ7QNkqoAABCDQJoDkOqbC+vXrvdh169aJ7ut22D+mn7pdu3btsHe3q/4huV3ha2RmJLeRw06nIQCBARFAch3gjeQ6khDVYAJIboMHv2DXkdyC4MgGAQhAoAABJDcF2qpVq2TJkiWydOlSWb58uaxYsWKov9rHZcuWycqVKxuxcp0y/M5oJNeJh8gYAkhuDBSCIAABCJREAMlNAXvWWWfJ6OiozJw50//uu+++Mszf/fbbT84++2xZs2ZNCp1mRyO5zR7/Ir1HcotQIw8EIACBYgSQXAc3fVxh//33l4997GPy3e9+Vy6++GK56KKLhvar/dN+7rXXXjJr1ixWch1zQ6OQ3BRAREcIILkRJARAAAIQKI0AkutAq5J70EEHeauajmRDF6WruNpvnkl2Dy2S6+ZDbJQAkhtlQggEIACBsggguQ6y+jYFlb3Zs2c7Ug1f1BlnnIHkZhhWJDcDJJIECCC5ARwcQAACECiVAJLrwNtUyT399NORXMe8MFFIriHBNisBJDcrKdJBAAIQ6J4AkutgiOS23hPsQNToKCS30cNfqPNIbiFsZIIABCBQiACS68CG5CK5junBL5654BAXSwDJjcVCIAQgAIFSCCC5DqxILpLrmB5IrgsOcbEEkNxYLARCAAIQKIUAkuvAiuQiuY7pgeS64BAXSwDJjcVCIAQgAIFSCCC5DqxILpLrmB5IrgsOcbEEkNxYLARCAAIQKIUAkuvAiuQiuY7pgeS64BAXSwDJjcVCIAQgAIFSCCC5DqxILpLrmB5IrgsOcbEEkNxYLARCAAIQKIUAkuvAiuQiuY7pgeS64BAXSwDJjcVCIAQgAIFSCCC5DqxILpLrmB5IrgsOcbEEkNxYLARCAAIQKIUAkuvAiuQiuY7pgeTacOaOycjoHBm3w9iPEEByI0jyBdR2ns2VsZFRmaMnyPgcGR0Zk7mxPR+XOaPtdFb83LERGdXMzrxWhl7sJrHuZxuy9COpnZG8OgZJ3COJ0wMy15teVFcpqtKOrjpRXmYk18EWyUVyHdOjeZLrupgmxulNe0RGRhzfBskxkus6o9pxiXNJRBLjupln3eS1+uPJX3See3IqZUuulh+tO3je5RS8JNYpkusLuYWmq11th923sdCPBwntHJ8zGsxnl2Htt8Yn2ELtQ6BOL33oh4+EeoMl6ZSNKysmLNwvuyBXXa44u4yG7iO5joFHcpFcx/RAcm04RS+0esNEcm2S7LvmkivORa6beZY1b0y6jvC5JTdRhNrnhl+O1lFoNTLLKma67GdZTfbb6hqPrHE63oH+tttoC2HGOeFLr503azv8H1JCP0z069rl6qMrLnP/hjchkusYWyQXyXVMDyTXhpN4oU2/cTbpMQdWcu1Jk7CfOJdqsJIbkp6O8Lklt0Oidb6EPcwvp1TJ7bTCuZfSBr+tzkKyRMazEF8422W45osm0Xh/JbYjqXEruMmtssbPJEqr16Rrb2O5aBnhwQ7l8w5ddbni4spqWBiS6xhwJBfJdUyPZkpuYFXFopN4odUbVei/+axsTdtFcjOMuM6lvs6zHs3RLlZyO1Tixc4XpETB7Mhb9L/ZzX+NZ31codUGu5yAhyW2odULv62dThXcixFLr6TQeMVde7w2mn6PSKD9WkYgPnp90j7Y/e9IstWVuHqt6PCuriSHxdpbXY40LpzTiHrC+OVsR0zpQx2E5DqGt8qSu379etGv/QmHmXjdal/sjx1n8pmw008/XQ466KBI+XZ+9qVxktu68HduCJEbQWgVqzVHQjekhk8cJDd9AvR/nkWlLlVw4rqh4hQ6B7QvLbGxhM0piS1Z9bwnIGJpv3im+RIkKK6tiWFtFgHxstqk+Zztz/IMaucaktgML6LVlkBTvHCLpR6XIHmdcQu3sMXCnx+h8Q6nto+7kdzWoxYJ3Erov93uuu8juY4RrLrkavtsQTWSqlsjtWbfpNWt/dXumziDAsk1JNzb+QuecScYqtjWjWV01Ny0Q51LvND2SCBC1dX1EMlNG7kaz7NUybVXBxOEVM8j/a/1kNn50pUomMotocw05HZ8TB+8aPv89trQ6UuoqXZp3e97POx+xUi43bZWYzP8El6n/S1htetoiXp41TXSmUi9kRSBgLhV2zjxDWTyDlrnxNhYdCW4Fc2bbaLMOiFIbodFZE/lT1c0Z8+eHYmrQoARXCOtdpuM8Jowk1aPdX/t2rUBubXjkVxDzb1tkuR6F2hdtUi6yea84LvJDm8skuse2/7OM5WHsOykHQdlKNCbGEH05dR+jjTpHJKWwI2Ojcmoed1YuwK/nMS82fqSKm4xffCaYJ/fiW0I0OjdgdZtj1PYqu22OWvN/oOA8g7U6ddvjX+merP8kN+uK2FVuCPHCe3P1A4nmKGORHIdw1tlybWl1NGF1CgjyLrVMvVzxhln8LhCKrkGPa7g3WQ6/1XWuehakCIX2mw33eCNxLqBWEUP0y6S6xjNus+zGEH05TSD5HrnVXs11pMsS+b8cjILZoIQOfC3omJWSr22W8+1xrahiud7hjYliGUqpgIJ4q6bGub8wSPMWs8Ra154zYhcews0boizILmOwa2y5NrNfvTRR+WWW26Ryy+/XM4991z5x3/8RznnnHO8r+5rmB5feOGF8uMf/1h+/vOfy/PPP28XEdhnJTeAI/GgESu5nnhYN7g2jfBNOO25uLiLedxFPxH2kEQguQkDOdB5lkGGsjwK4AlJdAUw0zO5kf6329QWmv5Jro5PdPUx4FVh8UoY0t4FKwvHD8BFJU/74ZBc7/rkr+BGx9X7Ad2RP9z/uOtd3HWxk681BwLsvUeQQ4+zFO1/p6Kh3kNyHcNrJFelr0qflStXelL7pS99Sfbff3/ZYYcdZKuttpJNN91UPvrRj8rMmTNln3328b4f//jHRb977723bLHFFl6aKVOmyEc+8hEv78knnyz333+/aJnmg+QaEu7t8Etu62YXvsgaKv6NVwNSLrRxF/O4i74pe1i3SG7cyFZ8nvVE6lRY2v8bEimv1f/Iip6XrpXHP9cieeN4aliKGCZlyxLubIN7LLMUH02T0pfEa09LEoP/WxSS1RySGmlXYr2RlF5A3PUu7rrYyu3m6M8HTZyzHfGtG95QJNcxtvrc6sEHHyxGcnv1iEBSlebRAY239016XbHVFdlddtlFNt98c9lzzz3lC1/4glx55ZXy5JNPypIlS+Ttt9+WNWvWyLvvvhv5Llu2TF5++WW55557vFXdv/7rv5bddttNNt54Y9lpp51kzpw58vrrr8t5550nhxxyiPfcrqmbbZTA8EtutM+JISkX2riLedxFP7H8IYlAcrscyFLmWQYZcq0kZuqS1pEkuekF+FITEcwsbQ+JXbd9ibTBbr9bzuyU2fcz9DFWVi3m2SvLnjJlLrZ+0AizTzt2rFgntSy1HUkZmxGO5DrGWUXz0EMPlVNPPdVLVabkatkq1Waromo+Krdf//rXZcstt5TNNttMTjrpJLn77rtl1apVJknh7aJFi+Q///M/5YQTTpANN9zQE+cDDjhADjvsMP8Z3cKFD3lGJNca4JQLLZLbYoXkWnOmyG4p86xkGfL6adXhlMR4KMmSG5++1FBn+8uSXIf8Jc4Ji3kZQBLrLaMyR5lVaYejiYOMQnId9FU69e0KZ599tp9KJbSMj5arUq0rsObz+9//Xk455RT5wAc+IFOnTvVWX1988UUT7W01j35Uil1t0zhTh0lni7SW8eCDD8qnPvUp77dKdSWXj5sAkmvxSbnQIrktVkiuNWeK7JYyz1SG0lbYos+l52u+JVxOSYwvtW6S63xEwKxox3c1JjTD+CSu5JY4rilzMaYj5QRVpR3l9K7rUpFcB0IVyFmzZvmSq8dGEB3ZCkXZ5eojB//0T//kPUKggquS/dJLLwXK1fT6Nau/2jYjvIGE7VeGmfLDfXjnnXciffra177mPa6QVF64/KYeI7lNHfni/UZyi7MjJwQgAIG8BJDcFGKf/vSnvccE9I0E/fj88pe/9H5R7A//8A/lmGOO8Z61NfWqdOrqqy22GmfE1YisSW+2RojteJNHyzL7utXPihUrRNth/zKaKYtthwCS22HBXjYCSG42TqSCAAQg0AsCSG4KxXnz5nlvKdBfzvr+978fSG1Lo4kwomjEUcNd6Uy+xx57TL785S/Le97zHtljjz3ktttuM1He1oiqSql+9NjUZeICGRwHpj1ma5Ka8sxxON6Es20RQHKZCXkJILl5iZEeAhCAQHECSG4GdosXL5YTTzxRdHX18MMPlwceeCCQy6ysaqCRW93aXxXGsERqen3GVt+YoK8A23rrrb03HOhbEswH0TQkqrdFcqs3JlVvEZJb9RGifRCAwDARQHIdoxkW05tuusl7fdf73vc+79Vd+l/6b775pqOE+KjVq1fLvffeK/rsq74tYdttt5VvfvOb8uyzz/oZTN1Iro+kcjtIbuWGpPINQnIrP0Q0EAIQGCICSK5jMM2qrP0WgldeeUUuvfRSmTFjhqjs7rvvvt4bEPQ1XE899ZT3Wi99tZd5T+1bb70luhJ83333yXXXXee9Cmy//fbzXtc1ffp07x28jz/+eKAVZmVYBRfJDaCp1AGSW6nhqEVjkNxaDBONhAAEhoQAkusYSLOaan7Zy37cYPny5XLnnXfKUUcdJTvuuKNMmzZNtttuO2+rjx7stddeohK7zTbbiP6FsQ9+8IPeXyZTOdZHH2699VbvDy+Y6sNiawQXyTWEqrdFcqs3JlVvEZJb9RGifRCAwDARQHIdo2lWclVAdd9sw1l05VbfMXvjjTfKVVddJWeeeab3KII+jvCd73xHrrnmGu8PLugfdYj7aNnma0utkey4PIQNngCSO/gxqFsLkNy6jRjthQAE6kwAyXWMXlg4zbHZOrLmitLy7G+uzCQeGAEkd2Doa1sxklvboaPhEIBADQkguTUcNJpcDQJIbjXGoU6tQHLrNFq0FQIQqDsBJLfuI0j7B0YAyR0Y+tpWjOTWduhoOAQgUEMCSG4NB40mV4MAkluNcahTK5DcOo0WbYUABOpOAMmt+wjS/oERQHIHhr62FSO5tR06Gg4BCNSQAJJbw0GjydUggORWYxzq1Aokt06jRVshAIG6E0By6z6CtH9gBJDcgaGvbcVIbm2HjoZDAAI1JIDk1nDQaHI1CCC51RiHOrUCya3TaNFWCECg7gSQ3LqPIO0fGAEkd2Doa1sxklvboaPhEIBADQkguTUcNJpcDQJIbjXGoU6tQHLrNFq0FQIQqDsBJLfuI0j7B0YAyR0Y+tpWjOTWduhoOAQgUEMCSG4NB40mV4MAkluNcahTK5DcOo0WbYUABOpOAMmt+wjS/oERQHIHhr62FSO5tR06Gg4BCNSQQEByF77wkrz6+iLRQL4wYA6454BKLozcjOAT5DMxuVDeWLKUecM9hjnAHGAO9GEO6PV24rmFnp6PjE9MyrMTz4uuNvCFAXPAPQfmLxjnPOFakWsOPPX0hHfB5dxyn1vwgQ9zgDnQizmgCwtPPTMha9askZGXXn5Vli5bXsMFaZoMgf4T4HGF/jOve4160dbVbT4QgAAEIFA+Ab3e6nVXP0hu+bypYYgIILlDNJh96gqS2yfQVAMBCEBAxFtUQHKZChAoQADJLQCt4VmQ3IZPALoPAQj0lQAruX3FPZjK1q9fL/rVj9k3WxNmtiZ83bp1ol8+yQSQ3GQ2xMQTQHLjuRAKAQhAoAwCSG4ZVCtYpgqrEdi1a9f6++GmmjgNR3LDdILHSG6QB0fpBJDcdEakgAAEINArAkhur0hWuBwjq0Zy7a1ptoaFPyq8fJIJILnJbIiJJ4DkxnMhFAIQgEAZBJDcMqhWrEwVWCO6Kq5mP9zM119/XX7605/K2WefLZdccon3yo1wGo47BJDcDgv2shFAcrNxIhUEIACBXhBAcntBsQZlxIntokWLZP78+fL9739fDjnkEJk2bZpst912MjIyIgcccECiDNegu31pIpLbF8xDVQmSO1TDSWcgAIGKE0ByKz5ArubFPWJgHkWIy/fuu+/KQw89JDfeeKP8zd/8jUyfPl023HBDmTp1qhx66KHeCu6vfvUr2XvvvWXWrFn+L6vFlUWYCJLLLMhLAMnNS4z0EIAABIoTQHKLs+tbzjiZ1cpVWnWFVr9xad566y2ZnJyUn/zkJ3LiiSfKzJkzvZXazTbbTPbZZx9PaufOnSsLFiwI5FfB3X///fvWv7pWhOTWdeQG124kd3DsqRkCEGgeASS3BmNuHjUwMmvENq7pzz//vNx9991y1llnyZ/+6Z/KlltuKVtvvbXsueeenujecMMN8uyzz8rq1cl/dUkFF8mNoxsMQ3KDPDhKJ4DkpjMiBQQgAIFeEUBye0WypHKM2Mat1GqVq1atkl//+tdy/vnny6c//WnZZZddZJNNNpEPfehD8oUvfEGuu+46ue++++TNN9+MbaF5vMGItCZCcmNRRQKR3AgSAlIIILkpgIiGAAQg0EMCSG4PYfajqGXLlsljjz0m//zP/yxHHHGETJkyRbbZZhvZcccdvV8e07ci6HO3r732WuQXx9asWSPmPbhGmo3kmq32AcnNNpJIbjZOpOoQQHI7LNiDAAQgUDYBJLdswl2WryusTz75pFx77bXyla98RT7+8Y/L+973Ptl0003l8MMPl3/4h3+Qm2++WV599dXYmlRezWvDtKwkydXMRnyR3FiUkUAkN4KEgBQCSG4KIKIhAAEI9JAAktsjmGYl1IiiFqtSaX9NnIbZ+3YT9JfJXnzxRbntttvk5JNPlj322MN7tdfmm28uu+22m5xyyiny3//9394vi6mwZv2Y9mVJj+RmocTbFbJRIpVNAMm1abAPAQhAoFwCSG6P+BqJNAKrx0Zw9TEBI7Vx1b3yyivyP//zP3LOOefIZz7zGdliiy2852r1bQgnnHCCXHHFFTJv3jx5++2347L7ZbvqiM2YEIjkJoAJBbOSGwLCYSoBJDcVEQkgAAEI9IwAktsjlEZqjWiaYxXd8GflypXy4IMPysUXXyyHHXaY7L777vKBD3zAe7b26KOPlssvv1zuvfde0edvB/FRyd1vv/0GUXWt6kRyazVclWgskluJYaAREIBAQwgguX0YaF2BVam9/vrrZWxsTLbffnt5//vfLzvttJN84hOfkPPOO0/uvPNOWbJkib8qazdLhdmWZ7Nvp+nlPpKbjSaSm40TqToEkNwOC/YgAAEIlE0Aye2CsFmtDRehz8qOj497f1ns7/7u7+TAAw8U/QMMulqr+6eeeqrcdNNNXppwXj02jzzYvyRmRLdswdX6eVwhblSiYUhulAkhbgJIrpsPsRCAAAR6SQDJzUAzi2Cq1N51113eXxHTP4u71VZbee+qnTFjhvdc7Q9+8APRP9QQ975aI7VGYO1js28307THDuvlPpKbjSaSm40TqToEkNwOC/YgAAEIlE0AyXUQVsHU1VTdhj/Lly+XO+64Q/S9tEceeaRsu+22stFGG3lvQNBfFpszZ4488MADib8sFi6vSsdIbrbRQHKzcUpNNXdMRkbnyHhqwpgE3eSNKa7sICS3bMKUHyYwd2xERufo2TVXxkbGZG44QZHjtPMuMb6HbTDtTqzLJHBsu8nrKJao6hBAcjOOxeLFi2X+/Pnyve99T/SXw3beeWdPbLfbbjvvudoLL7xQ7r//ftE3JYQ/9sqrWa0Np6nSMZKbbTTqLbl5bjbjMmd0REZGHF+XpOqNxM47FrrNJtxo9OYcyOeVMSre/doMUUJeE121LZJbtRHpdXsynCsjoTmc2IQ856im7Zwv9ilWSHLD52z4/E477xLj8/SpDSbcFrtzmiShrmG8fiROFSISCSC5iWhE3nrrLe99tV//+tdl1113lQ022ECmTp0qhx56qJx22mly++23J74BwcisEVzdxq0IO6ofWJRKLm9XSMdfa8lt3zjC94v4XuuNO+uNOVSCV4+9etSWALvihJtUqKT2SpS2I3hDL7wKHK2g9BAkt3TEFa8g67lkyXJYMCM9bKVtrda2pc8S6bySOz5nVEZCK76RsMg5GzonLeE2P6gWWk3m+hEZbQLyEUByHbz0jzJ86EMf8l7t9a1vfUtuueUWbzU37o8wGJk1z9AayTXF2+HhOJOmKltWcrONRG0ld3yOjI6MeG/6CN/M4nue9cYczt26+do+20qhN0RLmiM3zHA55jiUT4Mz5zVlDHaL5A6W/+BrTz+X/BXI9okTPo70Qc/nkAh3xFZPkTyPK8ScY+0KO+V0c95p+fYPvZHeWAFcPywY7BYkgOQ6wE1OTnort/rXx+xPWFjNKq1uzRsRNI2dTvPb6ezyqraP5GYbkTpKbuuGaQlmW3hHoiZqQUi/MVuJrd2kG2aovARRbbW181+wrRUhq+1aU0JeqxGV2kVyKzUcvW+MzseYVcxgWGgOayvMeThihDTatNZqqp4PofxaZ+j89dJakpx9FTXpnLVl2XXeaf7gOeuvMHtdyiO5SW1p7vUjOisISSOA5DoI6dsQpk2bJnffv6W0rgAAIABJREFUfbefyl6F1X1zbLZ+wpgdO31MdGWCkNxsQ1EbybVuvKF7YaejzjStFZXgjTp4I4tfEW7li9YZunlp3aGVKG1YYOWo01KNCd5IY/IGklfoAMmt0GAMpCkhQXO2IZsQqtAGRbItoZZsZpdc9e0ijytoR1rnZfB8b10DOu2zz92QrEdYcP2IICEgNwEk14FMJXeHHXbw/lCDI9nQRSG52Ya0NpKbrTs5UmW7+XoFevJs//dk68YVWHnKLblWUxPyWikqtYvkVmo4Sm9MVED13AnLnS1+4R8ek44751S0jrbkFlrJbSPxzlur7vAPknHnXcxjE15pmtY33xzXDs3staPTV5FmXz9Kn7BDWAGS6xjUJksuv3jmmBjtqOGX3O5uvj7B8A3Tv+G1U8TdML37m3WTtValAqvGCXn9uiu2g+RWbEBKbk6sgPa6Tj0HQueUXW/nf0RyCqarnbHnXet6EWxK3EquLa2uStpxWpd9/gcrSHxkKf5xJ72mWPXH9iNDm0hSGwJIrmOokFwHHKKkHpLbI1FlvHtCAMntCcYKFtKL8yxDGeEVVSURs4KqgmdcsH+S6zUm8rrBzqMKGq99tCSzgiNJk4aLAJLrGM8mS64+ssDHTaAekpvUh/w3m6SVkeBNLK6+lLocqym6IhVYxbFXdMx+3I0/rhkVCENyKzAIdW1CjMy2uhJaLfVWPjsi2V/JTYObci2IzZ6Sp0HXj1g8BDoJILkOPEiuAw5RNVnJTRqolBtHIFvMc3BWvCe/TtFMqctxk7Kqid/tJm98iaWGIrml4q1A4a1zxayi5muQnidJj+i0wxPPMztv8Jnf7JJrl+Foh7bBcd7Zj0rk639Saq4fSWQITyeA5DoYIbkOOEQ1R3K91xt1VoaiQ59yEwq/DSHuRp54847WFghx3GwD6SpygORWZCBKa0a3khsU1F40M7vk5qjNcd6VI7kO6dbrSUOuHzlGiKRtAkiuYyoguQ44RDVHcuN+o9kf//Yqr/MmkyLBjhumX03STjd5k8osMRzJLRFuJYpGcsuRXMcP2d1cA7rJW4n5RiPSCCC5DkJNllzeruCYGO2opj2Tm/R8bLZnclmJ0WmD5KafV/VO0f6hL+5/K/ywpNXabI8L5H0UYhAruWnP0adfM+xZkIGL84dsu6zQPpIbAjJ8h0iuY0yRXAccomq+kssADoIAkjsI6tQJAQg0lQCS6xj5Jksub1dwTIx2VL1XctP7R4reE0Bye8+UEiEAAQgkEUByk8jofy0+/7xMnTpV7rrrLi/V2rVrHamHJ0ofVUBy08cTyU1nRIogASQ3yIMjCEAAAmUSQHIddM1K7h133OGlWrdunbddv369DOPXoFDBVdHVPvJJJoDkJrMhJp4AkhvPhVAIQAACZRBAch1UJycnZfr06XLnnXc6Ug1f1IEHHuit5BqpH74e9qZHSG5vODapFCS3SaNNXyEAgUETQHIdI2AeV/j5z3/uSDV8UQcccIDol5Vc99giuW4+xEYJILlRJoRAAAIQKIsAkusgqyu522yzjRx//PFy2WWXyQUXXCAXXnjh0H4vuugi+e53vytbb7217LvvvtKUZ5AdU8AZheQ68RAZQwDJjYFCEAQgAIGSCCC5DrCvvfaanHDCCd5/3eszqrq6aZ5X1eNh/M6cOVNmzZolZ511Fiu5jrmhUUhuCiCiIwSQ3AgSAiAAAQiURgDJdaDVZ1JXrVolK1as8L5vvvmmLF++3D824cO01f7pd/Xq1Q4yRCkBJJd5kJcAkpuXGOkhAAEIFCeA5BZnR86GE0ByGz4BCnQfyS0AjSwQgAAEChJAcguCIxsEkFzmQF4CSG5eYqSHAAQgUJwAklucHTkbTgDJbfgEKNB9JLcANLJAAAIQKEgAyS0IjmwQQHKZA3kJILl5iZEeAhCAQHECSG5xduRsOAEkt+EToED3kdwC0MgCAQhAoCABJLcgOLJBAMllDuQlgOTmJUZ6CEAAAsUJILnF2ZGz4QSQ3IZPgALdR3ILQCMLBCAAgYIEkNyC4MgGASSXOZCXAJKblxjpIQABCBQngOQWZ0fOhhNAchs+AQp0H8ktAI0sEIAABAoSQHILgiMbBJBc5kBeAkhuXmKkhwAEIFCcAJJbnB05G04AyW34BCjQfSS3ADSyQAACEChIAMktCI5sEEBymQN5CSC5eYmRHgIQgEBxAgHJXfjCS/Lq64tEA/nCgDngngMquTByM4JPkM/E5EJ5Y8lS5g33GOYAc4A50Ic5oNfbiecWepY8Mj4xKc9OPC+62sAXBswB9xyYv2Cc84RrRa458NTTE94Fl3PLfW7BBz7MAeZAL+aALiw89cyErFmzRkZeevlVWbpsefF1YXJCoEEEeFyhQYPdo67qRVtXt/lAAAIQgED5BPR6q9dd/SC55fOmhiEigOQO0WD2qStIbp9AUw0EIAABEW9RAcllKkCgAAEktwC0hmdBchs+Aeg+BCDQVwKs5Dpwr1ixQq666io544wz5PTTT/e2Z555puhXj2fPnu2FabyG6dZ8zbFJb8I1z1lnneV9dd+UpfGmDrts3e/nV9t07rnnyk9/+lMHGaKUAJLLPMhLAMnNS4z0EIAABIoTQHId7CYnJ2XKlCnyF3/xF/K3f/u38pWvfCXw/epXvyonnXSSH2b2v/zlL8vY2JgfrvuaVr9ahklnwu1yTTqz1Tiz34+ttu2DH/ygHHPMMQ4yRCkBJJd5kJcAkpuXGOkhAAEIFCeA5DrYTUxMyO677y7z5s1zpBq+qGOPPVaOPPLI4etYj3uE5PYYaAOKQ3IbMMh0EQIQqAwBJNcxFM8995wnuQ8//HAg1e9//3vvdRQvv/yyjI+PyzPPPCPvvvuu/O53v5PXX39dXnvtNW9/1apVXr7Vq1fLPffcI3fddZfceeed8utf/1qWL18u9913n/zXf/2XzJ8/X3TV+PHHHw/UM6iD448/Xo466qhBVV+bepHc2gxVZRqK5FZmKGgIBCDQAAJIrmOQdSV3jz328IRVk61fv95Lfe2118r//u//yo9+9CPv2dX/+I//kCVLlsgFF1wgP/jBD+Rf//Vfvf2lS5d66deuXetJrMZfeeWVonL81ltvyUsvvSQ33XSTXH/99d721ltv9dJrPea7bt06f9+ElbX1KhcRXclFcg2N5C2Sm8yGmHgCSG48F0IhAAEIlEEAyXVQNY8rPPTQQ4FUV1xxhfzsZz8Tld3bb79dLr30Unn22Wfl8ssv95651WdnL7vsMk9iNaNZtb355pvlJz/5iSfNK1eulCeffNLLf//998t5553n/7KXLbaBivt08PnPf16OPvroPtVW32qQ3PqO3aBajuQOijz1QgACTSSA5DpGXSX3j//4j+XBBx8MpNLHDW677TZPUvVRA33sQFdydSX23//93+XGG2/04nWlVj8ap4886HfBggXe9pVXXvHSvPDCC16aBx54wHucwVSkomvLblmrt3a5pm79pTNWcg2N5C2Sm8yGmHgCSG48F0IhAAEIlEEAyXVQVcmdMWOGhFdy9TlcFVl9ZlflVMVVP0888YQvs//2b/8mb7zxhheu5fz2t7+Vq6++2lvJ/c1vfiP6ejJ9TZcK9KJFi7zncp9//nkvvT7eYATXC+jzP7qS+7nPfa7PtdavOiS3fmM26BYjuYMeAeqHAASaRADJdYy2Wcl99NFHA6n08YM77rhDfvnLX8ovfvELefHF1p+MsxM98sgjYn7xbPHixZ4AqwzrL6np6u/bb7/t7avwavkqyMuWLbOLGNi+PpPL4wrp+JHcdEakCBJAcoM8OIIABCBQJgEk10HXvF1BZfbNN9/0JFRFVFdhVXT1F8v02Gw1TI9NmIabMH3DwjvvvOPJrW41XMvRRxl0JVffyqAybMq1y9Swfny1PdrPI444gscVHPPCRCG5hgTbrASQ3KykSAcBCECgewJIroOhPj6w4447es/lHnDAAbL//vvLzJkzZb/99vP2NUz3zVb3TZym1a851nz2sQnXMLtsPda05mvymLLL3Gpds2bNki222EKOO+44BxmilACSyzzISwDJzUuM9BCAAASKE0ByHez0fbi77bab9+aDH//4x/LDH/7QexZXn8c1Xw3T7w033OCFmTTmWLcmzOQJb01aU46dx8SF85R1rK9D22effUSfy+XjJoDkuvkQGyWA5EaZEAIBCECgLAJIroOsPpO75557VuaPNDia2tOoE044gWdyMxBFcjNAIkmAAJIbwMEBBCAAgVIJILkOvCq5+scgwn/xzJFlKKL4YxDZhhHJzcaJVB0CSG6HBXsQgAAEyiaA5DoI6y+e6Xty9c/12h/73bLDtG/6yNsVDAn3Fsl18yE2SgDJjTIhBAIQgEBZBJBcB1n9K2b6nlzzxyCM0DqyDEWUSi7vyU0fSiQ3nREpggSQ3CAPjiAAAQiUSQDJddA1jysYyXUkHaoo/aUz/uJZ+pAiuemMSBEkgOQGeXAEAQhAoEwCSK6DrnlPbtMkl5Vcx6SwopBcA2OujI2MyVxzyDaRAJKbiKZZEXPHZGR0jowPtNcln7dJfRyfI6PdXC+Sys3NsuT+524PGcoggOQ6qCK5DjhENeM9ubE3lHGZMzoiY77Vum4W4bShiRNbfijNEB0iufUYzLljIzIykuHbOQnaHWvN97i8o3MspU2Z9+NzRmPrD5ThQumJZHz7O01OPm+L999qVFIfHZKbWK/9A0FSuVbVEpsmfC1K7r9IOK1duEh8+aE0HFaCAJLrGAYk1wGHKCQXyc19FiC5uZFVI4MnZqNie2r2hsUIU6yEtUr0RM+WOr+itkDHxvmJWjva3ki6cDtckhcqT9s7Yv9gG4r3Dtvtc/xw4El6iuRGRL5dd+AHh0jfQu2J5Zun/+G0WcoPpeGwEgSQXMcwILkOOEQhuTkkN3CDCt8E025YQzTXkNx6DqZZWe2sguboR5xwxkqYlqni6ZLpjGIaV2dkdTJHWSq4Y1lENwOXIpJrXyMS2Vl1x6YJi6ur/+nCPvjHTaz+sptIAMlNRCOC5DrgENUcyQ1Lafu4c8PXm4X5r9HwDTp8YwlNnNibUSjNEB0iuXUcTJ3fozJnbpFnSRPmf+K8b8uVLXU+Mlecn6i10xPJNee1dU57gqrnuhUWqtr8V7/9g23nWiEi/ZJc/5pkrk2tbactpn9x/UkYN9PXxPEzCdhWhQCS6xgJJNcBh6jmSG7khhu+AejNIukXz9o35oQbjncjjJQ/vJMLya3b2LYF1zxOq3KTONejffNWgNtWFXne1DHvzcqxLYq6H/mv/GiVrZDMkmsE0JJWX2TtxxNC57ifxsrn1dw+3zsm2V6dtsoqIrnh64eDndeMWAnlupU0XYY5HMl1jC6S64BDFJKb6XGF8EQJ3SzD0UN+jOTWZ4Bbohnzw1tb8NKEM/nZ2j784pK2MSKCeSQvPE4Zz9vYekP9bfMzAm/7sDKLcA0La/g43FQ9jk3Th/7HtYWwgRJAch34kVwHHKKaI7nhVZT2cefmFHcD1DCzSpR1GyMUQzbPkNwaDKgKUmTVNDrHzWpr5zwwfWvP/WiESRAjYT0+X0IiaYRSt51mRfvUeiY46/lq0lnnbWbJtfJ0qEhktdtcQ2xhjxVYqxDdbY+h3W+zX2r/Q83gcPAEkFzHGCC5DjhENUNyM41z3M0yU8bGJUJy6zrk2eZ44upvuNtZRC2cp+fH2fqUr9ruHlfIVFfP2JXR/0w9IFEfCSC5DthIrgMOUUiuPwccNwvHipJZWcnzjKNfZU13kNyaDpz31oP41cdCPUoUNT2XzApp0jZ7O1S6I//97ze4rPO2LbpWPzqrp+5fPGs1TdsVftbXb3TMKrgVl2u3rP7nagSJSyaA5DoAI7kOOEQ1SnJjn5Xz54DjZuGnSdjxJDj7TTuhlNoEI7m1GapQQ/PO8ZJELef5UlhyQ72PHOZsRyB/at7eseO6FSDfyAMk1zHsSK4DDlFIbi/mQOoNrxeVVKcMJLc6YxHfEhWspBXUpPC4H9JSRC2+cn2YNEP9cfXFF+iW3Pg8mUK7OW9T8xZlF225W3Kj6TOHpPYhc0kkLJkAkusAjOQ64BCF5PZiDjTsZoHk9mLS1KGMoqJWNF88EyQ35m0N8ajyhTbsupUPTrVSI7mO8UByHXCIapzkdp6hjV/RCjx3l3V+NOxmgeRmnRh1T5dlRTbuudMs+ew3JLg5qeRW7rxNPeezMIhjF2WR+LYGa7We61aU2zCFILmO0URyHXCIapTkMty9IYDk9oYjpUAAAhDIQgDJdVBCch1wiEJymQO5CSC5uZGRAQIQgEBhAkiuAx2S64BDFJLLHMhNAMnNjYwMEIAABAoTQHId6JBcBxyikFzmQG4CSG5uZGSAAAQgUJgAkutAh+Q64BCF5DIHchNAcnMjIwMEIACBwgSQXAc6JNcBhygklzmQmwCSmxsZGSAAAQgUJoDkOtAhuQ44RCG5zIHcBJDc3MjIAAEIQKAwASTXgc5I7kMPPeRINXxRxx57rHzuc58bvo71uEfzFzzT4xIpbtgJILnDPsL0DwIQqBIBJNcxGhMTEzJjxgx54oknHKmGL+qLX/yiHHnkkcPXsR73CMntMdAGFIfkNmCQ6SIEIFAZAkiuYyh0JXf69OnypS99Sc4//3w555xz5LzzzpNzzz13KL/at29/+9uy6667spLrmBcmCsk1JNhmJYDkZiVFOghAAALdE0ByHQwXL14sZ555phxxxBHeV1c39XvUUUcN7VcfUzjuuOPk+uuvd5AhSgkgucyDvASQ3LzESA8BCECgOAEktzg7cjacAJLb8AlQoPtIbgFoZIEABCBQkACSWxAc2SCA5DIH8hJAcvMSIz0EIACB4gSQ3OLsyNlwAkhuwydAge4juQWgkQUCEIBAQQJIbkFwZIMAksscyEsAyc1LjPQQgAAEihNAcouzI2fDCSC5DZ8ABbqP5BaARhYIQAACBQkguQXBkQ0CSC5zIC8BJDcvMdJDAAIQKE4AyS3OjpwNJ4DkNnwCFOg+klsAGlkgAAEIFCSA5BYERzYIILnMgbwEkNy8xEgPAQhAoDgBJLc4O3I2nACS2/AJUKD7SG4BaGSBAAQgUJAAklsQHNkggOQyB/ISQHLzEiM9BCAAgeIEApK78IWX5NXXF4kG8oUBc8A9B1RyYeRmBJ8gn4nJhfLGkqXMG+4xzAHmAHOgD3NAr7fPTS70LHnkmWcn5dmJ50VXG/jCgDngngPzF4xznnCtyDUHnnp6QiaeW5grD+eh+zyED3yYA8yBpDmgCwtPPTMha9euk5GXXn5Vli5bXnxdmJwQaBABHldo0GD3qKt6IdbVbT4QgAAEIFA+Ab3e6nVXP0hu+bypYYgIILlDNJh96gqS2yfQVAMBCEBAxFtUQHKZChAoQADJLQCt4VmQ3IZPALoPAQj0lQAruX3FTWXDRADJHabR7E9fkNz+cKYWCEAAAkoAyWUeQKAgASS3ILgGZ0NyGzz4dB0CEOg7ASS378ipcFgIILnDMpL96weS2z/W1AQBCEAAyWUOQKAgASS3ILgGZ0NyGzz4dB0CEOg7ASS378ipcFgIILnDMpL96weS2z/W1AQBCEAAyS0wB9avXy/ma7LrsX7srdk3aaqyNe2yt7pvjqvSzqq3A8mt+ghVr31IbvXGhBZBAALDSwDJLTC269at8yVX9+3jJFG00xSosqssWdqkabSNfLITQHKzsyJliwCSy0yAAAQg0D8CSG4B1mGxjZPD8fFx+dnPfiZXXHGFfO1rX5NjjjlGjjvuOP977LHHSr++Rx99tJx88sly1VVXyc033yxPP/2032uVWyPBa9as8cPZSSeA5KYzIkWQAJIb5MERBCAAgTIJILk56RopNCuftuBOTk7K5ZdfLn/5l38pO++8s2y88cay/fbby+677y5/8id/4m11v9/fGTNmeHXutNNO8t73vld22GEHOfHEE+Whhx7ye29E12z9CHYSCSC5iWiISCCA5CaAIRgCEIBACQSQ3JxQjeTacjsxMSGnnXaabLnllrLNNtvI6OiofPvb35bf/e53smjRIlm6dKn3XbJkibddtmyZ9POr9WvdixcvlgULFsiFF14o06ZNk/e///3yve99zydgxN0PYMdJAMl14iEyhgCSGwOFIAhAAAIlEUByc4K1RVBF9fzzz5etttrKWx099dRT5dFHH81Z4mCSv/baa/LFL35RRkZG5JJLLvEfWWAlN/t4ILnZWZGyRQDJZSZAAAIQ6B8BJNfB2hY+3bePH3/8cZk5c6ZsuOGGonK7cOFCR0nViAr3Ye3atd6zuu95z3vkhz/8oddIu4/VaHV1W4HkVndsqtoyJLeqI0O7IACBYSSA5DpG1fyCmSbRfSOAc+fO9VZuP/zhD8udd94ZKMGkCQRW7MCWXRXdv/qrv/KeHTaiXoc+VAEpkluFUahXG5Dceo0XrYUABOpNAMl1jJ+RQVt2H374Ydlkk03kgAMOkBdffNGRuzpRph/hFhmZnTdvnmy++ebeoxeaJil9OH/Tj5Hcps+A/P1HcvMzIwcEIACBogSQ3BRy9gqu/gLXXnvtJbvuuqv3C2WatQ5CmNRGu28nnXSSTJ061fvFuBQkRLcJILlMhbwEkNy8xEgPAQhAoDgBJNfBzpZATTZ79mzZYIMN5Fe/+pWfSwVS3y+raev0Me0278bVRzD07RC33HKL3w1NwyeZAJKbzIaYeAJIbjwXQiEAAQiUQQDJTaFq5FVfvbXpppvKN77xDT+HWSENy7CfoMI72nZ9HteI7MqVK2XrrbeWM844w2+1ifMD2AkQQHIDODjIQADJzQCJJBCAAAR6RADJdYBUeTWSq++W3WKLLUT/4MOwfYzMHnjggd5fYVP51Y8JH7b+9qo/tZPcuWMyMjpHxnsFoMRy5o6NyOgcbelcGRsZk7lF6qpgf5HcIgM5oDyF54/O2VHxpu+Amt6Tagv3X2R8zqiMjBU6a3vSdK+Q8TkyWvTaUSivda3qgl3vAFCSEkByHfNAJU+/Kn2f/exn5c/+7M8cqesXZfqnLdf9008/XWbNmiUrVqzwOqNhfJIJVElyVQr1ncfRr3WzzXzhtS7Wyd33YrybWWy9wba0hNUqzLuJBNPYAp5JcrU/ft1WP001mftrMpS/RXLLZ5xew7jMGQ3NvfY8CszTuPkTN2/9OWh+GHNJbnLd/lzO/INo8bIySWhc/8VVp+m/S3KVTTx7v/+ZxNTFuD0DEkU1uQ3++CfmbfU/3t+13DaDWHbpM5MUvSeA5DqYmlXcV199VT7ykY/IBRdc4EhdvygjuUZmL774Ytl///2R3IxDWTXJ9S/QSe3PeuH1LvAx0phUbi/CQ21LlVxNb24oWr93HGpzqMxeNLPbMpDcbgmWlV/lZVTmzNXVP0vCsgpnQIoyCFhSN7ScrHW2hTNeuNrnREJZ3UpuYp3tfmUqP5aBJYqx8SYwA+PAmJh8uu0mL5Jrk6zDPpLrGKV3333Xi50/f773J3BvvfVWR+r6RZlniY3k6l9v01ejLV++3OuMkfz69aw/LR5WyTWrs6nSbGHuSGknMNeNLiSknfLibnrxN5pIfaEyOy0b3B6SOzj2zpp1roTNLc/8CQiVS6Jac7ezamkJtZHrBDGNtj/+PPDTOdofOVf8TNZObP6UOtvZM5VvVdXZjTvfO7GdPRfjdqrAmHRyIrk2i+HfR3IdY2zkT/+62cYbbyzDJrnhldzvfOc7st9++/mSa57NdSBqdNRQSq5/Y8hwE7FGP+6mFhdmZQnuhm6oTsn12xgsQsLhoTJDqQdyiOQOBLu7Um/ehP4XQHPkmT+Buec6d1QSY+pytzAhNkU4He3PdG7G5k+ps93S5PKVTYzYB8I6jz0kdLzL1VjX+PgdSHie19X/UN8y/7CS3EtiuieA5DoYGsnVxxU++tGPikqgfjTcrHKarUnrKK6SUXa7zeMKy5Ytq2Rbq9ao4ZPc0MU/cOOOp68y6lyVMjev8CqZV3Yor3VTSJVcK22nZdp+6wYZe5PupB7EHpI7COqOOkOC68mZmbO6jZ1nWl5IdrQcP23oPApU38rnPmeySnCoDYF63JKeLKFWIbHnT3z7w//rk1x+6By1qsu362LcLinx+qV5Q9ce79jiHro+dS5fLuZW32LZ5eshqXtDAMl1cDQCqCL7mc98Rv78z//cT21EV7cmnR9Zox3zGjHtg0q8/bhCnfvVjyEYJslt3dwtQfQBtm4I4ZuYH110J+EGZEtzq07rxmHqCgiFCdRtKG0FbzRIrj1eg9w3shY359vtcs6fkOwE0rbOGSOyPT93fGyhNvjh6e1PllCrkECfTLijTk1vy2PHDE3m6DlqxeTbVcaWlMZlThTVrHnj5oaZN2FJ1rTW9SeWXVwjCSubAJLrIGwL7EUXXSR/9Ed/JOPjrRcwqfhqvJFERzGVjdL2m37o9sQTT5SDDjpI9J25+kFy3UM3FJLbvjGl3YhbEjwinftW8EYeuLnZN7rAvnXTSJBcQzx1JddesTWZwmVW8EaD5JrBGtw2OpeLtCUke4G5FidRXZ4vsU1MEi5LwPzV5WABpUiuVUVy+dk4pF2PunuuNm58rMbrbvhaEoqOP9Ry29e4wHyIT01ofwgguQ7ORgA1yVNPPeX98tk3v/lNP0cd/9KZ33gRX3CNzO+9997y1a9+1Zdb7T+fZAJDIbnJ3Ss3JuUm4pTc8H8Vt1saubFW8EaD5JY7rfKVnkG4EiQx8rhCoOIMEhVI36sDS7JSioycK3HpY8+fkNzH5fMcMet7crO3OVhVBsaJ15hu8gZbwVH1CSC5jjGyJVeTnXrqqfLe977X/7O+ZhW3jjJoVnFN2ycmJry/6HbZZZd5RIz4OvA0Pqpqkpu8mlrm6kLB1aTEG1BrWrklt/28oVk10Sx6Qw4WEY1nAAAGuUlEQVT/92XsTXqw0xbJHSz/XLU7549L9lwSpXHWSmvsvvU/Hvka3FlJTMnnSW5s3a22eSupsf1POd/bPxRkkmivjcqjSH9TOOp/OSVeY9x5vb4n5jVg3WV41+LEH5BMGWz7QQDJdVAOS+7ixYvlYx/7mOy6666yaNEiL6eRQd3an/CxHVeFfW2f9s9Irr4DeLPNNpMnnnjCa16471Voc9XaUCXJzcQm9qaVKWfxRHqziLvYezeRmJt9O22q5GqLtD/+jTrm+bxB9DeFFJKbAqiv0TlFJTDfYuauNxd1Hmq5MfMxS99S5cpViNZbRBgTyuzi/ClfchPabAd3wzI1bwrrLtjZXWC/ewJIbkaGRlpVAvXP+37yk5+UF154wc9tpNDempVezWt//Ux92jEia/qgW9NObcLrr78uO+64o/fLdX1q0lBUU3/JzXCT9yXS3NTDN9GUlR3NHye5KTMgk+SmlJHrFVBpZfUoHsntEcieFNOFjDrrd5Wb5ZwLn2PhyrKUYc5Xs00rM1xH+4fIAueulhSV3D612e5GqqjaiUP7qXm1Pw6mSG4I6OAOkdwc7I0k3n777TJlyhTZaaed5K677vJL0HgjtrrVZ3Y1bNBfFVptj37sNuqxtnFsbEw233xzeeyxx/y+sJNOoP6Sm97H9BQquQVXrRyFI7kOOET1iICKSu/nrvuXosqqs0dI7GK6ELWo5NoF92k/VVQd7UjNi+Q66FUqCsnNORwqhfqZN2+ezJw5UzbccEP5+7//e1m4cGGgJCO2gcABHZi26Nb+ZTmV32984xvyB3/wB3LNNdd4rdM0fLIRQHKVU4aV3BH7rQzZ2CK52TiRqhsCKipmpTNpW0SCXSKbpc7850s3FBLzIrkyNxlO+twpuAqeWCURhQgguTmx2auiK1asEP0DCltuuaVMnTpVTjvtNHnkkUdyljiY5A899JB89rOf9Z5pvOSSS/xGILk+itSd2kluao9IUDYBHlcomzDlQwACEOgQQHI7LDLtqQSq6OrXfPTdubNnz/ZkV4X34IMPlh/96EcyOTnp/YncpUuXivnqXxPr91d/YU6/L730ksydO1eOPvpo75fMpk+fLrfddpvXDe2X+Zp+sXUTQHLdfIiNEkByo0wIgQAEIFAWASS3INm4FU/9RbRLL71UPvGJT3jPuG6wwQay++67y4wZM2SPPfbw9vV4EN+99trLa9Mmm2wio6OjcuGFF8rLL7/s996Wdj+QHScBJNeJh8gYAkhuDBSCIAABCJREAMktAaw+9/qb3/xG/uVf/sV7nEF/sUtXT4877jg5/vjj5dhjj+3b9/Of/7xX53nnnSc33HCD3HvvvaKPWfDpngCS2z3DppWA5DZtxOkvBCAwSAJIbo/om5XdpBVRE9+j6roupmrt6bpDAygAyR0A9JpXieTWfABpPgQgUCsCSG6Phkul0RbcqkpkuJ096n4ji0FyGznsXXUaye0KH5khAAEI5CKA5ObClZzYyKNuzddIr27NV+P6/dG6w+3rdxuGsT4kdxhHtdw+Ibnl8qV0CEAAAjYBJNem0cW+Edu4rf4hBiO8cfFlhyXV3UV3ySoiSC7TIC8BJDcvMdJDAAIQKE4AyS3OzpnTiKszEZG1JoDk1nr4BtJ4JHcg2KkUAhBoKAEkt6EDT7e7J4Dkds+waSUguU0bcfoLAQgMkgCSO0j61F1rAkhurYdvII1HcgeCnUohAIGGEkByGzrwdLt7Akhu9wybVgKS27QRp78QgMAgCSC5g6RP3bUmgOTWevgG0ngkdyDYqRQCEGgoASS3oQNPt7sngOR2z7BpJSC5TRtx+gsBCAySAJI7SPrUXWsCSG6th28gjUdyB4KdSiEAgYYSQHIbOvB0u3sCSG73DJtWApLbtBGnvxCAwCAJILmDpE/dtSaA5NZ6+AbSeCR3INipFAIQaCgBJLehA0+3uyeA5HbPsGklILlNG3H6CwEIDJIAkjtI+tRdawJIbq2HbyCNR3IHgp1KIQCBhhJAchs68HS7ewJIbvcMm1YCktu0Eae/EIDAIAkguYOkT921JoDk1nr4BtJ4JHcg2KkUAhBoKIGA5C588WV59fU3RAP5woA54J4DKrkwcjOCT5DPxORCeWPJUuYN9xjmAHOAOdCHOaDX2+cmF3qKPzI+MSnPTjwvutrAFwbMAfcceHLBOOcJ14pcc+CpZyZk4rmFufJwHrrPQ/jAhznAHEiaAyq4Tz09IWvWrJGRtWvXyfr16xu6qE23IZCPgJ40fCCQhwBzJg8t0kIAAhDonoC57v4/bvNEpEjVUuQAAAAASUVORK5CYII=;" vertex="1" parent="1">
          <mxGeometry x="-750" y="30" width="697" height="711" as="geometry" />
        </mxCell>
        <mxCell id="R7qSLEDc-N9UETuU_XvO-4" value="" style="shape=image;verticalLabelPosition=bottom;labelBackgroundColor=default;verticalAlign=top;aspect=fixed;imageAspect=0;image=data:image/png,iVBORw0KGgoAAAANSUhEUgAAAP4AAADHCAMAAAAOPR4GAAAB/lBMVEX////96tpPgb2xsbH/7t7u7u77+/vi4uLx8fHZ2dmmpqbDw8OsrKyvoZWalI6cnJwAAADHztmSobcrWY06aJ+AgIBVcJUaSnyuustGda5BQUEiUYTd4eiOjo66urr5//9cXFyNqsebkIanm5Hw3s///+54b2j///h7e3vF3vrP8fbu2biZttJcX3KdgF7E3OyUbkvJz82Gn6bc8f/e/v9SUlKkfFXTuZNlg6N9nsJvkrfi0cN5V0CHYVuad2j//++HrcLWvZjdtpJqamrjx6n/89nX5dhdT2H53sdEZY5NTFu5lHH/5sZtTknKrp/x799Vc4+NYFL//+BwXF06WnlNPlJ7kKxibJJ+qL5HR0elw+U0Njp2U0uisMPh7f5kW1PHuaY/HRhrgotXIwLE19GsinUFJ0JWODlAEQBYQC1OP0SNg3r/2K/PonmHXz07MiokMUVbNSgAADHuwqMAAhlEVVSMoJy5oYp6aFaHVCtAU2pNLjNASU1xSTI/PE5ebXuKe2YpFQAqO10AACUlRlRKRjYAC0hFNlOunXw0HjqVbjEySW9SU3VEIy1kYXLI0OYeFhtrSR1EJwZoWkIzCixLQmdNQSg3AABCK0SeknUAIlQlCAw0HihFZ35+emg9HwDOy7CIhJRlLAA8T0YAPngrIRkbIyulzNxyRkoNM1fhj9xBAAAa4klEQVR4nO2djV8TR/7HJ5fNw0JoCBDAkCdoYIMgD8YINpSISdrwIOEQcwYKydGjVjjBtrbkooJHtWePa/XqtT1/rb16dy2/33/5m+/sc7JJNmFVlHxer9JxMzuz753vzs5852ERqqmmmo6tjC8jIbNWmVYp4VpNPQ0aKV1BXM0yrVJpA4dvaKC0ka6rgshaZVqt3jSL+LpCUcIf2RHFf/DqKjyqGA+OK2aqWpRCqLIElPDZGwOB2GyCouJu9hcflo6aTUjizPoU0pTjQ0pUtJ473yc/4ZD4cLbsqiqVIv5QMBhM5XS6+Gzm9/oMHV0lv8Te96bH5mK/fYfEGUsFg3pqaBj4wkN/YG8XKxk+tZZapagLp/Gx8R6sD+TZV4sPKVKxqwld7MNI+lqym7uqipNRwl/nQvE3uzY2GtwjHP5FA/VHAR+fen2Z4G864G5tLQunS/Gp6VFqepXF397AuiHPvmr86YXYR1sfY/z1buqTm46bmuKzxk9d+HQj/dl2tgj+mIkt/Wg2GHQllEufumjAV8jir4dA8uyrxKeip6Z32dJfT1CfaFv6V+EyM/jHP9m6Y1e7ePz3Iz2i8eN7k6QAn/rkUxO27pwyfuxyAt8CHZgqNRRMp9Mpk+zRqA6fujCViG2fjt3C+LeGQ9M3U1qW/vbG40+7NnBlEr/mCA7ruGcfKpmou5uv+qKf4ioN8KO363W+6adFSv+OiZrZgdKPdr1J1FUvzb7K0vdROh9cEKWLNWx0ddVrWvoUdf00V/OPZNPeOs5gZy6mr91Ip/XwS3xgF54O1vjv/vlTqwRDhn9hL3NnGfDjGWL7oQwtzb7qmn88ne7Jfo6Lgoo/Saf97iofokJ8Xyjkmz4Nf3EFs+rDpKt82tTQPf7FRfLD+JQv5PMN/cEneajlNX+0q57U/JTufYfDcf8D+VuxavztLizAj19163TRda1efNQnPZzcFHX2NDaFaQ6fio6dntjh7jPbHsL403x0oVQV3vtQ9cWnwt3d3Rfl2VeLP7PjA1PCZ8e3hnHT5JZmxi+2CHF4+77DwRk2deFUCGc0vitpa63ROklsToWtPipqwcfGcOlv5eQ/VF36kJhjy4ZD8bsOR4TWzPjlv0vA2AAlM22lNJUavRSflvy36vHFxApTrSCVMvjVSAG/aPaaZVqdZPja6JXq8TXw+Kb0GxrJW0HciFaZVimvUPpulQ6SsrJWEFevVaZVynK88etq+ERHB5+xcQGjEf/jaw8OmEHELWmE680GxAjo7TMoZMUanP8d/heJyLzrIb/j47TVukwSzVitNlSgI4gf/YK9eDRwgC8bSKZzkUjEO4gPbf8l8m0AjXH40bcQwTcMP0jSTsA390Qi2Q50mU3BQG8u0qF9HGIeN9H03daCvIrjO23t5WRT9FMfDp+ZWMjknCx+L/5D8Hu5H2cWEOprFfHPsfg46iRC81+6VuBobJLHx8cDqBufg3Twh9oryK0Yvq21o7mljJqbO0YNBSkeDn9kCttqYmMKAP/aSW05clL86CiG2BfwL0xy+NujDxZW5v9mIs+HrhV9pYcbGNK7v9LrG27o8V3JBINBYj+q8JMdJ36jRi1t7driSxSbmvJwpZ/z2/0ReBT+vkzf6efxma/vDhL8aXwbMv3k2UfjJ+MY303w3fVE7kAmYndh2SO9eXko4yebVcFjnegoqFAOgx9bSjkcS7g3g4t5LBCdY599o2F+z2yAomUaXA8Rjz++SN32AL4RV4JGY6Kdw3+LN37GUoeFzclo2gD8JnP+CJQifnuHWnrgz68AFPDfwJdD43Jwoi6P7IfC0jeh+Tly6Xfwg/3gLcRW4t1/k8Zh8dc6EYrniPGHvLhuTLey+PhcDt+3QINwyAj/D6l89ifVWT6r5qZS+JtLUJKXPIi59Vnd3Svo4pky+JuB+SQJ0OQvLn3mDZer63MoPOaxIxUMppr4Z5/obT5FbPzMRzhCaumAe/H5HoETGl4P1BYOBRdU4TsrKHxc/JOl8LPkQgAfl0j8ChqzOMvgN7nr3XohEj6NgZIz4f+Eg3eU8QULYf7J4efIs4//oRNC5fGXWyrB/02HU56kDH+MXNxY5CFz6w+mWRX4IT1IjFRfEAMfk2LQ/D/CtvwIRjek5fbwIb0q/CYN8TebcOXjueQ0M29i8x1E75Uz/her540fApsD48eVGk0PD1vLVX0vVkr47apfe0TNeVW/vOYnyRL8TJ3Fol8/dOmT3PqgejQbDAbPDH5FMvDKu7A4nf9WLy8Nqr78lrQcf50UPISeeLE+Pyx+nGTXh6F1v/ojkcGZVtIQ1BAfjVZi/R357T45/kWnCcsoC4mqAn8U/hJ8EiL4ORy40D+gEb5TZZMX1FLQjZLjN9hBK0JI3u4+FH5Ob7F4ZnIWM1v6T69phI9sbWr5WyYLen3P193B4d+cOgnvcjfGr/eEs7hJM7I4vVhxakW6PLbJZjU3oKVjtLDP+7zxjWazUW78CKZohQYzKxWnVqzDa1xu7Wgrp+akggPlOeNTPbh5P0fwb3qDwTm2Kvw7NPr/pZXxH0ovwtfXN8qH2NK/CO8XrWr+w+nF4vcR/DsW3Li9c2zwE2KfiDx/ITdIu2f/EKo5ulWrhv9SJQxymfx6jRSpIK5mmVapiDCl+XiX/vHEP+bP/tHCn3VZra7ARD8ORrccSQ+6dIbzavQ1gbvfYEYTi2e51g0Z4Bw/iXxwko13hbNJcD0BlHHB6KcrwHpJzGg6b6CnNL6tlJ4DvonOttMewI/te9BAP/jFox/4I5EAuHd8Ef83vRP9PD6MeAG+mX4wSjt5fJp+74D2xFr5BE0fnqdpI2J2PMg3iQYqwDeOdjQXV8dokUU7hzL+9zsRmsg1kcHb2KPUBx52HBP1kb9obfWxUPp9HD5u7Lch1P0PO9fo+/eiz/4T74VIZJffbocOwRROb64SfMNkaZ9fc6vC+Obh8JnNg7GkcaLJgGKXA2jzAF09w+PfXMAQzJTzgYA/0cbhz86N7K10f8s5kqZXp8wmtieAwhefYbuffXweoQ8djq1K8G0d5VxeLYXje4fE/zsu+64V8uz7sql2hFy49D/AfdlltvSnk7SIf+luL8Ef2cdt/uXub9mjA5Oo78sV7tk30Zw8lZZ+uwqH14mO5UrxjSV9fUZwZRhDcI1sVwaGKMiEDeLajS8krFkef60/fD/AGj+cFOYuZdhjRD6+6svgeu+7VVL3VYavboT7REeyDH4mGIxEgqmH7GgMjUY6S+GjbVzSke+g9MP/HK6vH76Ma/4+8KUC/s/3sCXzVd92kgxwAj4Z4Pxpn0vijzCmN8ONvOn60cBJEvo+6L2vtuozt6p19Te3lvX1DbF98zsBGHsrg09EjD98GRqlO4DPnxLyIBGf0/hJLhDmR/j63pL8HBpFT05K/q0K3zmp3tPdMpk3yJOHH3rcv70LhgzDspfV4UOc8D+hB/8j4J+CATrenT5SBJ9/9lHfgiR6fMHtZkf51OOr9/OSB6AtrwKU4Y834aypLmypm7dTqT1V+MSXwdQDPoxVJogrQ8wkJPVqCAOcwnwwShrd7OZT4c7Ns1VF/Arc/ArzO6T4oToywcJSt0LGetWV/gvU4Y2/uZTxJ+rp4YHTuBJ7lfA1rPqYBTRyQEJDSw7HUzX4MGAZesjNamEswvEGl8tlE2czoARrddAlMHC+z+u4WpjlcoDDZtIUhsD879jmkyp8ePGpoi/74sP4IWl1Uxb/zUBsAaELc/Xs/JyZRgH3qo2eeIvHT+jdT3bdMIErE/H/9D+AH/7o9p9vp5IcJvN7vz9yAO+DcI8/+xbBd6ma3kC0rE2zh/nBbrf7/cJslHL4oSRK/Gi3P55zw6w2JpML7fBVy7oHzUjxB5669exv1Bxb+j/bcftmlsM/BX+5jlD03k+tGF/2TiyNr1Wj1wDDuibhthvlz0oBfjaAEjmzYboTjD+Tw7c33OVgzQe3/zGkYPyJ+1u8WU33EvzoUwO9foYzfhY//P0SvCaHBmPE+NP5xX+YLk/BG18Jv7Ty8Zl3MdcOTU/fSO/lX+q41+tt52fH/JydWmGyny5DpNAc2/2DIc7p3uiNVTjI/As3BUfZxlD8Kf0zwR8/mZdm6Q5vW0dxtT2PDu88bqwydXVW6wou/fBjh8PxK/6P670ajdFz7OxGBBVK3xXkg9ZNZtfD4lNb1o19bPxGLjbuKxDjD189Y30Cxo8KxoBLuzucpVQM6VD4cLnMMyRMTWS+FX5LXPI/vuGPCBUpxgetkdqXrfnP4uYy9+yjMKQCbcHEd4Mw6Q/w19RNaj2UDuXugLHKbhEZhyXPAJX+6SEb8vlx9XgP16p8Wxjj+/yua7uuZw3n+DO5nxLQSmTxs9IJgaCjhg/OuO5/6C1Y5Mq6/yI2WLOnAszdHAFmTJz4y8f4RvYIX/rdX0Iqeu4JJfixufzsjhp+2OvBzX0yD5tcGSO+XCgSNCj7GMUxTwMXYlMRm/s4xnh+4R85fGQsaJpop8KZKEcO/8VKHOWxkMazBnKpT8hcp1Wm1clslQxxWrSQ3hJRn5Beo0yrlT5SM36i44l/zKu+Gj4rOb6z5OBmnkpOaC+tI4r/3xJjmwVjnXlrmV4D/DZVri7O61HDl6qGLxVkIA5slh7iVFSxBNiAwYzytgc1K4SK6fnjv4f7MNEr7LxTW3lPb6Eu4f9GzvMJXO/H3f6gNzVHOu/Mtcj9KyjOdmR9sFTxTDdx8sHoT/fUy8bXbTkaHVu9Ubh6i357v2J83ZKQQAYnMIlGYPyTuDJghSR4r8ZsGXYQFdw/m7sb5F4Mgd/g1MvG564Srh5rvnJ8xJY+nwCHH208gHGTfjTUi2/Bbo8Ev9e3C2H44Ujg/xCIR+6fJ0P32WrwmcYzoci1A5LAYxY/sxf+ZpTc1/jecCbn4Ywf8Id2e8g//t15NPCj/2lF5gzG3xw0m81V4I/8ZxSZt3ECY4OwfwfGj53ywOJW4rjzvVHn4Ye7+h45Ur/0JqD0J85f8hwFfN0Nz9lRD9juEPE0VYwf30FDSWL87LptYvzEjVUHfiEf+D4pYbCJHq43W2DtMorf84RfOj71Ob7mtUG4+j/tulyu9olKq76PIYEASWDV5bK3Az5TV4c762RBaF8Op/oTt7aD2nJZrOuLiIlAfdP58vG5Vy9cvQFmWDkrLv2CBPr5X7IEP2kwmbiaH23Db/PCKv0jYPysolf4UJXj+xPn+dB1ER8ehr4bfr8/yzmww1mv/9LOQz7Cy3/vczpUq69YAuTKjazPjj+Gw5KzjkKrr6SOapu/3J490u17Xj/85aYKVGpmVxkdUfzDqIavWjX8l6oaPqvjiS+O8lhNGslVQVzNMq1SLgHfVa+R/BXEtWuVaZXy14yf6HjiH/Oqr4bPqoavkV4ffONoqyrJ/AqvD/5y8wkVytu267XBN6tb0pW3X6GAz4ATinNOyWYripP6S+KXPx38WUU8WsKetEVjgEriJ1WtaGrJW9DC41Nb/mvniZPS53bfXSUrTyaWUql+fi42KolPXYPTwUlqcrvXpKfH2Qx9MFV5x7iD/zJPUo5dfqo3rIBzwiAfA4vYYh2FazjU4dtUrec5UWy3Rhhmu0pGOAxu9zd7/K5C0WRXVg0+nH5RejprY33JrjR7OpmcP2UEd+5mP441xvFn9O6Bc7BgkdGvzeljkzNV4qvbrre52HaFMCrz9hm4fveT1PnZ1LN2KD7HL1cMGTX4m7LTM4Wns/iwNhkN9RuR6Zq4vHFtkF2vGe1EVeMvq1rMVny7wujC8PYcGaDwkYIz4b8PYFFb9r4a/Oj+8PZT9nST4ukEf70edmpkvolEvhNXasAaDoI/cq5qfIO6tZz5+7RKqj6ftd0D6NGlYGprKRXcWkQjS8FgzhNXg49P1xc5PSnif2TdQ5TL+mOdJTtn5eyQSQc4/LGnKNa4pbSAryx+dfWeFP9nuAIfFNjw8JPTw8Qh7INupl7wDZfCl52+Wnj6dLLe7QTjZ4bpjMt+mt/GObEOJwJ+tHN6cb660q+y3pPij+RcdjtsHGHssrtcGx/DsRBMJO5SVfrC6QhOd33syTvdh8O2d0nVt53DR3Psy5H6mowEY3xfDjGX3qkOv8p6T4bfbzAYYGSe+RF2jxFHQ9QZ/0gnPh1mBjC3ip3O1/wfwWjn2YfSs6Hmh92pq3v2VdZ7+duTg0T8e34/vLsR8wMO+HuEmlnVe19y+vd5p0seODt570cdkUhavlBniHsNxpJVvPcNqnYqVaj3kASfHX6E1pdZCLE/CKFS+CpOB7FLfsyGvKew6KiqTEXw1W1UrFDvodehza+y3iv4MAPRq49ffb2HXgP89v+W3aIXVPiVH6JXHp/9CFRZPY89u16was4uVjV8jfQq4UuGOGmNZK8grmaZVilxiPOYj/Aec+M/lvgVVX1m5d0p81SAnyi6zUfhzi3iJDlaeSG/kBhtlEyoo9lPeME5phJ+bVYmEaMCfFuyo2O06P6soiT4DQHE1HlGziFE+cmHSYgnwiCCSfATdvwgzu/jqDhek4f/qlrGbne5yBdNMmSrDvB8M2+6AuhiYpKP8MzoZXKIMRnuDJrMD8RNoobYTW50Kaz7JDaZ7D9wUDG+eXkStjFq6ZhcLnd3JfhjAdiBBSaxM6SmIZ3wcE6MIOKHfz+YuaFv2Gejrnv4z4kaTKaB82SPDhza7ie+z4H+TBu6aGAb3UOLJhPjZU7hOwxfHHzI4TNjjuAvt1Nbi4j1988S/NhThKSb9arDdybbeAfAiea2MiYgxW+n39nxiHP4WfdrvxhBxL/QCd67DLfl5EUPt2UZ3Jh1/n4xlwz09nniyB078x6PD5vRRNAp2JfVe78dCaVPdXEbu8QXhuvhW4AIFgF57qZ+qQjf3N4q378KTKBELSDB31y1vrHH4uOnOuNZg4zfkzzUIv42tsjri2D88V8djr166w4XzZcKRHPE08Nke0Ou7HlEYe6zNz5PSPDHrPjE8UHY2erBr+zs/vhtm9mwDWHdEqxwgxUwzHpo31NR6eMnvtDzg01A8aMs+fjsBpUEX9eKNldg29CZUUncvNLvhNInn5f1DXMb1o2tehIe3eMkMjbchpsQZUv/t/LST4O7f60fxS57+NKPPsVdsugkeIeHieo9iauDqG9fPb65fbLYxmUtzcVMQIrfa0iI+EMrT/DtkG21KXn2fxwM3bA08PhINH40Taoqxka8VvDsn+0PSZ99g8kcgR3KmHHHlE00/kzaAdt8o1Aduxd/XYBykiSm1VV9igUvNYGOct/lafD7/afZrUcpwAdM2QoTSc1P+Z+tkJo/2piCbbpE/Afc5cJSTuTDWTJdqwEBP4PzsBF8RDaGyxS8ZnVpqPqJ0RFTyago/RIFX6YWKHjvY/zoUiroCKYcW/3ytUwFe3bxu+0iruYfWXLAeY6tXg5fEI9P5CX4kncemobvuWItBZAPzIl8jRg+SyxTse0Lks3qfL0KJqCEL+o92QUUfIhW/J7muwXNngnYvc3B+7P1lMSzrWfxIcJWZ/55vkdwmLz4zsJN2RJfPcrensm2Cj5J19ImH+op2ehl5KZ5NBu9ttGOFpWb1Z5o6WiVuzxfhza/s6lktSex/abSuzQTie33vJb8UcVHKkyAFHyhv1O2ihMa+s888C3OWbvd35S/Y161+LPkGYbKnGzMOlPE6VxWJd/7zqYSFSBUeopdOVnph5YNGRv5FOnQoAl3tbIafoh2nuDf5G9ENSrT6jPaRtuUTKBIwRPJ8PtG0dkAyg47uSXMWVuZzxBXILJBZRQmOcw8J3wEJlDwZcYTzc3KBU8kw4/NAXfWNYhbHLCA/a5L9pqsEp8dZ4jCZqm4RZFKbSkONqqQmh6fsb1VYgInWtpa20t1eqX4fVs3vY07B2D88OWBrz1ZTaq+tUikpzES8a96QmyDXuHz2qqksr8vmEDpgidSqPnJZ4hJThpVfbCTK/lfBjfmv/rMYin8vLYqqfb2GKHbixu5JQueSI7vh+uywB/y7Xm9Vi++bt4bdID+t/r9LSvx9TmbyhU8kRz/XSF0SeEqD4+/3c+6+arTcx/lGYN2OnRY0MASHxJ1CHyuT7D9qyMldgQq1TEf5Krhszqe+OIoj2abpr5SO7UKH6O0qJvSUVYGl8rJIaA6jTKtVtaa8RMdT/xjXvXV8FnV8DVSDV+1Xml85a7WccE3Nz6qVzgswefnvZK5DWwDC/76VK3lKSODyeRkLIywU6FZCDEGIQZWidn8h8M31j1q9JoKDkvwucFJpsvlcr3xfyQM3fQJYW1VSfwHS7grm1rCaSSuQrd5H58auwUhGK9rsG98weQoCM6uTz1EOmFlyQzX/c3gXF3f5H+KR6Yi+G52Kk5p+SPexsZGe/4YJ48/cNsbiXhTMLOlC8feIPjMZU+CfiAMw5UufdiJskF0koj+Eli/Y6B9e8ypbgw9MYeMj3spFj962+uNeINwBzIAURW+vVGVHsGffARxHV9PMLgLvj1mipghHIv/0B9yZVXiw0g/2aEz9iOU+RfChycB/09J6zJzDUYuYcbAhXMcPgpv4FzJUO9Qb5XGbzSp3PelsdFbX6z0Y/dW8C2AlUboLnxfNnIGZpd4xhYlQ76l8WHwBj7TxH1yShDB32ynhxOk9Edw6d/hSx/dwehGsp53luR6kJ9qeXyk7oMpjY0OC23Iv73CCu777QbTLH42Q+Qz6FarazB8tRcx/oBK/CEyQA8D1n0fwGPMf2QbMV8jsuuz3vQsDB7+7fWdduHZH2pyGkKpAKJcbLYupW8GlsFXJXPENaxgW+L6/Qa7Hb4YZ6bZCbS0GZnJqvMRdVWfKIbMbqP5vAg+6kulUkGHMMAhVH0Zu/80bN/N51rKPXuomt+kOIOSwzfQJH8aQzPfw+ySL+DodRiTEqd5lsI38NOujZAU4NNmMznwcw4ynoDVgLjm90VIPV1PhjkZPlecxeYNnGtjNVWfOinXKhx+yMVpEDFkYt46PMUY3yhZWFcKX0hgRUyKC+HniOAbjbjMGRN5En2k9Ck7F7WdXQIvn0lVoBfS6DVmvVjkbRyFkLdS41eUjyQlGD/VlB9hm0RYyT8sVa3Nz6qGr5Fq+KpVw3+pquGzquFrpBq+ar1sfGGUxxSx1GmjChKyaJZpdbIIQ5zQFD+GeklWV1NNR0P/D+n3cL1f48xZAAAAAElFTkSuQmCC;" vertex="1" parent="1">
          <mxGeometry x="-740" y="750" width="472.26" height="370" as="geometry" />
        </mxCell>
        <mxCell id="R7qSLEDc-N9UETuU_XvO-9" value="" style="edgeStyle=orthogonalEdgeStyle;rounded=0;orthogonalLoop=1;jettySize=auto;html=1;" edge="1" parent="1" source="R7qSLEDc-N9UETuU_XvO-5" target="R7qSLEDc-N9UETuU_XvO-8">
          <mxGeometry relative="1" as="geometry" />
        </mxCell>
        <mxCell id="R7qSLEDc-N9UETuU_XvO-5" value="로그인 페이지" style="strokeWidth=2;html=1;shape=mxgraph.flowchart.document2;whiteSpace=wrap;size=0.25;" vertex="1" parent="1">
          <mxGeometry x="140" y="210" width="100" height="60" as="geometry" />
        </mxCell>
        <mxCell id="R7qSLEDc-N9UETuU_XvO-17" value="" style="edgeStyle=orthogonalEdgeStyle;rounded=0;orthogonalLoop=1;jettySize=auto;html=1;" edge="1" parent="1" source="R7qSLEDc-N9UETuU_XvO-8" target="R7qSLEDc-N9UETuU_XvO-16">
          <mxGeometry relative="1" as="geometry" />
        </mxCell>
        <mxCell id="R7qSLEDc-N9UETuU_XvO-8" value="ID/PW 입력" style="shape=parallelogram;html=1;strokeWidth=2;perimeter=parallelogramPerimeter;whiteSpace=wrap;rounded=1;arcSize=12;size=0.23;" vertex="1" parent="1">
          <mxGeometry x="140" y="300" width="100" height="60" as="geometry" />
        </mxCell>
        <mxCell id="R7qSLEDc-N9UETuU_XvO-19" value="" style="edgeStyle=orthogonalEdgeStyle;rounded=0;orthogonalLoop=1;jettySize=auto;html=1;" edge="1" parent="1" source="R7qSLEDc-N9UETuU_XvO-16" target="R7qSLEDc-N9UETuU_XvO-18">
          <mxGeometry relative="1" as="geometry" />
        </mxCell>
        <mxCell id="R7qSLEDc-N9UETuU_XvO-16" value="ID/PW 확인 처리" style="whiteSpace=wrap;html=1;strokeWidth=2;rounded=1;arcSize=0;" vertex="1" parent="1">
          <mxGeometry x="130" y="440" width="120" height="60" as="geometry" />
        </mxCell>
        <mxCell id="R7qSLEDc-N9UETuU_XvO-23" value="" style="edgeStyle=orthogonalEdgeStyle;rounded=0;orthogonalLoop=1;jettySize=auto;html=1;" edge="1" parent="1" source="R7qSLEDc-N9UETuU_XvO-18" target="R7qSLEDc-N9UETuU_XvO-22">
          <mxGeometry relative="1" as="geometry" />
        </mxCell>
        <mxCell id="R7qSLEDc-N9UETuU_XvO-18" value="&lt;div&gt;&lt;br&gt;&lt;/div&gt;사용자&lt;br&gt;&lt;div&gt;테이블&lt;/div&gt;" style="strokeWidth=2;html=1;shape=mxgraph.flowchart.database;whiteSpace=wrap;" vertex="1" parent="1">
          <mxGeometry x="300" y="440" width="70" height="60" as="geometry" />
        </mxCell>
        <mxCell id="R7qSLEDc-N9UETuU_XvO-31" value="" style="edgeStyle=orthogonalEdgeStyle;rounded=0;orthogonalLoop=1;jettySize=auto;html=1;" edge="1" parent="1" source="R7qSLEDc-N9UETuU_XvO-22" target="R7qSLEDc-N9UETuU_XvO-30">
          <mxGeometry relative="1" as="geometry" />
        </mxCell>
        <mxCell id="R7qSLEDc-N9UETuU_XvO-22" value="동일한 ID&lt;div&gt;존재 확인&lt;/div&gt;" style="strokeWidth=2;html=1;shape=mxgraph.flowchart.decision;whiteSpace=wrap;" vertex="1" parent="1">
          <mxGeometry x="290" y="540" width="90" height="90" as="geometry" />
        </mxCell>
        <mxCell id="R7qSLEDc-N9UETuU_XvO-24" style="edgeStyle=orthogonalEdgeStyle;rounded=0;orthogonalLoop=1;jettySize=auto;html=1;entryX=1;entryY=0.5;entryDx=0;entryDy=0;entryPerimeter=0;" edge="1" parent="1" source="R7qSLEDc-N9UETuU_XvO-22" target="R7qSLEDc-N9UETuU_XvO-5">
          <mxGeometry relative="1" as="geometry">
            <Array as="points">
              <mxPoint x="440" y="585" />
              <mxPoint x="440" y="240" />
            </Array>
          </mxGeometry>
        </mxCell>
        <mxCell id="R7qSLEDc-N9UETuU_XvO-25" value="NO" style="text;html=1;align=center;verticalAlign=middle;resizable=0;points=[];autosize=1;strokeColor=none;fillColor=none;fontStyle=1" vertex="1" parent="1">
          <mxGeometry x="386" y="558" width="40" height="30" as="geometry" />
        </mxCell>
        <mxCell id="R7qSLEDc-N9UETuU_XvO-26" value="YES" style="text;html=1;align=center;verticalAlign=middle;resizable=0;points=[];autosize=1;strokeColor=none;fillColor=none;fontStyle=1" vertex="1" parent="1">
          <mxGeometry x="332" y="629" width="50" height="30" as="geometry" />
        </mxCell>
        <mxCell id="R7qSLEDc-N9UETuU_XvO-42" value="" style="edgeStyle=orthogonalEdgeStyle;rounded=0;orthogonalLoop=1;jettySize=auto;html=1;" edge="1" parent="1" source="R7qSLEDc-N9UETuU_XvO-30" target="R7qSLEDc-N9UETuU_XvO-41">
          <mxGeometry relative="1" as="geometry" />
        </mxCell>
        <mxCell id="R7qSLEDc-N9UETuU_XvO-30" value="PW&lt;div&gt;일치(확인)&lt;/div&gt;" style="strokeWidth=2;html=1;shape=mxgraph.flowchart.decision;whiteSpace=wrap;" vertex="1" parent="1">
          <mxGeometry x="290" y="665" width="90" height="90" as="geometry" />
        </mxCell>
        <mxCell id="R7qSLEDc-N9UETuU_XvO-32" style="edgeStyle=orthogonalEdgeStyle;rounded=0;orthogonalLoop=1;jettySize=auto;html=1;exitX=1;exitY=0.5;exitDx=0;exitDy=0;exitPerimeter=0;entryX=1;entryY=0.5;entryDx=0;entryDy=0;entryPerimeter=0;" edge="1" parent="1" source="R7qSLEDc-N9UETuU_XvO-30" target="R7qSLEDc-N9UETuU_XvO-5">
          <mxGeometry relative="1" as="geometry">
            <Array as="points">
              <mxPoint x="440" y="710" />
              <mxPoint x="440" y="240" />
            </Array>
          </mxGeometry>
        </mxCell>
        <mxCell id="R7qSLEDc-N9UETuU_XvO-33" value="" style="group" vertex="1" connectable="0" parent="1">
          <mxGeometry x="460" y="516" width="255" height="60" as="geometry" />
        </mxCell>
        <mxCell id="R7qSLEDc-N9UETuU_XvO-40" style="edgeStyle=orthogonalEdgeStyle;rounded=0;orthogonalLoop=1;jettySize=auto;html=1;exitX=0;exitY=0.5;exitDx=0;exitDy=0;" edge="1" parent="R7qSLEDc-N9UETuU_XvO-33" source="R7qSLEDc-N9UETuU_XvO-27">
          <mxGeometry relative="1" as="geometry">
            <mxPoint x="-20" y="30.22222222222217" as="targetPoint" />
          </mxGeometry>
        </mxCell>
        <mxCell id="R7qSLEDc-N9UETuU_XvO-27" value="&lt;p style=&quot;margin:0px;margin-top:4px;text-align:center;&quot;&gt;&lt;b&gt;Message&lt;/b&gt;&lt;/p&gt;&lt;hr size=&quot;1&quot; style=&quot;border-style:solid;&quot;&gt;&lt;div style=&quot;height:2px;&quot;&gt;&lt;/div&gt;" style="verticalAlign=top;align=left;overflow=fill;html=1;whiteSpace=wrap;" vertex="1" parent="R7qSLEDc-N9UETuU_XvO-33">
          <mxGeometry width="255" height="60" as="geometry" />
        </mxCell>
        <mxCell id="R7qSLEDc-N9UETuU_XvO-28" value="동일 ID가 존재하지 않습니다." style="text;html=1;align=center;verticalAlign=middle;resizable=0;points=[];autosize=1;strokeColor=none;fillColor=none;fontSize=14;fontStyle=4" vertex="1" parent="R7qSLEDc-N9UETuU_XvO-33">
          <mxGeometry x="34.5" y="27" width="190" height="30" as="geometry" />
        </mxCell>
        <mxCell id="R7qSLEDc-N9UETuU_XvO-35" value="" style="group" vertex="1" connectable="0" parent="1">
          <mxGeometry x="460" y="647" width="255" height="60" as="geometry" />
        </mxCell>
        <mxCell id="R7qSLEDc-N9UETuU_XvO-39" style="edgeStyle=orthogonalEdgeStyle;rounded=0;orthogonalLoop=1;jettySize=auto;html=1;exitX=0;exitY=0.5;exitDx=0;exitDy=0;" edge="1" parent="R7qSLEDc-N9UETuU_XvO-35" source="R7qSLEDc-N9UETuU_XvO-36">
          <mxGeometry relative="1" as="geometry">
            <mxPoint x="-20" y="30.333333333333258" as="targetPoint" />
          </mxGeometry>
        </mxCell>
        <mxCell id="R7qSLEDc-N9UETuU_XvO-36" value="&lt;p style=&quot;margin:0px;margin-top:4px;text-align:center;&quot;&gt;&lt;b&gt;Message&lt;/b&gt;&lt;/p&gt;&lt;hr size=&quot;1&quot; style=&quot;border-style:solid;&quot;&gt;&lt;div style=&quot;height:2px;&quot;&gt;&lt;/div&gt;" style="verticalAlign=top;align=left;overflow=fill;html=1;whiteSpace=wrap;" vertex="1" parent="R7qSLEDc-N9UETuU_XvO-35">
          <mxGeometry width="255" height="60" as="geometry" />
        </mxCell>
        <mxCell id="R7qSLEDc-N9UETuU_XvO-37" value="PW가 일치하지 않습니다." style="text;html=1;align=center;verticalAlign=middle;resizable=0;points=[];autosize=1;strokeColor=none;fillColor=none;fontSize=14;fontStyle=4" vertex="1" parent="R7qSLEDc-N9UETuU_XvO-35">
          <mxGeometry x="44.5" y="27" width="170" height="30" as="geometry" />
        </mxCell>
        <mxCell id="R7qSLEDc-N9UETuU_XvO-52" value="" style="edgeStyle=orthogonalEdgeStyle;rounded=0;orthogonalLoop=1;jettySize=auto;html=1;" edge="1" parent="1" source="R7qSLEDc-N9UETuU_XvO-41" target="R7qSLEDc-N9UETuU_XvO-51">
          <mxGeometry relative="1" as="geometry" />
        </mxCell>
        <mxCell id="R7qSLEDc-N9UETuU_XvO-41" value="인증 확인&lt;br&gt;(권한 부여)" style="whiteSpace=wrap;html=1;strokeWidth=2;spacing=2;spacingTop=0;" vertex="1" parent="1">
          <mxGeometry x="130" y="680" width="120" height="60" as="geometry" />
        </mxCell>
        <mxCell id="R7qSLEDc-N9UETuU_XvO-43" value="종료" style="strokeWidth=2;html=1;shape=mxgraph.flowchart.terminator;whiteSpace=wrap;" vertex="1" parent="1">
          <mxGeometry x="140" y="914" width="100" height="60" as="geometry" />
        </mxCell>
        <mxCell id="R7qSLEDc-N9UETuU_XvO-45" value="" style="group" vertex="1" connectable="0" parent="1">
          <mxGeometry x="-60" y="670" width="130" height="60" as="geometry" />
        </mxCell>
        <mxCell id="R7qSLEDc-N9UETuU_XvO-50" style="edgeStyle=orthogonalEdgeStyle;rounded=0;orthogonalLoop=1;jettySize=auto;html=1;exitX=1;exitY=0.5;exitDx=0;exitDy=0;" edge="1" parent="R7qSLEDc-N9UETuU_XvO-45" source="R7qSLEDc-N9UETuU_XvO-47">
          <mxGeometry relative="1" as="geometry">
            <mxPoint x="250" y="110.27272727272725" as="targetPoint" />
          </mxGeometry>
        </mxCell>
        <mxCell id="R7qSLEDc-N9UETuU_XvO-47" value="&lt;p style=&quot;margin:0px;margin-top:4px;text-align:center;&quot;&gt;&lt;b&gt;Message&lt;/b&gt;&lt;/p&gt;&lt;hr size=&quot;1&quot; style=&quot;border-style:solid;&quot;&gt;&lt;div style=&quot;height:2px;&quot;&gt;&lt;/div&gt;" style="verticalAlign=top;align=left;overflow=fill;html=1;whiteSpace=wrap;" vertex="1" parent="R7qSLEDc-N9UETuU_XvO-45">
          <mxGeometry x="60" y="80" width="130" height="60" as="geometry" />
        </mxCell>
        <mxCell id="R7qSLEDc-N9UETuU_XvO-48" value="로그인 완료" style="text;html=1;align=center;verticalAlign=middle;resizable=0;points=[];autosize=1;strokeColor=none;fillColor=none;fontSize=14;fontStyle=4" vertex="1" parent="R7qSLEDc-N9UETuU_XvO-45">
          <mxGeometry x="81.07843137254902" y="107" width="90" height="30" as="geometry" />
        </mxCell>
        <mxCell id="R7qSLEDc-N9UETuU_XvO-53" value="" style="edgeStyle=orthogonalEdgeStyle;rounded=0;orthogonalLoop=1;jettySize=auto;html=1;" edge="1" parent="1" source="R7qSLEDc-N9UETuU_XvO-51" target="R7qSLEDc-N9UETuU_XvO-43">
          <mxGeometry relative="1" as="geometry" />
        </mxCell>
        <mxCell id="R7qSLEDc-N9UETuU_XvO-51" value="메인페이지로&lt;div&gt;리다이렉트&lt;/div&gt;" style="whiteSpace=wrap;html=1;strokeWidth=2;spacing=2;spacingTop=0;" vertex="1" parent="1">
          <mxGeometry x="130" y="820" width="120" height="60" as="geometry" />
        </mxCell>
        <mxCell id="R7qSLEDc-N9UETuU_XvO-55" value="로그인 FLOWCHART" style="text;html=1;align=center;verticalAlign=middle;resizable=0;points=[];autosize=1;strokeColor=none;fillColor=none;fontSize=35;fontStyle=1" vertex="1" parent="1">
          <mxGeometry x="-20" y="41" width="350" height="60" as="geometry" />
        </mxCell>
      </root>
    </mxGraphModel>
  </diagram>
</mxfile>
